{"glyphs":{"0":{"ha":814,"x_min":60,"x_max":754,"o":"m 60 482 q 145 872 60 757 q 407 987 231 987 q 669 872 583 987 q 754 482 754 757 q 669 92 754 208 q 407 -23 583 -23 q 145 92 231 -23 q 60 482 60 208 m 260 482 q 281 241 260 357 q 407 125 302 125 q 533 241 512 125 q 553 482 553 357 q 533 724 553 608 q 407 840 512 840 q 281 724 302 840 q 260 482 260 608 z "},"1":{"ha":615,"x_min":87,"x_max":488,"o":"m 105 772 q 129 823 87 805 q 211 873 168 841 q 281 939 254 905 q 339 977 311 977 l 447 977 q 488 936 488 977 l 488 41 q 447 0 488 0 l 338 0 q 298 41 298 0 l 298 686 q 300 740 298 713 l 298 740 q 252 694 277 713 q 201 665 227 675 q 153 682 169 651 l 105 772 z "},"2":{"ha":814,"x_min":60,"x_max":753,"o":"m 111 0 q 60 44 60 0 l 60 77 q 92 146 60 112 l 295 360 q 463 533 387 457 q 538 686 538 608 q 500 799 538 763 q 403 836 462 836 q 273 792 309 836 q 220 699 236 749 q 163 665 204 651 l 94 688 q 75 751 61 699 q 183 918 102 848 q 425 987 264 987 q 667 902 591 987 q 742 715 742 816 q 632 485 742 584 q 433 291 522 385 l 317 170 l 317 165 q 385 168 358 168 l 702 168 q 753 124 753 168 l 753 44 q 702 0 753 0 l 111 0 z "},"3":{"ha":814,"x_min":41,"x_max":751,"o":"m 68 69 q 64 133 41 92 l 95 190 q 168 196 117 231 q 262 148 210 166 q 380 129 315 129 q 509 177 470 129 q 547 286 547 226 q 502 397 547 348 q 372 446 456 446 l 320 446 q 276 482 276 446 l 276 557 q 320 594 276 594 l 361 594 q 471 633 423 594 q 519 730 519 671 q 487 805 519 775 q 385 836 456 836 q 269 816 317 836 q 191 768 220 796 q 121 772 151 728 l 82 829 q 96 896 60 862 q 222 965 144 943 q 373 987 299 987 q 632 918 547 987 q 717 748 717 848 q 659 612 717 673 q 535 528 600 551 l 535 525 q 682 442 612 506 q 751 283 751 378 q 657 56 751 134 q 372 -23 564 -23 q 204 2 291 -23 q 68 69 118 26 z "},"4":{"ha":814,"x_min":42,"x_max":772,"o":"m 86 212 q 42 256 42 212 l 42 345 q 62 412 42 384 l 438 941 q 501 977 463 977 l 601 977 q 646 932 646 977 l 646 380 l 728 380 q 772 336 772 380 l 772 256 q 728 212 772 212 l 646 212 l 646 44 q 602 0 646 0 l 500 0 q 456 44 456 0 l 456 212 l 86 212 m 231 380 l 456 380 l 456 642 q 458 696 456 669 l 456 696 l 231 380 z "},"5":{"ha":814,"x_min":46,"x_max":743,"o":"m 68 68 q 62 120 46 98 l 110 185 q 179 187 138 224 q 254 147 203 165 q 356 129 305 129 q 487 172 433 129 q 540 299 540 216 q 506 427 540 378 q 424 476 472 476 q 348 470 382 476 q 276 431 313 463 q 214 408 250 408 l 140 408 q 96 452 96 408 l 96 920 q 140 964 96 964 l 628 964 q 672 920 672 964 l 672 840 q 628 796 672 796 l 286 796 l 286 630 q 283 576 286 603 l 287 576 q 367 617 323 607 q 461 628 411 628 q 662 547 580 628 q 743 296 743 466 q 639 59 743 140 q 392 -23 535 -23 q 185 3 273 -23 q 68 68 98 29 z "},"6":{"ha":814,"x_min":60,"x_max":755,"o":"m 60 455 q 169 874 60 761 q 446 987 279 987 q 575 969 511 987 q 674 920 640 950 q 688 863 707 890 l 644 795 q 581 795 622 762 q 521 824 560 812 q 439 836 482 836 q 309 769 368 836 q 249 542 249 702 l 252 542 q 336 608 282 588 q 469 628 391 628 q 683 535 610 628 q 755 304 755 441 q 671 66 755 155 q 412 -23 586 -23 q 143 101 226 -23 q 60 455 60 226 m 282 300 q 316 173 282 218 q 415 129 350 129 q 518 166 484 129 q 552 305 552 203 q 518 435 552 395 q 423 476 484 476 q 319 421 356 476 q 282 300 282 366 z "},"7":{"ha":754,"x_min":56,"x_max":698,"o":"m 100 796 q 56 840 56 796 l 56 920 q 100 964 56 964 l 654 964 q 698 920 698 964 l 698 844 q 664 771 698 809 q 469 458 525 614 q 414 82 414 302 l 414 40 q 370 -4 414 -4 l 268 -4 q 224 40 224 -4 l 224 58 q 305 470 224 303 q 520 796 386 637 l 520 799 q 466 796 493 796 l 100 796 z "},"8":{"ha":814,"x_min":58,"x_max":755,"o":"m 58 260 q 130 441 58 376 q 253 520 201 506 l 253 524 q 141 596 195 542 q 86 738 86 650 q 172 916 86 844 q 407 987 258 987 q 642 916 556 987 q 728 738 728 844 q 673 596 728 650 q 561 524 618 542 l 561 520 q 684 441 612 506 q 755 260 755 376 q 674 56 755 134 q 407 -23 592 -23 q 140 56 222 -23 q 58 260 58 134 m 262 280 q 296 166 262 203 q 407 129 330 129 q 518 166 484 129 q 552 280 552 203 q 515 388 552 338 q 407 437 478 437 q 299 388 336 437 q 262 280 262 338 m 284 718 q 315 632 284 663 q 407 601 346 601 q 499 632 468 601 q 530 718 530 663 q 497 804 530 772 q 407 836 465 836 q 316 804 349 836 q 284 718 284 772 z "},"9":{"ha":814,"x_min":58,"x_max":754,"o":"m 58 661 q 143 899 58 810 q 402 987 228 987 q 671 863 588 987 q 754 509 754 739 q 645 90 754 203 q 368 -23 535 -23 q 239 -4 303 -23 q 140 45 174 14 q 125 102 107 74 l 170 169 q 233 169 192 202 q 293 141 254 153 q 374 129 332 129 q 505 196 446 129 q 565 422 565 262 l 562 422 q 477 356 532 376 q 345 336 423 336 q 131 430 203 336 q 58 661 58 523 m 262 659 q 296 529 262 570 q 391 488 330 488 q 495 543 458 488 q 532 664 532 598 q 498 791 532 747 q 399 836 464 836 q 296 798 330 836 q 262 659 262 761 z "},"\u0000":{"ha":854,"x_min":95,"x_max":760,"o":"m 136 0 q 95 41 95 0 l 95 932 q 130 972 95 972 l 719 972 q 760 932 760 972 l 760 41 q 719 0 760 0 l 136 0 m 217 122 l 637 122 l 637 850 l 217 850 l 217 122 z "}," ":{"ha":475,"x_min":0,"x_max":0,"o":""},"!":{"ha":453,"x_min":123,"x_max":330,"o":"m 125 922 q 172 972 123 972 l 281 972 q 328 922 330 972 l 310 329 q 266 285 309 285 l 187 285 q 143 329 144 285 l 125 922 m 175 0 q 127 51 127 0 l 127 142 q 175 193 127 193 l 278 193 q 326 142 326 193 l 326 51 q 278 0 326 0 l 175 0 z "},"\"":{"ha":662,"x_min":87,"x_max":574,"o":"m 90 952 q 124 996 87 996 l 242 996 q 277 952 279 996 l 260 600 q 227 559 258 559 l 140 559 q 106 600 108 559 l 90 952 m 385 952 q 420 996 383 996 l 538 996 q 572 952 574 996 l 556 600 q 522 559 554 559 l 435 559 q 401 600 404 559 l 385 952 z "},"#":{"ha":960,"x_min":47,"x_max":913,"o":"m 87 233 q 52 267 47 233 l 62 321 q 109 355 68 355 l 231 355 l 275 609 l 153 609 q 119 643 113 609 l 128 697 q 175 731 134 731 l 297 731 l 331 924 q 372 964 338 964 l 431 964 q 457 924 465 964 l 423 731 l 625 731 l 659 924 q 701 964 667 964 l 759 964 q 785 924 793 964 l 751 731 l 873 731 q 908 697 913 731 l 899 643 q 852 609 892 609 l 730 609 l 686 355 l 807 355 q 842 321 848 355 l 832 267 q 786 233 826 233 l 664 233 l 630 41 q 589 0 623 0 l 530 0 q 504 41 496 0 l 538 233 l 336 233 l 302 41 q 260 0 294 0 l 202 0 q 176 41 168 0 l 210 233 l 87 233 m 357 355 l 559 355 l 604 609 l 401 609 l 357 355 z "},"$":{"ha":814,"x_min":43,"x_max":745,"o":"m 92 57 q 68 136 43 101 l 115 202 q 185 195 138 235 q 272 149 222 165 q 359 128 323 133 l 359 415 q 245 469 306 435 q 177 524 214 486 q 117 611 140 562 q 95 734 95 661 q 149 892 95 830 q 251 967 203 954 q 359 986 298 981 l 359 1055 q 393 1096 359 1096 l 448 1096 q 481 1055 481 1096 l 481 986 q 583 959 530 980 q 669 913 636 938 q 688 852 709 884 l 642 782 q 583 777 617 745 q 530 812 557 800 q 481 829 503 823 l 481 565 q 597 515 538 545 q 671 460 640 492 q 724 381 703 429 q 745 253 745 334 q 706 102 745 163 q 612 14 666 42 q 481 -22 559 -14 l 481 -102 q 448 -142 481 -142 l 393 -142 q 359 -102 359 -142 l 359 -22 q 213 -1 290 -18 q 92 57 136 16 m 269 735 q 289 661 269 686 q 331 626 309 636 q 359 614 342 621 l 359 833 q 295 801 322 827 q 269 735 269 774 m 481 130 q 538 161 507 138 q 569 248 569 184 q 555 318 569 292 q 505 361 541 343 q 481 372 494 366 l 481 130 z "},"%":{"ha":1222,"x_min":64,"x_max":1158,"o":"m 64 761 q 118 954 64 883 q 279 1024 171 1024 q 441 954 388 1024 q 494 761 494 883 q 441 568 494 639 q 279 498 388 498 q 118 568 171 498 q 64 761 64 639 m 201 761 q 222 624 201 659 q 279 589 242 589 q 337 624 317 589 q 357 761 357 659 q 337 898 357 863 q 279 932 317 932 q 222 898 242 932 q 201 761 201 863 m 218 -20 q 213 33 190 0 l 905 1022 q 957 1036 929 1056 l 1004 1003 q 1009 950 1032 983 l 317 -39 q 265 -53 293 -73 l 218 -20 m 728 222 q 781 415 728 345 q 943 486 834 486 q 1104 415 1051 486 q 1158 222 1158 345 q 1104 30 1158 100 q 943 -41 1051 -41 q 781 30 834 -41 q 728 222 728 100 m 865 222 q 885 86 865 121 q 943 51 905 51 q 1000 86 980 51 q 1021 222 1021 121 q 1000 359 1021 324 q 943 394 980 394 q 885 359 905 394 q 865 222 865 324 z "},"&":{"ha":977,"x_min":76,"x_max":956,"o":"m 76 214 q 127 391 76 315 q 300 556 178 468 q 218 658 252 610 q 183 789 183 706 q 247 933 183 871 q 458 996 311 996 q 628 949 549 996 q 706 790 706 903 q 671 647 706 706 q 553 525 635 587 l 715 312 q 771 377 746 340 q 805 434 796 414 q 864 454 824 478 l 936 411 q 940 360 956 400 q 892 271 921 313 q 812 185 863 229 l 918 45 q 897 0 951 0 l 771 0 q 692 40 721 0 l 667 73 q 527 -2 600 19 q 359 -23 454 -23 q 156 34 236 -23 q 76 214 76 91 m 279 222 q 312 151 279 177 q 387 125 344 125 q 485 140 444 125 q 574 195 526 155 l 400 423 q 307 330 335 370 q 279 222 279 289 m 366 782 q 392 705 366 734 q 448 645 417 675 q 507 704 490 684 q 523 770 523 725 q 502 822 523 804 q 444 840 480 840 q 386 818 405 840 q 366 782 366 795 z "},"'":{"ha":380,"x_min":94,"x_max":286,"o":"m 96 952 q 131 996 94 996 l 249 996 q 283 952 286 996 l 267 600 q 233 559 265 559 l 146 559 q 113 600 115 559 l 96 952 z "},"(":{"ha":502,"x_min":78,"x_max":475,"o":"m 78 369 q 165 782 78 620 q 338 1027 252 944 q 395 1043 374 1061 l 452 998 q 452 949 475 979 q 340 751 399 879 q 281 369 281 623 q 340 -13 281 115 q 452 -211 399 -141 q 452 -260 475 -241 l 395 -305 q 338 -289 374 -323 q 165 -44 252 -206 q 78 369 78 118 z "},")":{"ha":502,"x_min":26,"x_max":424,"o":"m 50 -260 q 50 -211 26 -241 q 162 -13 103 -141 q 220 369 220 115 q 162 751 220 623 q 50 949 103 879 q 50 998 26 979 l 106 1043 q 163 1027 128 1061 q 337 782 250 944 q 424 369 424 620 q 337 -44 424 118 q 163 -289 250 -206 q 106 -305 128 -323 l 50 -260 z "},"*":{"ha":651,"x_min":43,"x_max":607,"o":"m 236 718 l 103 774 q 73 850 45 800 l 85 871 q 165 882 114 920 l 281 795 l 264 939 q 313 1002 256 1002 l 338 1002 q 387 939 395 1002 l 370 795 l 486 882 q 566 870 538 920 l 578 849 q 548 774 607 800 l 415 718 l 549 660 q 578 586 607 635 l 566 565 q 487 553 538 515 l 370 640 l 387 496 q 337 433 395 433 l 313 433 q 264 496 256 433 l 281 640 l 165 553 q 85 564 113 515 l 73 585 q 103 661 43 635 l 236 718 z "},"+":{"ha":868,"x_min":51,"x_max":817,"o":"m 92 429 q 51 463 51 429 l 51 521 q 92 555 51 555 l 371 555 l 371 834 q 405 875 371 875 l 463 875 q 497 834 497 875 l 497 555 l 777 555 q 817 521 817 555 l 817 463 q 777 429 817 429 l 497 429 l 497 149 q 463 109 497 109 l 405 109 q 371 149 371 109 l 371 429 l 92 429 z "},",":{"ha":453,"x_min":126,"x_max":327,"o":"m 174 0 q 126 51 126 0 l 126 142 q 174 193 126 193 l 279 193 q 327 142 327 193 l 327 51 q 315 -96 327 -37 q 256 -192 304 -155 q 202 -197 222 -218 l 176 -170 q 184 -119 152 -144 q 213 -75 205 -102 q 220 0 220 -47 l 174 0 z "},"-":{"ha":475,"x_min":36,"x_max":439,"o":"m 77 302 q 36 336 36 302 l 36 414 q 77 448 36 448 l 398 448 q 439 414 439 448 l 439 336 q 398 302 439 302 l 77 302 z "},".":{"ha":453,"x_min":127,"x_max":326,"o":"m 175 0 q 127 51 127 0 l 127 142 q 175 193 127 193 l 278 193 q 326 142 326 193 l 326 51 q 278 0 326 0 l 175 0 z "},"/":{"ha":581,"x_min":-9,"x_max":589,"o":"m 23 -256 q 6 -206 -9 -244 l 456 967 q 503 993 471 1005 l 557 972 q 574 922 589 960 l 124 -252 q 78 -277 109 -290 l 23 -256 z "},":":{"ha":453,"x_min":127,"x_max":326,"o":"m 175 0 q 127 51 127 0 l 127 142 q 175 193 127 193 l 278 193 q 326 142 326 193 l 326 51 q 278 0 326 0 l 175 0 m 175 519 q 127 570 127 519 l 127 661 q 175 712 127 712 l 278 712 q 326 661 326 712 l 326 570 q 278 519 326 519 l 175 519 z "},";":{"ha":453,"x_min":126,"x_max":327,"o":"m 175 519 q 127 570 127 519 l 127 661 q 175 712 127 712 l 278 712 q 326 661 326 712 l 326 570 q 278 519 326 519 l 175 519 m 174 0 q 126 51 126 0 l 126 142 q 174 193 126 193 l 279 193 q 327 142 327 193 l 327 51 q 315 -96 327 -37 q 256 -192 304 -155 q 202 -197 222 -218 l 176 -170 q 184 -119 152 -144 q 213 -75 205 -102 q 220 0 220 -47 l 174 0 z "},"<":{"ha":868,"x_min":60,"x_max":818,"o":"m 87 430 q 60 467 60 444 l 60 530 q 87 567 60 553 l 725 907 q 777 896 761 926 l 802 848 q 783 799 818 818 l 217 499 l 217 498 l 783 198 q 802 149 818 179 l 777 101 q 725 90 761 71 l 87 430 z "},"=":{"ha":868,"x_min":51,"x_max":817,"o":"m 92 313 q 51 347 51 313 l 51 406 q 92 439 51 439 l 777 439 q 817 406 817 439 l 817 347 q 777 313 817 313 l 92 313 m 92 544 q 51 578 51 544 l 51 636 q 92 670 51 670 l 777 670 q 817 636 817 670 l 817 578 q 777 544 817 544 l 92 544 z "},">":{"ha":868,"x_min":50,"x_max":808,"o":"m 66 149 q 85 198 50 179 l 651 498 l 651 499 l 85 799 q 66 848 50 818 l 91 896 q 143 907 107 926 l 781 567 q 808 530 808 553 l 808 467 q 781 430 808 444 l 143 90 q 91 101 107 71 l 66 149 z "},"?":{"ha":750,"x_min":42,"x_max":682,"o":"m 77 785 q 68 854 42 808 q 174 949 96 903 q 369 996 251 996 q 606 923 530 996 q 682 724 682 850 q 570 518 682 629 q 458 335 458 407 l 458 324 q 414 280 458 280 l 312 280 q 268 324 268 280 l 268 345 q 373 566 268 456 q 479 728 479 675 q 453 813 479 783 q 362 844 428 844 q 268 817 304 844 q 209 753 232 791 q 149 740 186 715 l 77 785 m 311 0 q 264 51 264 0 l 264 142 q 311 193 264 193 l 414 193 q 462 142 462 193 l 462 51 q 414 0 462 0 l 311 0 z "},"@":{"ha":1407,"x_min":76,"x_max":1331,"o":"m 76 382 q 255 836 76 654 q 721 1017 433 1017 q 1157 873 984 1017 q 1331 475 1331 730 q 1233 172 1331 275 q 976 68 1136 68 q 865 91 907 68 q 806 184 823 113 l 805 184 q 718 100 764 132 q 591 68 671 68 q 447 127 512 68 q 382 330 382 187 q 485 596 382 484 q 729 707 588 707 q 859 608 824 707 l 861 608 l 871 650 q 911 682 878 682 l 1005 682 q 1031 647 1040 682 l 950 286 q 944 213 939 235 q 983 190 950 190 q 1142 256 1082 190 q 1203 448 1203 323 q 1076 777 1203 659 q 721 894 949 894 q 350 749 496 894 q 203 387 203 605 q 348 23 203 165 q 720 -119 493 -119 q 898 -104 821 -119 q 1073 -34 975 -88 q 1113 -32 1103 -17 l 1155 -95 q 1144 -140 1173 -123 q 925 -221 1044 -199 q 712 -243 806 -243 q 257 -64 439 -243 q 76 382 76 114 m 547 294 q 568 219 547 248 q 627 190 590 190 q 745 255 690 190 q 811 395 801 321 q 817 477 817 439 q 793 553 817 521 q 732 585 768 585 q 608 513 669 585 q 547 294 547 441 z "},"A":{"ha":945,"x_min":12,"x_max":933,"o":"m 61 0 q 29 45 12 0 l 361 918 q 425 972 382 972 l 520 972 q 584 918 563 972 l 916 45 q 884 0 933 0 l 777 0 q 714 47 732 0 l 645 229 l 300 229 l 231 47 q 169 0 214 0 l 61 0 m 363 397 l 582 397 l 498 613 q 480 668 484 651 q 474 720 477 686 l 471 720 q 465 668 468 686 q 447 613 462 651 l 363 397 z "},"B":{"ha":935,"x_min":109,"x_max":865,"o":"m 163 0 q 109 51 109 0 l 109 922 q 163 972 109 972 l 393 972 q 745 908 654 972 q 836 711 836 844 q 768 568 836 618 q 636 509 700 517 l 636 507 q 781 444 698 503 q 865 279 865 386 q 763 77 865 155 q 427 0 661 0 l 163 0 m 307 165 l 406 165 q 601 191 549 165 q 653 292 653 216 q 593 392 653 364 q 406 419 533 419 l 307 419 l 307 165 m 307 579 l 395 579 q 559 610 483 579 q 635 705 635 640 q 593 781 635 755 q 395 807 551 807 l 307 807 l 307 579 z "},"C":{"ha":962,"x_min":58,"x_max":913,"o":"m 58 486 q 177 858 58 720 q 519 996 296 996 q 738 956 648 996 q 864 840 827 916 q 856 772 888 789 l 774 728 q 704 754 732 705 q 638 810 686 785 q 526 836 591 836 q 327 746 384 836 q 270 486 270 656 q 327 227 270 317 q 526 137 384 137 q 655 172 603 137 q 728 237 708 206 q 799 263 762 288 l 880 209 q 887 141 913 186 q 752 25 848 73 q 519 -23 656 -23 q 179 115 299 -23 q 58 486 58 252 z "},"D":{"ha":983,"x_min":109,"x_max":925,"o":"m 156 0 q 109 51 109 0 l 109 922 q 156 972 109 972 l 393 972 q 815 846 705 972 q 925 488 925 720 q 815 127 925 255 q 393 0 705 0 l 156 0 m 307 168 l 380 168 q 652 247 590 168 q 713 488 713 325 q 652 728 713 650 q 380 806 590 806 l 307 806 l 307 168 z "},"E":{"ha":868,"x_min":109,"x_max":810,"o":"m 156 0 q 109 51 109 0 l 109 922 q 156 972 109 972 l 738 972 q 789 928 789 972 l 789 848 q 738 804 789 804 l 307 804 l 307 589 l 702 589 q 753 545 753 589 l 753 465 q 702 420 753 420 l 307 420 l 307 168 l 760 168 q 810 124 810 168 l 810 44 q 760 0 810 0 l 156 0 z "},"F":{"ha":798,"x_min":109,"x_max":743,"o":"m 156 0 q 109 51 109 0 l 109 922 q 156 972 109 972 l 692 972 q 743 928 743 972 l 743 848 q 692 804 743 804 l 307 804 l 307 568 l 637 568 q 688 524 688 568 l 688 444 q 637 400 688 400 l 307 400 l 307 51 q 259 0 307 0 l 156 0 z "},"G":{"ha":1021,"x_min":58,"x_max":945,"o":"m 58 486 q 180 858 58 720 q 526 996 302 996 q 738 961 661 996 q 873 854 815 926 q 871 785 909 810 l 794 735 q 722 755 760 713 q 641 812 690 789 q 533 836 592 836 q 330 746 391 836 q 270 486 270 656 q 330 227 270 317 q 533 137 391 137 q 652 151 602 137 q 747 201 703 165 l 747 323 l 600 323 q 549 367 549 323 l 549 447 q 600 491 549 491 l 895 491 q 945 447 945 491 l 945 102 q 754 5 850 33 q 526 -23 657 -23 q 182 115 306 -23 q 58 486 58 252 z "},"H":{"ha":978,"x_min":109,"x_max":869,"o":"m 156 0 q 109 51 109 0 l 109 922 q 156 972 109 972 l 259 972 q 307 922 307 972 l 307 590 l 671 590 l 671 922 q 719 972 671 972 l 822 972 q 869 922 869 972 l 869 51 q 822 0 869 0 l 719 0 q 671 51 671 0 l 671 422 l 307 422 l 307 51 q 259 0 307 0 l 156 0 z "},"I":{"ha":415,"x_min":109,"x_max":307,"o":"m 156 0 q 109 51 109 0 l 109 922 q 156 972 109 972 l 259 972 q 307 922 307 972 l 307 51 q 259 0 307 0 l 156 0 z "},"J":{"ha":642,"x_min":16,"x_max":534,"o":"m 52 13 q 25 64 16 34 l 54 157 q 117 165 66 197 q 216 137 161 137 q 313 189 290 137 q 336 360 336 240 l 336 922 q 383 972 336 972 l 486 972 q 534 922 534 972 l 534 374 q 450 51 534 124 q 218 -23 366 -23 q 52 13 114 -23 z "},"K":{"ha":923,"x_min":109,"x_max":921,"o":"m 156 0 q 109 51 109 0 l 109 922 q 156 972 109 972 l 259 972 q 307 922 307 972 l 307 652 q 303 570 307 611 l 308 570 l 637 932 q 700 972 674 972 l 836 972 q 862 914 916 972 l 553 576 l 884 58 q 858 0 921 0 l 731 0 q 670 40 696 0 l 420 431 l 307 303 l 307 51 q 259 0 307 0 l 156 0 z "},"L":{"ha":788,"x_min":109,"x_max":753,"o":"m 156 0 q 109 51 109 0 l 109 922 q 156 972 109 972 l 266 972 q 307 922 307 972 l 307 168 l 702 168 q 753 124 753 168 l 753 44 q 702 0 753 0 l 156 0 z "},"M":{"ha":1240,"x_min":109,"x_max":1131,"o":"m 156 0 q 109 51 109 0 l 109 922 q 156 972 109 972 l 353 972 q 409 918 392 972 l 593 323 q 610 260 605 285 q 618 201 614 235 l 622 201 q 630 260 625 235 q 647 323 635 285 l 831 918 q 887 972 848 972 l 1084 972 q 1131 922 1131 972 l 1131 51 q 1084 0 1131 0 l 981 0 q 933 51 933 0 l 933 611 q 937 692 933 652 l 932 692 l 736 55 q 677 0 719 0 l 562 0 q 504 55 521 0 l 308 692 l 303 692 q 307 611 307 652 l 307 51 q 259 0 307 0 l 156 0 z "},"N":{"ha":998,"x_min":109,"x_max":890,"o":"m 156 0 q 109 51 109 0 l 109 922 q 156 972 109 972 l 256 972 q 345 925 315 972 l 690 370 l 695 370 q 692 451 692 410 l 692 922 q 739 972 692 972 l 842 972 q 890 922 890 972 l 890 51 q 842 0 890 0 l 749 0 q 661 47 690 0 l 308 613 l 303 613 q 307 532 307 572 l 307 51 q 259 0 307 0 l 156 0 z "},"O":{"ha":1047,"x_min":58,"x_max":989,"o":"m 58 486 q 179 858 58 720 q 524 996 300 996 q 868 858 747 996 q 989 486 989 720 q 868 115 989 252 q 524 -23 747 -23 q 179 115 300 -23 q 58 486 58 252 m 270 486 q 331 227 270 317 q 524 137 391 137 q 716 227 656 137 q 777 486 777 317 q 716 746 777 656 q 524 836 656 836 q 331 746 391 836 q 270 486 270 656 z "},"P":{"ha":901,"x_min":109,"x_max":843,"o":"m 156 0 q 109 51 109 0 l 109 922 q 156 972 109 972 l 410 972 q 748 893 654 972 q 843 668 843 814 q 748 443 843 522 q 410 363 654 363 l 307 363 l 307 51 q 259 0 307 0 l 156 0 m 307 529 l 409 529 q 593 561 545 529 q 642 668 642 593 q 593 775 642 743 q 409 807 545 807 l 307 807 l 307 529 z "},"Q":{"ha":1047,"x_min":58,"x_max":989,"o":"m 58 486 q 179 858 58 720 q 524 996 300 996 q 868 858 747 996 q 989 486 989 720 q 868 115 989 252 q 623 -16 776 9 q 655 -107 629 -77 q 757 -137 682 -137 q 829 -127 791 -137 q 868 -142 863 -119 l 887 -221 q 863 -255 893 -248 q 735 -276 783 -276 q 493 -199 553 -276 q 425 -16 432 -123 q 179 115 271 9 q 58 486 58 252 m 270 486 q 331 227 270 317 q 524 137 391 137 q 716 227 656 137 q 777 486 777 317 q 716 746 777 656 q 524 836 656 836 q 331 746 391 836 q 270 486 270 656 z "},"R":{"ha":968,"x_min":109,"x_max":935,"o":"m 156 0 q 109 51 109 0 l 109 922 q 156 972 109 972 l 470 972 q 776 908 680 972 q 872 697 872 843 q 794 524 872 589 q 596 439 716 460 l 596 437 q 694 370 661 413 q 749 294 728 326 l 898 58 q 872 0 935 0 l 754 0 q 693 40 717 0 l 556 269 q 474 349 534 305 q 357 393 415 393 l 307 393 l 307 51 q 259 0 307 0 l 156 0 m 307 561 l 428 561 q 621 592 564 561 q 678 690 678 623 q 623 785 678 763 q 460 807 568 807 l 307 807 l 307 561 z "},"S":{"ha":887,"x_min":56,"x_max":818,"o":"m 98 73 q 78 137 56 104 l 130 216 q 205 220 156 254 q 305 165 243 193 q 434 137 366 137 q 526 148 481 137 q 593 190 570 159 q 616 264 616 221 q 606 317 616 294 q 572 355 595 340 q 525 380 549 370 q 417 415 482 398 q 290 457 353 433 q 186 517 233 479 q 114 602 140 555 q 88 729 88 650 q 149 890 88 823 q 290 977 210 958 q 450 996 369 996 q 615 971 530 996 q 743 910 700 947 q 764 845 786 874 l 709 771 q 635 765 682 733 q 553 810 605 785 q 445 836 501 836 q 371 829 405 836 q 312 796 338 822 q 286 732 286 770 q 305 673 286 696 q 347 639 324 650 q 394 621 370 628 q 525 579 467 597 q 631 539 583 561 q 735 478 699 509 q 794 395 771 448 q 818 269 818 342 q 749 89 818 160 q 595 -2 680 18 q 431 -23 511 -23 q 239 0 313 -23 q 98 73 165 22 z "},"T":{"ha":845,"x_min":23,"x_max":822,"o":"m 74 799 q 23 843 23 799 l 23 928 q 74 972 23 972 l 771 972 q 822 928 822 972 l 822 843 q 771 799 822 799 l 522 799 l 522 37 q 488 0 522 0 l 357 0 q 323 37 323 0 l 323 799 l 74 799 z "},"U":{"ha":964,"x_min":109,"x_max":856,"o":"m 109 405 l 109 935 q 156 972 109 972 l 259 972 q 307 935 307 972 l 307 412 q 360 183 307 229 q 482 137 414 137 q 604 183 550 137 q 658 412 658 229 l 658 935 q 705 972 658 972 l 808 972 q 856 935 856 972 l 856 405 q 755 72 856 168 q 482 -23 655 -23 q 209 72 309 -23 q 109 405 109 168 z "},"V":{"ha":929,"x_min":12,"x_max":917,"o":"m 29 928 q 61 972 12 972 l 169 972 q 231 926 214 972 l 439 359 q 457 301 454 316 q 463 253 460 287 l 466 253 q 472 301 469 287 q 490 359 475 316 l 698 926 q 760 972 715 972 l 868 972 q 900 928 917 972 l 576 55 q 512 0 555 0 l 417 0 q 353 55 374 0 l 29 928 z "},"W":{"ha":1371,"x_min":16,"x_max":1356,"o":"m 31 918 q 62 972 16 972 l 187 972 q 230 928 219 972 l 359 395 q 377 315 373 336 q 385 246 382 294 l 389 246 q 395 318 392 294 q 415 399 399 342 l 566 922 q 623 972 581 972 l 748 972 q 805 922 791 972 l 956 399 q 976 318 972 342 q 983 246 979 294 l 986 246 q 994 315 989 294 q 1013 395 998 336 l 1141 928 q 1184 972 1152 972 l 1310 972 q 1341 918 1356 972 l 1110 66 q 1046 0 1093 0 l 928 0 q 870 65 888 0 l 707 633 q 692 693 694 680 q 686 745 690 707 l 685 745 q 680 693 682 707 q 664 633 677 680 l 501 65 q 444 0 483 0 l 325 0 q 261 66 279 0 l 31 918 z "},"X":{"ha":962,"x_min":8,"x_max":954,"o":"m 73 0 q 47 58 8 0 l 348 502 l 72 914 q 98 972 33 972 l 235 972 q 296 932 271 972 l 481 640 l 666 932 q 727 972 691 972 l 864 972 q 890 914 929 972 l 613 502 l 914 58 q 888 0 954 0 l 749 0 q 688 40 714 0 l 481 364 l 273 40 q 212 0 248 0 l 73 0 z "},"Y":{"ha":928,"x_min":0,"x_max":928,"o":"m 35 914 q 66 972 0 972 l 185 972 q 248 926 220 972 l 392 674 q 428 611 398 664 q 463 507 458 557 l 465 507 q 500 611 470 557 q 536 674 530 664 l 680 926 q 743 972 707 972 l 861 972 q 893 914 928 972 l 563 356 l 563 37 q 515 0 563 0 l 412 0 q 365 37 365 0 l 365 356 l 35 914 z "},"Z":{"ha":849,"x_min":41,"x_max":808,"o":"m 92 0 q 41 44 41 0 l 41 100 q 76 194 41 146 l 517 803 l 517 808 q 435 804 476 804 l 119 804 q 68 848 68 804 l 68 928 q 119 972 68 972 l 738 972 q 789 928 789 972 l 789 883 q 765 814 789 847 l 297 170 l 297 165 q 378 168 338 168 l 757 168 q 808 124 808 168 l 808 44 q 757 0 808 0 l 92 0 z "},"[":{"ha":471,"x_min":109,"x_max":426,"o":"m 149 -277 q 109 -236 109 -277 l 109 974 q 149 1015 109 1015 l 385 1015 q 426 981 426 1015 l 426 913 q 385 879 426 879 l 298 879 l 298 -141 l 385 -141 q 426 -175 426 -141 l 426 -243 q 385 -277 426 -277 l 149 -277 z "},"\\":{"ha":581,"x_min":-9,"x_max":589,"o":"m 6 922 q 23 972 -9 960 l 78 993 q 124 967 109 1005 l 574 -206 q 557 -256 589 -244 l 503 -277 q 456 -252 471 -290 l 6 922 z "},"]":{"ha":471,"x_min":45,"x_max":362,"o":"m 85 -277 q 45 -243 45 -277 l 45 -175 q 85 -141 45 -141 l 172 -141 l 172 879 l 85 879 q 45 913 45 879 l 45 981 q 85 1015 45 1015 l 321 1015 q 362 974 362 1015 l 362 -236 q 321 -277 362 -277 l 85 -277 z "},"^":{"ha":624,"x_min":31,"x_max":594,"o":"m 58 630 q 54 683 31 650 l 251 953 q 300 977 269 977 l 324 977 q 373 953 355 977 l 570 683 q 566 630 594 650 l 524 600 q 473 613 496 581 l 313 836 l 311 836 l 151 613 q 100 600 127 581 l 58 630 z "},"_":{"ha":814,"x_min":-17,"x_max":831,"o":"m 24 -288 q -17 -254 -17 -288 l -17 -186 q 24 -153 -17 -153 l 790 -153 q 831 -186 831 -153 l 831 -254 q 790 -288 831 -288 l 24 -288 z "},"`":{"ha":416,"x_min":68,"x_max":391,"o":"m 104 933 q 119 973 68 973 l 222 973 q 294 941 275 973 l 367 820 q 353 780 391 780 l 284 780 q 216 805 237 780 l 104 933 z "},"a":{"ha":762,"x_min":54,"x_max":669,"o":"m 54 190 q 184 387 54 326 q 479 452 313 448 l 479 479 q 448 567 479 541 q 361 593 417 593 q 292 582 322 593 q 240 556 262 570 q 200 526 218 541 q 149 524 169 499 l 92 593 q 102 646 71 618 q 158 682 126 667 q 241 712 189 698 q 377 726 294 726 q 594 661 518 726 q 669 469 669 595 l 669 41 q 629 0 669 0 l 517 0 q 481 41 481 0 l 481 61 l 479 61 q 384 4 439 22 q 281 -14 328 -14 q 112 41 170 -14 q 54 190 54 96 m 255 194 q 264 153 255 170 q 294 127 274 136 q 340 119 315 119 q 407 129 374 119 q 479 174 439 138 l 479 321 q 327 288 366 308 q 272 245 288 267 q 255 194 255 224 z "},"b":{"ha":808,"x_min":92,"x_max":754,"o":"m 133 0 q 92 41 92 0 l 92 960 q 133 1001 92 1001 l 241 1001 q 282 960 282 1001 l 282 686 q 279 632 282 659 l 282 632 q 361 708 317 690 q 465 726 404 726 q 689 615 625 726 q 754 356 754 505 q 689 97 754 207 q 465 -14 625 -14 q 361 4 404 -14 q 282 80 317 22 l 279 80 l 277 41 q 240 0 274 0 l 133 0 m 282 326 q 318 177 282 234 q 406 119 355 119 q 525 183 497 119 q 553 356 553 248 q 525 529 553 465 q 406 593 497 593 q 318 535 355 593 q 282 387 282 478 l 282 326 z "},"c":{"ha":736,"x_min":54,"x_max":706,"o":"m 54 356 q 141 627 54 529 q 408 726 228 726 q 571 698 513 726 q 665 616 629 670 q 658 566 686 585 l 586 519 q 532 534 555 498 q 488 572 521 552 q 408 593 456 593 q 293 539 331 593 q 255 356 255 485 q 293 173 255 227 q 408 119 331 119 q 496 142 463 119 q 560 202 530 165 q 614 211 586 233 l 677 161 q 681 102 706 139 q 591 24 654 62 q 408 -14 528 -14 q 141 85 228 -14 q 54 356 54 183 z "},"d":{"ha":808,"x_min":54,"x_max":716,"o":"m 54 356 q 119 615 54 505 q 343 726 184 726 q 448 708 404 726 q 526 632 491 690 l 529 632 q 526 686 526 659 l 526 960 q 567 1001 526 1001 l 675 1001 q 716 960 716 1001 l 716 41 q 675 0 716 0 l 568 0 q 532 41 534 0 l 529 80 l 526 80 q 448 4 491 22 q 343 -14 404 -14 q 119 97 184 -14 q 54 356 54 207 m 255 356 q 283 183 255 248 q 403 119 311 119 q 490 177 454 119 q 526 326 526 234 l 526 387 q 490 535 526 478 q 403 593 454 593 q 283 529 311 593 q 255 356 255 465 z "},"e":{"ha":796,"x_min":54,"x_max":741,"o":"m 54 356 q 140 627 54 528 q 382 726 226 726 q 652 632 564 726 q 741 331 741 538 q 703 290 741 290 l 255 290 q 311 149 266 178 q 414 119 355 119 q 500 134 471 119 q 551 175 530 149 q 608 184 574 205 l 675 143 q 687 85 715 119 q 590 11 646 35 q 414 -14 534 -14 q 137 85 220 -14 q 54 356 54 184 m 256 426 l 551 426 q 514 546 551 499 q 397 592 477 592 q 296 548 334 592 q 256 426 259 503 z "},"f":{"ha":463,"x_min":28,"x_max":511,"o":"m 68 576 q 28 610 28 576 l 28 678 q 68 712 28 712 l 106 712 l 106 807 q 178 973 106 932 q 347 1015 249 1015 q 428 1009 394 1015 q 487 996 461 1004 q 505 962 511 987 l 484 885 q 453 871 478 863 q 411 879 438 877 q 369 882 385 882 q 308 847 319 882 q 296 739 296 812 l 296 712 l 386 712 q 426 678 426 712 l 426 610 q 386 576 426 576 l 296 576 l 296 41 q 256 0 296 0 l 147 0 q 106 41 106 0 l 106 576 l 68 576 z "},"g":{"ha":808,"x_min":54,"x_max":716,"o":"m 54 356 q 119 615 54 505 q 343 726 184 726 q 448 708 404 726 q 526 632 491 690 l 529 632 l 532 671 q 568 712 534 712 l 675 712 q 716 671 716 712 l 716 7 q 627 -222 716 -159 q 368 -285 537 -285 q 235 -277 296 -285 q 111 -240 174 -270 q 100 -181 79 -224 l 125 -132 q 174 -119 140 -102 q 243 -142 202 -132 q 347 -152 284 -152 q 480 -120 434 -152 q 526 21 526 -87 l 526 33 q 529 87 526 60 l 526 87 q 448 11 491 28 q 343 -7 404 -7 q 119 103 184 -7 q 54 356 54 214 m 255 356 q 283 190 255 254 q 403 126 311 126 q 490 183 454 126 q 526 332 526 241 l 526 387 q 490 535 526 478 q 403 593 454 593 q 283 529 311 593 q 255 356 255 465 z "},"h":{"ha":814,"x_min":92,"x_max":723,"o":"m 133 0 q 92 41 92 0 l 92 960 q 133 1001 92 1001 l 241 1001 q 282 960 282 1001 l 282 686 q 279 632 282 659 l 283 632 q 363 706 315 686 q 479 726 411 726 q 654 659 585 726 q 723 416 723 593 l 723 41 q 682 0 723 0 l 574 0 q 533 41 533 0 l 533 368 q 513 554 533 515 q 425 593 492 593 q 318 537 354 593 q 282 308 282 482 l 282 41 q 241 0 282 0 l 133 0 z "},"i":{"ha":374,"x_min":92,"x_max":282,"o":"m 133 0 q 92 41 92 0 l 92 671 q 133 712 92 712 l 241 712 q 282 671 282 712 l 282 41 q 241 0 282 0 l 133 0 m 133 817 q 92 857 92 817 l 92 944 q 133 985 92 985 l 241 985 q 282 944 282 985 l 282 857 q 241 817 282 817 l 133 817 z "},"j":{"ha":381,"x_min":-81,"x_max":289,"o":"m -55 -277 q -75 -242 -81 -273 l -60 -168 q -25 -147 -54 -136 q 24 -152 -13 -152 q 83 -107 66 -152 q 99 18 99 -62 l 99 671 q 140 712 99 712 l 248 712 q 289 671 289 712 l 289 -3 q 223 -228 289 -171 q 47 -285 157 -285 q -55 -277 -14 -285 m 140 817 q 99 857 99 817 l 99 944 q 140 985 99 985 l 248 985 q 289 944 289 985 l 289 857 q 248 817 289 817 l 140 817 z "},"k":{"ha":756,"x_min":92,"x_max":747,"o":"m 133 0 q 92 41 92 0 l 92 960 q 133 1001 92 1001 l 241 1001 q 282 960 282 1001 l 282 462 q 279 408 282 435 l 282 408 l 497 684 q 550 712 519 712 l 661 712 q 682 662 724 712 l 477 414 l 715 50 q 694 0 747 0 l 578 0 q 522 35 544 0 l 368 283 l 282 179 l 282 41 q 241 0 282 0 l 133 0 z "},"l":{"ha":374,"x_min":92,"x_max":282,"o":"m 133 0 q 92 41 92 0 l 92 842 q 106 897 92 872 l 159 989 q 194 1015 174 1015 l 241 1015 q 282 974 282 1015 l 282 41 q 241 0 282 0 l 133 0 z "},"m":{"ha":1187,"x_min":92,"x_max":1096,"o":"m 133 0 q 92 41 92 0 l 92 671 q 133 712 92 712 l 240 712 q 281 671 281 712 l 281 632 l 283 632 q 350 701 303 675 q 437 726 397 726 q 564 688 519 726 q 626 603 609 650 l 629 603 q 735 703 688 680 q 858 726 783 726 q 1027 659 958 726 q 1096 416 1096 593 l 1096 41 q 1055 0 1096 0 l 947 0 q 906 41 906 0 l 906 368 q 886 554 906 515 q 815 593 866 593 q 728 537 768 593 q 689 308 689 481 l 689 41 q 648 0 689 0 l 540 0 q 499 41 499 0 l 499 368 q 479 554 499 515 q 408 593 459 593 q 321 537 361 593 q 282 308 282 482 l 282 41 q 241 0 282 0 l 133 0 z "},"n":{"ha":814,"x_min":92,"x_max":723,"o":"m 133 0 q 92 41 92 0 l 92 671 q 133 712 92 712 l 240 712 q 281 671 281 712 l 281 632 l 283 632 q 363 706 315 686 q 479 726 411 726 q 654 659 585 726 q 723 416 723 593 l 723 41 q 682 0 723 0 l 574 0 q 533 41 533 0 l 533 368 q 513 554 533 515 q 425 593 492 593 q 318 537 354 593 q 282 308 282 482 l 282 41 q 241 0 282 0 l 133 0 z "},"o":{"ha":818,"x_min":54,"x_max":764,"o":"m 54 356 q 143 627 54 529 q 409 726 233 726 q 674 627 585 726 q 764 356 764 529 q 674 85 764 183 q 409 -14 585 -14 q 143 85 233 -14 q 54 356 54 183 m 255 356 q 295 173 255 227 q 409 119 334 119 q 523 173 484 119 q 563 356 563 227 q 523 539 563 485 q 409 593 484 593 q 295 539 334 593 q 255 356 255 485 z "},"p":{"ha":808,"x_min":92,"x_max":754,"o":"m 133 -271 q 92 -231 92 -271 l 92 671 q 133 712 92 712 l 240 712 q 277 671 274 712 l 279 632 l 282 632 q 361 708 317 690 q 465 726 404 726 q 689 615 625 726 q 754 356 754 505 q 689 97 754 207 q 465 -14 625 -14 q 361 4 404 -14 q 282 80 317 22 l 279 80 q 282 26 282 53 l 282 -231 q 241 -271 282 -271 l 133 -271 m 282 326 q 318 177 282 234 q 406 119 355 119 q 525 183 497 119 q 553 356 553 248 q 525 529 553 465 q 406 593 497 593 q 318 535 355 593 q 282 387 282 478 l 282 326 z "},"q":{"ha":808,"x_min":54,"x_max":716,"o":"m 54 356 q 119 615 54 505 q 343 726 184 726 q 448 708 404 726 q 526 632 491 690 l 529 632 l 532 671 q 568 712 534 712 l 675 712 q 716 671 716 712 l 716 -231 q 675 -271 716 -271 l 567 -271 q 526 -231 526 -271 l 526 26 q 529 80 526 53 l 526 80 q 448 4 491 22 q 343 -14 404 -14 q 119 97 184 -14 q 54 356 54 207 m 255 356 q 283 183 255 248 q 403 119 311 119 q 490 177 454 119 q 526 326 526 234 l 526 387 q 490 535 526 478 q 403 593 454 593 q 283 529 311 593 q 255 356 255 465 z "},"r":{"ha":533,"x_min":92,"x_max":528,"o":"m 133 0 q 92 41 92 0 l 92 671 q 133 712 92 712 l 240 712 q 281 671 281 712 l 281 616 l 283 616 q 342 692 301 659 q 440 726 384 726 q 504 716 479 726 q 522 684 528 707 l 503 603 q 467 587 497 576 q 433 593 449 593 q 325 515 368 593 q 282 288 282 437 l 282 41 q 241 0 282 0 l 133 0 z "},"s":{"ha":682,"x_min":30,"x_max":633,"o":"m 63 47 q 45 98 30 71 l 79 161 q 136 170 98 195 q 228 132 175 144 q 323 119 280 119 q 380 125 354 119 q 425 149 407 132 q 444 201 444 167 q 433 235 444 221 q 405 257 422 250 q 369 269 388 264 q 297 290 344 275 q 206 323 250 304 q 136 367 170 338 q 86 429 102 395 q 70 515 70 464 q 110 635 70 583 q 212 706 149 686 q 370 726 275 726 q 494 707 433 726 q 580 673 554 689 q 600 618 621 647 l 559 557 q 498 553 540 530 q 435 582 466 571 q 366 593 404 593 q 317 587 340 593 q 276 567 293 582 q 260 528 260 552 q 275 487 260 502 q 310 466 290 473 q 349 453 330 459 q 425 430 387 441 q 504 403 464 418 q 571 364 538 389 q 618 300 604 339 q 633 212 633 262 q 594 90 633 146 q 490 10 555 34 q 340 -14 426 -14 q 178 0 245 -14 q 63 47 111 14 z "},"t":{"ha":541,"x_min":28,"x_max":512,"o":"m 68 576 q 28 610 28 576 l 28 678 q 68 712 28 712 l 115 712 l 115 736 q 129 791 115 766 l 181 883 q 216 909 196 909 l 264 909 q 304 868 304 909 l 304 712 l 414 712 q 454 678 454 712 l 454 610 q 414 576 454 576 l 304 576 l 304 240 q 314 141 304 171 q 366 111 324 111 q 413 118 387 111 q 454 132 439 125 q 486 116 478 142 l 506 39 q 488 5 512 16 q 427 -14 466 -5 q 349 -22 388 -22 q 183 18 252 -22 q 115 182 115 58 l 115 576 l 68 576 z "},"u":{"ha":810,"x_min":91,"x_max":718,"o":"m 91 296 l 91 671 q 132 712 91 712 l 240 712 q 281 671 281 712 l 281 345 q 301 158 281 197 q 387 119 321 119 q 492 175 456 119 q 528 404 528 230 l 528 671 q 568 712 528 712 l 677 712 q 718 671 718 712 l 718 41 q 677 0 718 0 l 570 0 q 529 41 529 0 l 529 80 l 526 80 q 447 6 495 26 q 333 -14 399 -14 q 160 53 229 -14 q 91 296 91 119 z "},"v":{"ha":684,"x_min":12,"x_max":672,"o":"m 28 659 q 51 712 12 712 l 172 712 q 213 677 204 712 l 318 280 q 333 214 327 247 q 340 161 338 182 l 344 161 q 351 214 345 182 q 366 280 357 247 l 471 677 q 511 712 479 712 l 633 712 q 655 659 672 712 l 458 45 q 409 0 444 0 l 275 0 q 225 45 239 0 l 28 659 z "},"w":{"ha":1088,"x_min":14,"x_max":1074,"o":"m 28 659 q 51 712 14 712 l 165 712 q 206 677 198 712 l 298 280 q 312 214 306 245 q 319 161 318 182 l 323 161 q 331 215 325 182 q 345 280 337 248 l 441 677 q 482 712 450 712 l 606 712 q 646 677 638 712 l 743 280 q 757 215 751 248 q 764 161 763 182 l 768 161 q 776 214 770 182 q 790 280 782 245 l 882 677 q 922 712 890 712 l 1037 712 q 1059 659 1074 712 l 883 45 q 833 0 870 0 l 711 0 q 661 45 672 0 l 563 448 q 550 503 554 482 q 545 550 547 524 l 543 550 q 537 503 541 524 q 525 448 534 482 l 427 45 q 377 0 416 0 l 254 0 q 205 45 218 0 l 28 659 z "},"x":{"ha":736,"x_min":4,"x_max":733,"o":"m 62 0 q 38 50 4 0 l 262 375 l 64 663 q 89 712 31 712 l 217 712 q 263 685 248 712 l 368 502 l 473 685 q 519 712 489 712 l 648 712 q 672 663 707 712 l 473 375 l 699 50 q 674 0 733 0 l 546 0 q 500 27 516 0 l 368 248 l 237 27 q 191 0 220 0 l 62 0 z "},"y":{"ha":671,"x_min":12,"x_max":671,"o":"m 30 659 q 52 712 12 712 l 174 712 q 214 677 205 712 l 317 298 q 330 230 324 272 q 336 177 336 189 l 340 177 q 352 234 348 213 q 372 317 355 256 l 469 677 q 510 712 479 712 l 631 712 q 654 659 671 712 l 425 -28 q 327 -217 385 -149 q 165 -285 269 -285 q 63 -275 108 -285 q 43 -240 37 -270 l 58 -165 q 93 -145 64 -136 q 132 -152 114 -152 q 216 -100 187 -152 q 254 -10 245 -47 l 256 0 l 30 659 z "},"z":{"ha":654,"x_min":35,"x_max":618,"o":"m 76 0 q 35 34 35 0 l 35 85 q 63 159 35 121 l 367 576 l 367 579 q 313 576 340 576 l 92 576 q 52 610 52 576 l 52 632 q 92 712 52 712 l 562 712 q 602 678 602 712 l 602 631 q 573 557 602 597 l 267 136 l 267 133 q 321 136 303 136 l 578 136 q 618 102 618 136 l 618 34 q 578 0 618 0 l 76 0 z "},"{":{"ha":562,"x_min":58,"x_max":524,"o":"m 91 301 q 58 341 58 301 l 58 397 q 91 437 58 437 q 167 472 127 437 q 207 631 207 507 l 207 825 q 259 976 207 938 q 484 1015 311 1015 q 524 981 524 1015 l 524 913 q 484 879 524 879 q 407 847 418 879 q 397 772 397 815 l 397 600 q 351 437 397 488 q 233 370 306 387 l 233 368 q 351 300 306 351 q 397 138 397 250 l 397 -35 q 407 -109 397 -77 q 484 -141 418 -141 q 524 -175 524 -141 l 524 -243 q 484 -277 524 -277 q 259 -238 311 -277 q 207 -87 207 -200 l 207 106 q 167 266 207 231 q 91 301 127 301 z "},"|":{"ha":427,"x_min":146,"x_max":281,"o":"m 180 -298 q 146 -258 146 -298 l 146 974 q 180 1015 146 1015 l 248 1015 q 281 974 281 1015 l 281 -258 q 248 -298 281 -298 l 180 -298 z "},"}":{"ha":562,"x_min":38,"x_max":505,"o":"m 79 -277 q 38 -243 38 -277 l 38 -175 q 79 -141 38 -141 q 155 -109 144 -141 q 165 -35 165 -77 l 165 138 q 211 300 165 250 q 329 368 256 351 l 329 370 q 211 437 256 387 q 165 600 165 488 l 165 772 q 155 847 165 815 q 79 879 144 879 q 38 913 38 879 l 38 981 q 79 1015 38 1015 q 303 976 251 1015 q 355 825 355 938 l 355 631 q 395 472 355 507 q 471 437 435 437 q 505 397 505 437 l 505 341 q 471 301 505 301 q 395 266 435 301 q 355 106 355 231 l 355 -87 q 303 -238 355 -200 q 79 -277 251 -277 z "},"~":{"ha":868,"x_min":47,"x_max":821,"o":"m 68 430 q 56 467 47 441 q 139 589 87 549 q 288 628 191 628 q 465 556 376 628 q 606 484 555 484 q 680 505 656 484 q 720 557 703 526 q 755 578 738 588 l 800 553 q 812 517 821 543 q 729 395 781 434 q 581 355 677 355 q 403 427 492 355 q 262 499 313 499 q 189 478 212 499 q 148 426 165 457 q 113 406 130 395 l 68 430 z "},"¡":{"ha":453,"x_min":123,"x_max":330,"o":"m 172 -260 q 125 -210 123 -260 l 143 383 q 187 427 144 427 l 266 427 q 310 383 309 427 l 328 -210 q 281 -260 330 -260 l 172 -260 m 175 519 q 127 570 127 519 l 127 661 q 175 712 127 712 l 278 712 q 326 661 326 712 l 326 570 q 278 519 326 519 l 175 519 z "},"¢":{"ha":814,"x_min":92,"x_max":744,"o":"m 92 356 q 171 618 92 529 q 384 722 250 708 l 384 841 q 418 882 384 882 l 472 882 q 506 841 506 882 l 506 723 q 618 693 569 717 q 703 616 667 670 q 696 566 724 585 l 624 519 q 570 534 593 498 q 538 565 559 552 q 506 583 517 578 l 506 128 q 545 149 522 134 q 598 202 568 165 q 652 211 624 233 l 715 161 q 719 102 744 139 q 637 30 692 62 q 506 -11 583 -3 l 506 -129 q 472 -170 506 -170 l 418 -170 q 384 -129 384 -170 l 384 -10 q 171 94 250 4 q 92 356 92 183 m 293 356 q 322 185 293 227 q 384 130 352 144 l 384 582 q 322 527 352 568 q 293 356 293 485 z "},"£":{"ha":814,"x_min":47,"x_max":762,"o":"m 98 0 q 47 44 47 0 l 47 84 q 75 144 47 120 q 134 204 105 169 q 163 332 163 240 l 163 395 l 94 395 q 51 439 51 395 l 51 519 q 95 564 51 564 l 163 564 l 163 660 q 250 909 163 830 q 482 987 338 987 q 608 967 551 987 q 712 897 666 947 q 726 840 745 862 l 679 783 q 616 783 650 748 q 555 823 589 811 q 481 836 521 836 q 384 797 415 836 q 353 685 353 759 l 353 564 l 513 564 q 557 519 557 564 l 557 439 q 514 395 557 395 l 353 395 l 353 336 q 341 234 353 274 q 304 170 330 194 l 304 165 q 372 168 345 168 l 711 168 q 762 124 762 168 l 762 44 q 711 0 762 0 l 98 0 z "},"¤":{"ha":814,"x_min":34,"x_max":780,"o":"m 58 187 q 62 240 34 210 l 147 332 q 105 494 105 404 q 147 655 105 583 l 62 747 q 58 800 34 777 l 101 840 q 154 833 126 863 l 232 749 q 407 805 307 805 q 582 749 507 805 l 660 833 q 713 840 688 863 l 755 800 q 752 747 780 777 l 667 655 q 709 494 709 583 q 667 332 709 404 l 752 240 q 755 187 780 210 l 713 147 q 660 154 688 124 l 582 238 q 407 182 507 182 q 232 238 307 182 l 154 154 q 101 147 126 124 l 58 187 m 237 494 q 284 367 237 420 q 407 314 332 314 q 529 367 482 314 q 576 494 576 420 q 529 620 576 567 q 407 673 482 673 q 284 620 332 673 q 237 494 237 567 z "},"¥":{"ha":814,"x_min":-26,"x_max":840,"o":"m 9 914 q 41 972 -26 972 l 146 972 q 208 926 184 972 l 335 674 q 381 591 361 624 q 406 507 401 557 l 408 507 q 433 590 413 557 q 479 674 453 623 l 606 926 q 668 972 629 972 l 773 972 q 805 914 840 972 l 568 521 l 673 521 q 713 480 713 521 l 713 420 q 673 380 713 380 l 502 380 l 502 265 l 673 265 q 713 224 713 265 l 713 165 q 673 124 713 124 l 502 124 l 502 41 q 461 0 502 0 l 353 0 q 312 41 312 0 l 312 124 l 141 124 q 100 165 100 124 l 100 224 q 141 265 100 265 l 312 265 l 312 380 l 141 380 q 100 420 100 380 l 100 480 q 141 521 100 521 l 245 521 l 9 914 z "},"¦":{"ha":427,"x_min":146,"x_max":281,"o":"m 180 -229 q 146 -189 146 -229 l 146 228 q 180 269 146 269 l 248 269 q 281 228 281 269 l 281 -189 q 248 -229 281 -229 l 180 -229 m 180 448 q 146 488 146 448 l 146 905 q 180 945 146 945 l 248 945 q 281 905 281 945 l 281 488 q 248 448 281 448 l 180 448 z "},"§":{"ha":838,"x_min":71,"x_max":768,"o":"m 71 408 q 123 549 71 491 q 239 654 176 606 q 191 783 191 720 q 259 939 191 883 q 437 996 327 996 q 553 974 507 996 q 636 915 599 952 q 644 866 665 886 l 588 810 q 547 817 571 793 q 504 850 526 837 q 447 863 482 863 q 403 848 422 863 q 384 797 384 833 q 576 593 384 723 q 768 332 768 464 q 715 190 768 248 q 599 85 662 132 q 647 -44 647 19 q 579 -200 647 -144 q 401 -256 511 -256 q 285 -235 331 -256 q 202 -176 239 -213 q 194 -127 174 -147 l 250 -71 q 292 -77 267 -54 q 334 -111 312 -98 q 391 -123 356 -123 q 435 -109 416 -123 q 454 -58 454 -94 q 262 146 454 16 q 71 408 71 275 m 235 438 q 359 290 235 378 q 517 172 484 202 l 571 220 q 604 301 604 249 q 479 449 604 361 q 321 567 355 538 l 267 519 q 235 438 235 490 z "},"¨":{"ha":416,"x_min":-16,"x_max":433,"o":"m 24 818 q -16 859 -16 818 l -16 937 q 24 978 -16 978 l 103 978 q 144 937 144 978 l 144 859 q 103 818 144 818 l 24 818 m 313 818 q 273 859 273 818 l 273 937 q 313 978 273 978 l 392 978 q 433 937 433 978 l 433 859 q 392 818 433 818 l 313 818 z "},"©":{"ha":1122,"x_min":52,"x_max":1070,"o":"m 52 486 q 92 684 52 590 q 201 846 133 778 q 363 955 269 914 q 561 996 457 996 q 759 955 665 996 q 921 846 852 914 q 1029 684 989 778 q 1070 486 1070 590 q 1029 289 1070 382 q 921 126 989 195 q 759 18 852 58 q 561 -23 665 -23 q 363 18 457 -23 q 201 126 269 58 q 92 289 133 195 q 52 486 52 382 m 130 486 q 164 319 130 398 q 256 182 199 239 q 393 89 314 124 q 561 53 473 53 q 728 89 649 53 q 865 182 808 124 q 957 319 923 239 q 991 486 991 398 q 957 654 991 574 q 865 791 923 733 q 728 884 808 848 q 561 920 649 920 q 393 884 473 920 q 256 791 314 848 q 164 654 199 733 q 130 486 130 574 m 290 486 q 359 702 290 622 q 558 782 429 782 q 685 760 631 782 q 760 693 739 737 q 755 654 774 665 l 704 625 q 663 640 679 610 q 626 672 653 658 q 562 686 600 686 q 448 635 479 686 q 417 486 417 585 q 448 337 417 388 q 562 286 479 286 q 636 306 607 286 q 677 344 665 326 q 718 359 696 374 l 770 323 q 773 284 789 311 q 694 218 750 245 q 558 191 637 191 q 360 271 431 191 q 290 486 290 351 z "},"ª":{"ha":526,"x_min":37,"x_max":455,"o":"m 37 659 q 116 791 37 746 q 319 846 195 836 l 319 852 q 293 895 319 882 q 237 908 267 908 q 182 902 209 908 q 136 881 156 895 q 101 880 111 863 l 68 936 q 75 970 56 957 q 148 1002 104 990 q 250 1015 191 1015 q 400 972 345 1015 q 455 840 455 930 l 455 569 q 427 543 455 543 l 345 543 q 320 569 320 543 l 320 581 l 319 581 q 254 544 286 555 q 191 534 221 534 q 79 566 121 534 q 37 659 37 598 m 180 672 q 198 645 180 650 q 231 640 216 640 q 272 645 255 640 q 319 670 289 651 l 319 742 q 212 717 243 731 q 180 672 180 703 z "},"«":{"ha":751,"x_min":61,"x_max":682,"o":"m 82 338 q 82 391 61 364 l 291 652 q 332 659 310 676 l 391 612 q 389 571 410 597 l 221 364 l 389 157 q 391 117 410 132 l 332 69 q 291 76 310 52 l 82 338 m 355 338 q 355 391 334 364 l 564 652 q 604 659 583 676 l 664 612 q 661 571 682 597 l 494 364 l 661 157 q 664 117 682 132 l 604 69 q 564 76 583 52 l 355 338 z "},"¬":{"ha":814,"x_min":51,"x_max":763,"o":"m 92 526 q 51 559 51 526 l 51 618 q 92 652 51 652 l 763 652 l 763 314 q 729 273 763 273 l 671 273 q 637 314 637 273 l 637 526 l 92 526 z "},"­":{"ha":475,"x_min":36,"x_max":439,"o":"m 77 302 q 36 336 36 302 l 36 414 q 77 448 36 448 l 398 448 q 439 414 439 448 l 439 336 q 398 302 439 302 l 77 302 z "},"®":{"ha":1122,"x_min":52,"x_max":1070,"o":"m 52 486 q 92 684 52 590 q 201 846 133 778 q 363 955 269 914 q 561 996 457 996 q 759 955 665 996 q 921 846 852 914 q 1029 684 989 778 q 1070 486 1070 590 q 1029 289 1070 382 q 921 126 989 195 q 759 18 852 58 q 561 -23 665 -23 q 363 18 457 -23 q 201 126 269 58 q 92 289 133 195 q 52 486 52 382 m 130 486 q 164 319 130 398 q 256 182 199 239 q 393 89 314 124 q 561 53 473 53 q 728 89 649 53 q 865 182 808 124 q 957 319 923 239 q 991 486 991 398 q 957 654 991 574 q 865 791 923 733 q 728 884 808 848 q 561 920 649 920 q 393 884 473 920 q 256 791 314 848 q 164 654 199 733 q 130 486 130 574 m 381 192 q 353 221 353 192 l 353 726 q 381 755 353 755 l 563 755 q 740 718 684 755 q 796 596 796 680 q 751 496 796 533 q 636 446 706 458 l 636 446 q 693 407 674 431 q 724 362 712 382 l 811 226 q 796 192 833 192 l 724 192 q 688 215 702 192 l 609 347 q 562 393 597 368 q 493 419 528 419 l 472 419 l 472 221 q 445 192 472 192 l 381 192 m 472 517 l 536 517 q 648 535 614 517 q 681 591 681 553 q 649 646 681 634 q 555 658 617 658 l 472 658 l 472 517 z "},"¯":{"ha":416,"x_min":-15,"x_max":431,"o":"m 26 831 q -15 865 -15 831 l -15 910 q 26 944 -15 944 l 391 944 q 431 910 431 944 l 431 865 q 391 831 431 831 l 26 831 z "},"°":{"ha":407,"x_min":52,"x_max":355,"o":"m 52 841 q 96 948 52 904 q 203 993 140 993 q 311 948 267 993 q 355 841 355 904 q 311 733 355 778 q 203 689 267 689 q 96 733 140 689 q 52 841 52 778 m 146 841 q 163 800 146 817 q 203 784 179 784 q 244 800 228 784 q 260 841 260 817 q 244 882 260 865 q 203 898 228 898 q 163 882 179 898 q 146 841 146 865 z "},"±":{"ha":868,"x_min":51,"x_max":817,"o":"m 92 -104 q 51 -70 51 -104 l 51 -12 q 92 22 51 22 l 777 22 q 817 -12 817 22 l 817 -70 q 777 -104 817 -104 l 92 -104 m 92 429 q 51 463 51 429 l 51 521 q 92 555 51 555 l 371 555 l 371 834 q 405 875 371 875 l 463 875 q 497 834 497 875 l 497 555 l 777 555 q 817 521 817 555 l 817 463 q 777 429 817 429 l 497 429 l 497 149 q 463 109 497 109 l 405 109 q 371 149 371 109 l 371 429 l 92 429 z "},"²":{"ha":427,"x_min":31,"x_max":391,"o":"m 58 483 q 31 506 31 483 l 31 530 q 48 566 31 549 q 153 677 48 566 q 232 762 191 718 q 273 845 273 807 q 256 893 273 876 q 210 910 240 910 q 147 888 168 910 q 117 840 126 865 q 88 822 109 812 l 49 840 q 39 873 33 848 q 95 959 53 923 q 220 996 138 996 q 346 951 307 996 q 385 854 385 907 q 333 743 385 792 q 231 642 280 693 l 172 578 l 172 576 q 207 578 193 578 l 365 578 q 391 555 391 578 l 391 506 q 365 483 391 483 l 58 483 z "},"³":{"ha":427,"x_min":20,"x_max":391,"o":"m 34 519 q 32 552 20 531 l 52 588 q 90 591 64 609 q 139 566 111 576 q 196 557 168 557 q 256 578 233 557 q 279 631 279 600 q 254 687 279 663 q 192 710 229 710 l 165 710 q 142 728 142 710 l 142 775 q 165 795 142 795 l 186 795 q 239 814 215 795 q 263 862 263 834 q 248 894 263 878 q 198 910 233 910 q 143 901 166 910 q 102 876 120 892 q 66 878 81 856 l 41 913 q 48 948 30 930 q 114 984 73 972 q 193 996 154 996 q 328 960 283 996 q 373 871 373 924 q 342 801 373 833 q 277 757 311 769 l 277 755 q 354 712 317 745 q 391 630 391 679 q 341 512 391 553 q 192 471 292 471 q 105 484 150 471 q 34 519 60 496 z "},"´":{"ha":416,"x_min":79,"x_max":402,"o":"m 118 780 q 104 820 79 780 l 177 941 q 249 973 196 973 l 352 973 q 367 933 402 973 l 255 805 q 186 780 233 780 l 118 780 z "},"µ":{"ha":837,"x_min":92,"x_max":745,"o":"m 133 -271 q 92 -231 92 -271 l 92 671 q 133 712 92 712 l 241 712 q 282 671 282 712 l 282 404 q 324 179 282 238 q 418 119 366 119 q 520 184 486 119 q 555 404 555 248 l 555 671 q 595 712 555 712 l 704 712 q 745 671 745 712 l 745 41 q 704 0 745 0 l 597 0 q 556 41 556 0 l 556 80 l 553 80 q 498 8 529 31 q 421 -14 468 -14 q 341 7 374 -14 q 283 80 307 28 l 279 80 q 282 26 282 53 l 282 -231 q 241 -271 282 -271 l 133 -271 z "},"¶":{"ha":773,"x_min":51,"x_max":681,"o":"m 51 735 q 121 902 51 831 q 302 972 192 972 l 404 972 q 437 932 437 972 l 437 -210 q 404 -251 437 -251 l 336 -251 q 302 -210 302 -251 l 302 498 q 121 568 192 498 q 51 735 51 639 m 579 -251 q 545 -210 545 -251 l 545 932 q 579 972 545 972 l 647 972 q 681 932 681 972 l 681 -210 q 647 -251 681 -251 l 579 -251 z "},"·":{"ha":453,"x_min":127,"x_max":326,"o":"m 175 395 q 127 446 127 395 l 127 537 q 175 588 127 588 l 278 588 q 326 537 326 588 l 326 446 q 278 395 326 395 l 175 395 z "},"¸":{"ha":416,"x_min":60,"x_max":326,"o":"m 79 -272 q 67 -243 60 -267 l 76 -213 q 107 -197 83 -188 q 161 -206 130 -206 q 205 -197 189 -206 q 221 -168 221 -188 q 204 -142 221 -151 q 151 -134 188 -134 l 137 -134 q 114 -110 114 -134 q 123 -64 114 -82 l 156 0 q 183 15 163 15 l 239 15 q 252 0 260 15 l 222 -60 l 222 -62 q 303 -96 280 -70 q 326 -165 326 -123 q 281 -257 326 -231 q 169 -284 237 -284 q 79 -272 122 -284 z "},"¹":{"ha":353,"x_min":44,"x_max":271,"o":"m 53 881 q 65 908 44 898 q 113 935 85 918 q 154 970 140 953 q 184 990 170 990 l 250 990 q 271 969 271 990 l 271 504 q 250 483 271 483 l 184 483 q 163 504 163 483 l 163 832 q 164 861 163 846 l 163 861 q 133 837 152 847 q 104 822 114 826 q 79 831 88 815 l 53 881 z "},"º":{"ha":556,"x_min":37,"x_max":519,"o":"m 37 774 q 96 952 37 889 q 278 1015 156 1015 q 460 952 400 1015 q 519 774 519 889 q 460 596 519 659 q 278 534 400 534 q 96 596 156 534 q 37 774 37 659 m 180 774 q 207 668 180 696 q 278 640 234 640 q 349 668 322 640 q 376 774 376 696 q 349 880 376 852 q 278 909 322 909 q 207 880 234 909 q 180 774 180 852 z "},"»":{"ha":751,"x_min":69,"x_max":690,"o":"m 87 121 q 90 161 69 136 l 258 368 l 90 575 q 87 616 69 601 l 147 663 q 188 656 169 680 l 397 395 q 397 342 418 368 l 188 80 q 147 73 169 56 l 87 121 m 360 121 q 363 161 342 136 l 530 368 l 363 575 q 360 616 342 601 l 420 663 q 460 656 441 680 l 669 395 q 669 342 690 368 l 460 80 q 420 73 441 56 l 360 121 z "},"¼":{"ha":1204,"x_min":125,"x_max":1107,"o":"m 208 -20 q 203 33 180 0 l 896 1022 q 947 1036 920 1056 l 995 1003 q 1000 950 1023 983 l 307 -39 q 256 -53 283 -73 l 208 -20 m 746 106 q 723 129 723 106 l 723 182 q 734 218 723 202 l 926 489 q 958 507 939 507 l 1020 507 q 1043 484 1043 507 l 1043 201 l 1084 201 q 1107 178 1107 201 l 1107 129 q 1085 106 1107 106 l 1043 106 l 1043 23 q 1021 0 1043 0 l 958 0 q 935 23 935 0 l 935 106 l 746 106 m 828 201 l 935 201 l 935 323 q 936 351 935 337 l 935 351 l 828 201 m 134 881 q 146 908 125 898 q 194 935 167 918 q 235 970 221 953 q 266 990 251 990 l 332 990 q 353 969 353 990 l 353 504 q 332 483 353 483 l 265 483 q 244 504 244 483 l 244 832 q 245 861 244 846 l 244 861 q 214 837 233 847 q 186 822 195 826 q 161 831 170 815 l 134 881 z "},"½":{"ha":1204,"x_min":125,"x_max":1120,"o":"m 208 -20 q 203 33 180 0 l 896 1022 q 947 1036 920 1056 l 995 1003 q 1000 950 1023 983 l 307 -39 q 256 -53 283 -73 l 208 -20 m 134 881 q 146 908 125 898 q 194 935 167 918 q 235 970 221 953 q 266 990 251 990 l 332 990 q 353 969 353 990 l 353 504 q 332 483 353 483 l 265 483 q 244 504 244 483 l 244 832 q 245 861 244 846 l 244 861 q 214 837 233 847 q 186 822 195 826 q 161 831 170 815 l 134 881 m 786 0 q 760 23 760 0 l 760 47 q 777 83 760 66 q 882 195 777 83 q 960 279 919 235 q 1001 362 1001 324 q 985 410 1001 393 q 938 427 968 427 q 876 405 897 427 q 846 357 854 382 q 817 339 837 330 l 777 357 q 768 390 761 365 q 824 476 781 440 q 949 513 866 513 q 1075 468 1036 513 q 1114 372 1114 424 q 1061 260 1114 309 q 960 159 1008 210 l 900 96 l 900 94 q 935 95 921 95 l 1093 95 q 1120 72 1120 95 l 1120 23 q 1093 0 1120 0 l 786 0 z "},"¾":{"ha":1204,"x_min":85,"x_max":1105,"o":"m 208 -20 q 203 33 180 0 l 896 1022 q 947 1036 920 1056 l 995 1003 q 1000 950 1023 983 l 307 -39 q 256 -53 283 -73 l 208 -20 m 99 519 q 97 552 85 531 l 117 588 q 155 591 130 609 q 204 566 176 576 q 261 557 233 557 q 321 578 298 557 q 344 631 344 600 q 319 687 344 663 q 257 710 294 710 l 230 710 q 207 728 207 710 l 207 775 q 230 795 207 795 l 251 795 q 304 814 280 795 q 328 862 328 834 q 313 894 328 878 q 263 910 298 910 q 208 901 231 910 q 167 876 185 892 q 131 878 146 856 l 106 913 q 113 948 95 930 q 179 984 138 972 q 258 996 219 996 q 393 960 348 996 q 438 871 438 924 q 407 801 438 833 q 342 757 376 769 l 342 755 q 419 712 382 745 q 456 630 456 679 q 407 512 456 553 q 257 471 357 471 q 170 484 215 471 q 99 519 125 496 m 743 106 q 720 129 720 106 l 720 182 q 731 218 720 202 l 923 489 q 956 507 936 507 l 1017 507 q 1040 484 1040 507 l 1040 201 l 1082 201 q 1105 178 1105 201 l 1105 129 q 1082 106 1105 106 l 1040 106 l 1040 23 q 1018 0 1040 0 l 955 0 q 932 23 932 0 l 932 106 l 743 106 m 825 201 l 932 201 l 932 323 q 933 351 932 337 l 932 351 l 825 201 z "},"¿":{"ha":750,"x_min":68,"x_max":708,"o":"m 68 -12 q 180 194 68 83 q 292 377 292 305 l 292 388 q 336 432 292 432 l 438 432 q 482 388 482 432 l 482 368 q 377 146 482 256 q 271 -16 271 37 q 297 -101 271 -71 q 388 -132 322 -132 q 482 -105 446 -132 q 541 -41 518 -79 q 602 -28 564 -3 l 673 -73 q 682 -142 708 -96 q 576 -237 654 -191 q 381 -283 499 -283 q 144 -211 220 -283 q 68 -12 68 -138 m 336 519 q 288 570 288 519 l 288 661 q 336 712 288 712 l 439 712 q 486 661 486 712 l 486 570 q 439 519 486 519 l 336 519 z "},"À":{"ha":945,"x_min":12,"x_max":933,"o":"m 61 0 q 29 45 12 0 l 361 918 q 425 972 382 972 l 520 972 q 584 918 563 972 l 916 45 q 884 0 933 0 l 777 0 q 714 47 732 0 l 645 229 l 300 229 l 231 47 q 169 0 214 0 l 61 0 m 363 397 l 582 397 l 498 613 q 480 668 484 651 q 474 720 477 686 l 471 720 q 465 668 468 686 q 447 613 462 651 l 363 397 z "},"Á":{"ha":945,"x_min":12,"x_max":933,"o":"m 61 0 q 29 45 12 0 l 361 918 q 425 972 382 972 l 520 972 q 584 918 563 972 l 916 45 q 884 0 933 0 l 777 0 q 714 47 732 0 l 645 229 l 300 229 l 231 47 q 169 0 214 0 l 61 0 m 363 397 l 582 397 l 498 613 q 480 668 484 651 q 474 720 477 686 l 471 720 q 465 668 468 686 q 447 613 462 651 l 363 397 z "},"Â":{"ha":945,"x_min":12,"x_max":933,"o":"m 210 1075 q 236 1122 197 1107 l 401 1189 q 452 1198 423 1198 l 493 1198 q 544 1189 522 1198 l 709 1122 q 736 1075 749 1107 l 722 1041 q 671 1025 709 1009 l 473 1107 l 472 1107 l 275 1025 q 223 1041 236 1009 l 210 1075 m 61 0 q 29 45 12 0 l 361 918 q 425 972 382 972 l 520 972 q 584 918 563 972 l 916 45 q 884 0 933 0 l 777 0 q 714 47 732 0 l 645 229 l 300 229 l 231 47 q 169 0 214 0 l 61 0 m 363 397 l 582 397 l 498 613 q 480 668 484 651 q 474 720 477 686 l 471 720 q 465 668 468 686 q 447 613 462 651 l 363 397 z "},"Ã":{"ha":945,"x_min":12,"x_max":933,"o":"m 216 1074 q 210 1117 193 1088 q 273 1184 235 1158 q 376 1211 310 1211 q 488 1179 424 1211 q 578 1148 551 1148 q 624 1160 602 1148 q 656 1188 646 1171 q 697 1203 675 1217 l 730 1183 q 735 1140 753 1169 q 673 1073 710 1099 q 569 1046 635 1046 q 458 1078 519 1046 q 368 1109 397 1109 q 322 1097 344 1109 q 289 1069 300 1086 q 248 1054 271 1040 l 216 1074 m 61 0 q 29 45 12 0 l 361 918 q 425 972 382 972 l 520 972 q 584 918 563 972 l 916 45 q 884 0 933 0 l 777 0 q 714 47 732 0 l 645 229 l 300 229 l 231 47 q 169 0 214 0 l 61 0 m 363 397 l 582 397 l 498 613 q 480 668 484 651 q 474 720 477 686 l 471 720 q 465 668 468 686 q 447 613 462 651 l 363 397 z "},"Ä":{"ha":945,"x_min":12,"x_max":933,"o":"m 61 0 q 29 45 12 0 l 361 918 q 425 972 382 972 l 520 972 q 584 918 563 972 l 916 45 q 884 0 933 0 l 777 0 q 714 47 732 0 l 645 229 l 300 229 l 231 47 q 169 0 214 0 l 61 0 m 363 397 l 582 397 l 498 613 q 480 668 484 651 q 474 720 477 686 l 471 720 q 465 668 468 686 q 447 613 462 651 l 363 397 m 249 1038 q 201 1088 201 1038 l 201 1160 q 249 1211 201 1211 l 352 1211 q 399 1160 399 1211 l 399 1088 q 352 1038 399 1038 l 249 1038 m 593 1038 q 546 1088 546 1038 l 546 1160 q 593 1211 546 1211 l 696 1211 q 744 1160 744 1211 l 744 1088 q 696 1038 744 1038 l 593 1038 z "},"Å":{"ha":945,"x_min":12,"x_max":933,"o":"m 61 0 q 29 45 12 0 l 361 918 q 425 972 382 972 l 520 972 q 584 918 563 972 l 916 45 q 884 0 933 0 l 777 0 q 714 47 732 0 l 645 229 l 300 229 l 231 47 q 169 0 214 0 l 61 0 m 363 397 l 582 397 l 498 613 q 480 668 484 651 q 474 720 477 686 l 471 720 q 465 668 468 686 q 447 613 462 651 l 363 397 m 346 1117 q 382 1203 346 1169 q 473 1238 418 1238 q 563 1203 527 1238 q 600 1117 600 1168 q 563 1031 600 1066 q 473 996 527 996 q 382 1030 418 996 q 346 1117 346 1065 m 408 1117 q 426 1074 408 1091 q 473 1056 444 1056 q 519 1074 501 1056 q 537 1117 537 1091 q 519 1160 537 1143 q 473 1178 501 1178 q 426 1160 444 1178 q 408 1117 408 1143 z "},"Æ":{"ha":1296,"x_min":10,"x_max":1238,"o":"m 61 0 q 29 45 10 0 l 398 918 q 462 972 421 972 l 1166 972 q 1217 928 1217 972 l 1217 848 q 1166 804 1217 804 l 757 804 l 757 589 l 1130 589 q 1181 545 1181 589 l 1181 465 q 1130 420 1181 420 l 757 420 l 757 168 l 1187 168 q 1238 124 1238 168 l 1238 44 q 1187 0 1238 0 l 606 0 q 559 51 559 0 l 559 229 l 311 229 l 233 47 q 171 0 214 0 l 61 0 m 381 397 l 559 397 l 559 804 l 534 804 q 516 723 526 755 q 490 654 506 690 l 381 397 z "},"Ç":{"ha":962,"x_min":58,"x_max":913,"o":"m 58 486 q 177 858 58 720 q 519 996 296 996 q 738 956 648 996 q 864 840 827 916 q 856 772 888 789 l 774 728 q 704 754 732 705 q 638 810 686 785 q 526 836 591 836 q 327 746 384 836 q 270 486 270 656 q 327 227 270 317 q 526 137 384 137 q 655 172 603 137 q 728 237 708 206 q 799 263 762 288 l 880 209 q 887 141 913 186 q 752 25 848 73 q 519 -23 656 -23 q 179 115 299 -23 q 58 486 58 252 m 372 -272 q 360 -243 353 -267 l 369 -213 q 400 -197 376 -188 q 454 -206 423 -206 q 498 -197 482 -206 q 514 -168 514 -188 q 497 -142 514 -151 q 444 -134 481 -134 l 430 -134 q 407 -110 407 -134 q 416 -64 407 -82 l 449 0 q 476 15 456 15 l 532 15 q 545 0 553 15 l 515 -60 l 515 -62 q 596 -96 573 -70 q 619 -165 619 -123 q 574 -257 619 -231 q 462 -284 530 -284 q 372 -272 415 -284 z "},"È":{"ha":868,"x_min":109,"x_max":810,"o":"m 156 0 q 109 51 109 0 l 109 922 q 156 972 109 972 l 738 972 q 789 928 789 972 l 789 848 q 738 804 789 804 l 307 804 l 307 589 l 702 589 q 753 545 753 589 l 753 465 q 702 420 753 420 l 307 420 l 307 168 l 760 168 q 810 124 810 168 l 810 44 q 760 0 810 0 l 156 0 z "},"É":{"ha":868,"x_min":109,"x_max":810,"o":"m 156 0 q 109 51 109 0 l 109 922 q 156 972 109 972 l 738 972 q 789 928 789 972 l 789 848 q 738 804 789 804 l 307 804 l 307 589 l 702 589 q 753 545 753 589 l 753 465 q 702 420 753 420 l 307 420 l 307 168 l 760 168 q 810 124 810 168 l 810 44 q 760 0 810 0 l 156 0 z "},"Ê":{"ha":868,"x_min":109,"x_max":810,"o":"m 197 1075 q 223 1122 184 1107 l 389 1189 q 439 1198 410 1198 l 480 1198 q 531 1189 509 1198 l 696 1122 q 723 1075 736 1107 l 709 1041 q 658 1025 696 1009 l 460 1107 l 459 1107 l 262 1025 q 210 1041 223 1009 l 197 1075 m 156 0 q 109 51 109 0 l 109 922 q 156 972 109 972 l 738 972 q 789 928 789 972 l 789 848 q 738 804 789 804 l 307 804 l 307 589 l 702 589 q 753 545 753 589 l 753 465 q 702 420 753 420 l 307 420 l 307 168 l 760 168 q 810 124 810 168 l 810 44 q 760 0 810 0 l 156 0 z "},"Ë":{"ha":868,"x_min":109,"x_max":810,"o":"m 234 1038 q 186 1088 186 1038 l 186 1160 q 234 1211 186 1211 l 337 1211 q 385 1160 385 1211 l 385 1088 q 337 1038 385 1038 l 234 1038 m 578 1038 q 531 1088 531 1038 l 531 1160 q 578 1211 531 1211 l 682 1211 q 729 1160 729 1211 l 729 1088 q 682 1038 729 1038 l 578 1038 m 156 0 q 109 51 109 0 l 109 922 q 156 972 109 972 l 738 972 q 789 928 789 972 l 789 848 q 738 804 789 804 l 307 804 l 307 589 l 702 589 q 753 545 753 589 l 753 465 q 702 420 753 420 l 307 420 l 307 168 l 760 168 q 810 124 810 168 l 810 44 q 760 0 810 0 l 156 0 z "},"Ì":{"ha":415,"x_min":1,"x_max":343,"o":"m 156 0 q 109 51 109 0 l 109 922 q 156 972 109 972 l 259 972 q 307 922 307 972 l 307 51 q 259 0 307 0 l 156 0 z "},"Í":{"ha":415,"x_min":72,"x_max":414,"o":"m 156 0 q 109 51 109 0 l 109 922 q 156 972 109 972 l 259 972 q 307 922 307 972 l 307 51 q 259 0 307 0 l 156 0 z "},"Î":{"ha":415,"x_min":-68,"x_max":484,"o":"m -56 1075 q -29 1122 -68 1107 l 136 1189 q 187 1198 158 1198 l 228 1198 q 279 1189 257 1198 l 444 1122 q 471 1075 484 1107 l 457 1041 q 406 1025 444 1009 l 208 1107 l 207 1107 l 9 1025 q -42 1041 -29 1009 l -56 1075 m 156 0 q 109 51 109 0 l 109 922 q 156 972 109 972 l 259 972 q 307 922 307 972 l 307 51 q 259 0 307 0 l 156 0 z "},"Ï":{"ha":415,"x_min":-37,"x_max":452,"o":"m 156 0 q 109 51 109 0 l 109 922 q 156 972 109 972 l 259 972 q 307 922 307 972 l 307 51 q 259 0 307 0 l 156 0 m 11 1038 q -37 1088 -37 1038 l -37 1160 q 11 1211 -37 1211 l 100 1211 q 148 1160 148 1211 l 148 1088 q 100 1038 148 1038 l 11 1038 m 315 1038 q 267 1088 267 1038 l 267 1160 q 315 1211 267 1211 l 404 1211 q 452 1160 452 1211 l 452 1088 q 404 1038 452 1038 l 315 1038 z "},"Ð":{"ha":1017,"x_min":20,"x_max":959,"o":"m 71 415 q 20 459 20 415 l 20 539 q 71 583 20 583 l 142 583 l 142 922 q 190 972 142 972 l 427 972 q 849 846 739 972 q 959 488 959 720 q 849 127 959 255 q 427 0 739 0 l 190 0 q 142 51 142 0 l 142 415 l 71 415 m 340 168 l 414 168 q 686 247 624 168 q 747 488 747 325 q 686 728 747 650 q 414 806 624 806 l 340 806 l 340 583 l 503 583 q 553 539 553 583 l 553 459 q 503 415 553 415 l 340 415 l 340 168 z "},"Ñ":{"ha":998,"x_min":109,"x_max":890,"o":"m 242 1074 q 237 1117 219 1088 q 299 1184 262 1158 q 403 1211 336 1211 q 514 1179 450 1211 q 604 1148 578 1148 q 650 1160 628 1148 q 683 1188 672 1171 q 724 1203 701 1217 l 756 1183 q 762 1140 779 1169 q 699 1073 736 1099 q 595 1046 662 1046 q 484 1078 545 1046 q 394 1109 423 1109 q 348 1097 370 1109 q 315 1069 326 1086 q 275 1054 297 1040 l 242 1074 m 156 0 q 109 51 109 0 l 109 922 q 156 972 109 972 l 256 972 q 345 925 315 972 l 690 370 l 695 370 q 692 451 692 410 l 692 922 q 739 972 692 972 l 842 972 q 890 922 890 972 l 890 51 q 842 0 890 0 l 749 0 q 661 47 690 0 l 308 613 l 303 613 q 307 532 307 572 l 307 51 q 259 0 307 0 l 156 0 z "},"Ò":{"ha":1047,"x_min":58,"x_max":989,"o":"m 58 486 q 179 858 58 720 q 524 996 300 996 q 868 858 747 996 q 989 486 989 720 q 868 115 989 252 q 524 -23 747 -23 q 179 115 300 -23 q 58 486 58 252 m 270 486 q 331 227 270 317 q 524 137 391 137 q 716 227 656 137 q 777 486 777 317 q 716 746 777 656 q 524 836 656 836 q 331 746 391 836 q 270 486 270 656 z "},"Ó":{"ha":1047,"x_min":58,"x_max":989,"o":"m 58 486 q 179 858 58 720 q 524 996 300 996 q 868 858 747 996 q 989 486 989 720 q 868 115 989 252 q 524 -23 747 -23 q 179 115 300 -23 q 58 486 58 252 m 270 486 q 331 227 270 317 q 524 137 391 137 q 716 227 656 137 q 777 486 777 317 q 716 746 777 656 q 524 836 656 836 q 331 746 391 836 q 270 486 270 656 m 433 1044 q 416 1088 388 1044 l 476 1179 q 550 1211 497 1211 l 669 1211 q 686 1169 730 1211 l 578 1070 q 503 1044 551 1044 l 433 1044 z "},"Ô":{"ha":1047,"x_min":58,"x_max":989,"o":"m 260 1075 q 287 1122 248 1107 l 452 1189 q 503 1198 474 1198 l 544 1198 q 595 1189 573 1198 l 760 1122 q 787 1075 800 1107 l 773 1041 q 722 1025 760 1009 l 524 1107 l 523 1107 l 326 1025 q 274 1041 287 1009 l 260 1075 m 58 486 q 179 858 58 720 q 524 996 300 996 q 868 858 747 996 q 989 486 989 720 q 868 115 989 252 q 524 -23 747 -23 q 179 115 300 -23 q 58 486 58 252 m 270 486 q 331 227 270 317 q 524 137 391 137 q 716 227 656 137 q 777 486 777 317 q 716 746 777 656 q 524 836 656 836 q 331 746 391 836 q 270 486 270 656 z "},"Õ":{"ha":1047,"x_min":58,"x_max":989,"o":"m 267 1074 q 261 1117 243 1088 q 323 1184 286 1158 q 427 1211 361 1211 q 538 1179 475 1211 q 629 1148 602 1148 q 674 1160 652 1148 q 707 1188 696 1171 q 748 1203 726 1217 l 781 1183 q 786 1140 804 1169 q 724 1073 761 1099 q 620 1046 686 1046 q 509 1078 570 1046 q 418 1109 448 1109 q 373 1097 395 1109 q 340 1069 351 1086 q 299 1054 321 1040 l 267 1074 m 58 486 q 179 858 58 720 q 524 996 300 996 q 868 858 747 996 q 989 486 989 720 q 868 115 989 252 q 524 -23 747 -23 q 179 115 300 -23 q 58 486 58 252 m 270 486 q 331 227 270 317 q 524 137 391 137 q 716 227 656 137 q 777 486 777 317 q 716 746 777 656 q 524 836 656 836 q 331 746 391 836 q 270 486 270 656 z "},"Ö":{"ha":1047,"x_min":58,"x_max":989,"o":"m 58 486 q 179 858 58 720 q 524 996 300 996 q 868 858 747 996 q 989 486 989 720 q 868 115 989 252 q 524 -23 747 -23 q 179 115 300 -23 q 58 486 58 252 m 270 486 q 331 227 270 317 q 524 137 391 137 q 716 227 656 137 q 777 486 777 317 q 716 746 777 656 q 524 836 656 836 q 331 746 391 836 q 270 486 270 656 m 303 1038 q 256 1088 256 1038 l 256 1160 q 303 1211 256 1211 l 406 1211 q 454 1160 454 1211 l 454 1088 q 406 1038 454 1038 l 303 1038 m 648 1038 q 600 1088 600 1038 l 600 1160 q 648 1211 600 1211 l 751 1211 q 798 1160 798 1211 l 798 1088 q 751 1038 798 1038 l 648 1038 z "},"×":{"ha":868,"x_min":118,"x_max":749,"o":"m 142 241 q 146 294 118 265 l 344 492 l 146 690 q 142 742 118 718 l 183 783 q 236 779 207 807 l 433 581 l 631 779 q 684 783 659 807 l 725 742 q 720 690 749 718 l 522 492 l 720 294 q 725 241 749 266 l 684 200 q 631 205 660 176 l 433 403 l 236 205 q 183 200 208 176 l 142 241 z "},"Ø":{"ha":1047,"x_min":18,"x_max":1029,"o":"m 58 486 q 179 858 58 720 q 524 996 300 996 q 805 916 694 996 l 886 1006 q 941 1011 913 1036 l 1002 956 q 1002 901 1029 932 l 911 800 q 989 486 989 674 q 868 115 989 252 q 524 -23 747 -23 q 242 57 353 -23 l 161 -33 q 106 -39 134 -64 l 45 16 q 45 71 18 41 l 136 173 q 58 486 58 298 m 270 486 q 285 338 270 402 l 685 782 q 524 836 625 836 q 331 746 391 836 q 270 486 270 656 m 362 191 q 524 137 422 137 q 716 227 656 137 q 777 486 777 317 q 762 635 777 570 l 362 191 z "},"Ù":{"ha":964,"x_min":109,"x_max":856,"o":"m 109 405 l 109 935 q 156 972 109 972 l 259 972 q 307 935 307 972 l 307 412 q 360 183 307 229 q 482 137 414 137 q 604 183 550 137 q 658 412 658 229 l 658 935 q 705 972 658 972 l 808 972 q 856 935 856 972 l 856 405 q 755 72 856 168 q 482 -23 655 -23 q 209 72 309 -23 q 109 405 109 168 z "},"Ú":{"ha":964,"x_min":109,"x_max":856,"o":"m 109 405 l 109 935 q 156 972 109 972 l 259 972 q 307 935 307 972 l 307 412 q 360 183 307 229 q 482 137 414 137 q 604 183 550 137 q 658 412 658 229 l 658 935 q 705 972 658 972 l 808 972 q 856 935 856 972 l 856 405 q 755 72 856 168 q 482 -23 655 -23 q 209 72 309 -23 q 109 405 109 168 z "},"Û":{"ha":964,"x_min":109,"x_max":856,"o":"m 219 1075 q 245 1122 206 1107 l 411 1189 q 462 1198 433 1198 l 503 1198 q 553 1189 532 1198 l 719 1122 q 745 1075 758 1107 l 732 1041 q 680 1025 719 1009 l 483 1107 l 481 1107 l 284 1025 q 233 1041 245 1009 l 219 1075 m 109 405 l 109 935 q 156 972 109 972 l 259 972 q 307 935 307 972 l 307 412 q 360 183 307 229 q 482 137 414 137 q 604 183 550 137 q 658 412 658 229 l 658 935 q 705 972 658 972 l 808 972 q 856 935 856 972 l 856 405 q 755 72 856 168 q 482 -23 655 -23 q 209 72 309 -23 q 109 405 109 168 z "},"Ü":{"ha":964,"x_min":109,"x_max":856,"o":"m 258 1038 q 211 1088 211 1038 l 211 1160 q 258 1211 211 1211 l 361 1211 q 409 1160 409 1211 l 409 1088 q 361 1038 409 1038 l 258 1038 m 603 1038 q 555 1088 555 1038 l 555 1160 q 603 1211 555 1211 l 706 1211 q 753 1160 753 1211 l 753 1088 q 706 1038 753 1038 l 603 1038 m 109 405 l 109 935 q 156 972 109 972 l 259 972 q 307 935 307 972 l 307 412 q 360 183 307 229 q 482 137 414 137 q 604 183 550 137 q 658 412 658 229 l 658 935 q 705 972 658 972 l 808 972 q 856 935 856 972 l 856 405 q 755 72 856 168 q 482 -23 655 -23 q 209 72 309 -23 q 109 405 109 168 z "},"Ý":{"ha":928,"x_min":0,"x_max":928,"o":"m 35 914 q 66 972 0 972 l 185 972 q 248 926 220 972 l 392 674 q 428 611 398 664 q 463 507 458 557 l 465 507 q 500 611 470 557 q 536 674 530 664 l 680 926 q 743 972 707 972 l 861 972 q 893 914 928 972 l 563 356 l 563 37 q 515 0 563 0 l 412 0 q 365 37 365 0 l 365 356 l 35 914 z "},"Þ":{"ha":890,"x_min":109,"x_max":829,"o":"m 156 -7 q 109 43 109 -7 l 109 924 q 156 975 109 975 l 259 975 q 307 924 307 975 l 307 812 l 412 812 q 729 735 629 812 q 829 509 829 658 q 729 282 829 359 q 412 205 629 205 l 307 205 l 307 43 q 259 -7 307 -7 l 156 -7 m 307 370 l 417 370 q 575 402 526 370 q 624 509 624 434 q 575 615 624 583 q 417 647 526 647 l 307 647 l 307 370 z "},"ß":{"ha":907,"x_min":92,"x_max":843,"o":"m 133 0 q 92 41 92 0 l 92 753 q 196 952 92 889 q 444 1015 299 1015 q 683 946 606 1015 q 760 780 760 878 q 713 642 760 700 q 586 541 666 583 l 586 539 q 769 459 694 532 q 843 255 843 387 q 771 65 843 144 q 543 -14 700 -14 q 454 -5 500 -14 q 379 23 408 4 q 362 66 351 41 l 393 141 q 438 150 406 172 q 477 130 452 140 q 529 119 503 119 q 611 160 579 119 q 642 271 642 201 q 596 385 642 339 q 465 434 551 431 q 439 458 447 435 l 408 547 q 425 583 402 566 l 463 610 q 550 691 530 660 q 570 774 570 723 q 542 850 570 819 q 445 882 514 882 q 328 846 374 882 q 282 705 282 811 l 282 41 q 241 0 282 0 l 133 0 z "},"à":{"ha":762,"x_min":54,"x_max":669,"o":"m 54 190 q 184 387 54 326 q 479 452 313 448 l 479 479 q 448 567 479 541 q 361 593 417 593 q 292 582 322 593 q 240 556 262 570 q 200 526 218 541 q 149 524 169 499 l 92 593 q 102 646 71 618 q 158 682 126 667 q 241 712 189 698 q 377 726 294 726 q 594 661 518 726 q 669 469 669 595 l 669 41 q 629 0 669 0 l 517 0 q 481 41 481 0 l 481 61 l 479 61 q 384 4 439 22 q 281 -14 328 -14 q 112 41 170 -14 q 54 190 54 96 m 255 194 q 264 153 255 170 q 294 127 274 136 q 340 119 315 119 q 407 129 374 119 q 479 174 439 138 l 479 321 q 327 288 366 308 q 272 245 288 267 q 255 194 255 224 z "},"á":{"ha":762,"x_min":54,"x_max":669,"o":"m 54 190 q 184 387 54 326 q 479 452 313 448 l 479 479 q 448 567 479 541 q 361 593 417 593 q 292 582 322 593 q 240 556 262 570 q 200 526 218 541 q 149 524 169 499 l 92 593 q 102 646 71 618 q 158 682 126 667 q 241 712 189 698 q 377 726 294 726 q 594 661 518 726 q 669 469 669 595 l 669 41 q 629 0 669 0 l 517 0 q 481 41 481 0 l 481 61 l 479 61 q 384 4 439 22 q 281 -14 328 -14 q 112 41 170 -14 q 54 190 54 96 m 255 194 q 264 153 255 170 q 294 127 274 136 q 340 119 315 119 q 407 129 374 119 q 479 174 439 138 l 479 321 q 327 288 366 308 q 272 245 288 267 q 255 194 255 224 z "},"â":{"ha":762,"x_min":54,"x_max":669,"o":"m 54 190 q 184 387 54 326 q 479 452 313 448 l 479 479 q 448 567 479 541 q 361 593 417 593 q 292 582 322 593 q 240 556 262 570 q 200 526 218 541 q 149 524 169 499 l 92 593 q 102 646 71 618 q 158 682 126 667 q 241 712 189 698 q 377 726 294 726 q 594 661 518 726 q 669 469 669 595 l 669 41 q 629 0 669 0 l 517 0 q 481 41 481 0 l 481 61 l 479 61 q 384 4 439 22 q 281 -14 328 -14 q 112 41 170 -14 q 54 190 54 96 m 255 194 q 264 153 255 170 q 294 127 274 136 q 340 119 315 119 q 407 129 374 119 q 479 174 439 138 l 479 321 q 327 288 366 308 q 272 245 288 267 q 255 194 255 224 z "},"ã":{"ha":762,"x_min":54,"x_max":669,"o":"m 54 190 q 184 387 54 326 q 479 452 313 448 l 479 479 q 448 567 479 541 q 361 593 417 593 q 292 582 322 593 q 240 556 262 570 q 200 526 218 541 q 149 524 169 499 l 92 593 q 102 646 71 618 q 158 682 126 667 q 241 712 189 698 q 377 726 294 726 q 594 661 518 726 q 669 469 669 595 l 669 41 q 629 0 669 0 l 517 0 q 481 41 481 0 l 481 61 l 479 61 q 384 4 439 22 q 281 -14 328 -14 q 112 41 170 -14 q 54 190 54 96 m 255 194 q 264 153 255 170 q 294 127 274 136 q 340 119 315 119 q 407 129 374 119 q 479 174 439 138 l 479 321 q 327 288 366 308 q 272 245 288 267 q 255 194 255 224 z "},"ä":{"ha":762,"x_min":54,"x_max":669,"o":"m 54 190 q 184 387 54 326 q 479 452 313 448 l 479 479 q 448 567 479 541 q 361 593 417 593 q 292 582 322 593 q 240 556 262 570 q 200 526 218 541 q 149 524 169 499 l 92 593 q 102 646 71 618 q 158 682 126 667 q 241 712 189 698 q 377 726 294 726 q 594 661 518 726 q 669 469 669 595 l 669 41 q 629 0 669 0 l 517 0 q 481 41 481 0 l 481 61 l 479 61 q 384 4 439 22 q 281 -14 328 -14 q 112 41 170 -14 q 54 190 54 96 m 255 194 q 264 153 255 170 q 294 127 274 136 q 340 119 315 119 q 407 129 374 119 q 479 174 439 138 l 479 321 q 327 288 366 308 q 272 245 288 267 q 255 194 255 224 m 195 818 q 154 859 154 818 l 154 937 q 195 978 154 978 l 273 978 q 314 937 314 978 l 314 859 q 273 818 314 818 l 195 818 m 484 818 q 443 859 443 818 l 443 937 q 484 978 443 978 l 562 978 q 603 937 603 978 l 603 859 q 562 818 603 818 l 484 818 z "},"å":{"ha":762,"x_min":54,"x_max":669,"o":"m 54 190 q 184 387 54 326 q 479 452 313 448 l 479 479 q 448 567 479 541 q 361 593 417 593 q 292 582 322 593 q 240 556 262 570 q 200 526 218 541 q 149 524 169 499 l 92 593 q 102 646 71 618 q 158 682 126 667 q 241 712 189 698 q 377 726 294 726 q 594 661 518 726 q 669 469 669 595 l 669 41 q 629 0 669 0 l 517 0 q 481 41 481 0 l 481 61 l 479 61 q 384 4 439 22 q 281 -14 328 -14 q 112 41 170 -14 q 54 190 54 96 m 255 194 q 264 153 255 170 q 294 127 274 136 q 340 119 315 119 q 407 129 374 119 q 479 174 439 138 l 479 321 q 327 288 366 308 q 272 245 288 267 q 255 194 255 224 z "},"æ":{"ha":1197,"x_min":54,"x_max":1141,"o":"m 54 190 q 182 387 54 326 q 473 452 310 448 l 473 479 q 441 567 473 541 q 357 593 410 593 q 288 580 318 593 q 237 554 258 568 q 200 526 217 541 q 149 524 169 499 l 92 593 q 102 646 71 618 q 162 685 128 669 q 246 713 196 701 q 374 726 296 726 q 486 712 431 726 q 583 662 541 699 l 585 662 q 674 710 618 694 q 787 726 730 726 q 1055 632 968 726 q 1141 331 1141 538 q 1103 290 1141 290 l 663 290 q 715 155 670 190 q 815 119 760 119 q 898 134 861 119 q 956 175 935 148 q 1013 184 981 205 l 1076 143 q 1088 85 1116 117 q 992 11 1046 35 q 819 -14 939 -14 q 640 13 708 -14 q 528 99 571 39 l 527 99 q 418 19 484 52 q 288 -14 351 -14 q 111 41 167 -14 q 54 190 54 96 m 255 194 q 263 155 255 174 q 292 128 271 136 q 336 119 313 119 q 404 136 368 119 q 481 193 439 152 q 473 321 474 244 q 330 289 368 307 q 273 248 291 270 q 255 194 255 226 m 663 426 l 951 426 q 917 546 951 499 q 802 592 882 592 q 702 548 738 592 q 663 426 666 503 z "},"ç":{"ha":736,"x_min":54,"x_max":706,"o":"m 54 356 q 141 627 54 529 q 408 726 228 726 q 571 698 513 726 q 665 616 629 670 q 658 566 686 585 l 586 519 q 532 534 555 498 q 488 572 521 552 q 408 593 456 593 q 293 539 331 593 q 255 356 255 485 q 293 173 255 227 q 408 119 331 119 q 496 142 463 119 q 560 202 530 165 q 614 211 586 233 l 677 161 q 681 102 706 139 q 591 24 654 62 q 408 -14 528 -14 q 141 85 228 -14 q 54 356 54 183 m 258 -272 q 246 -243 239 -267 l 255 -213 q 286 -197 262 -188 q 340 -206 309 -206 q 384 -197 368 -206 q 400 -168 400 -188 q 384 -142 400 -151 q 330 -134 367 -134 l 316 -134 q 293 -110 293 -134 q 302 -64 293 -82 l 335 0 q 362 15 342 15 l 418 15 q 431 0 439 15 l 401 -60 l 401 -62 q 482 -96 459 -70 q 505 -165 505 -123 q 460 -257 505 -231 q 348 -284 416 -284 q 258 -272 301 -284 z "},"è":{"ha":796,"x_min":54,"x_max":741,"o":"m 54 356 q 140 627 54 528 q 382 726 226 726 q 652 632 564 726 q 741 331 741 538 q 703 290 741 290 l 255 290 q 311 149 266 178 q 414 119 355 119 q 500 134 471 119 q 551 175 530 149 q 608 184 574 205 l 675 143 q 687 85 715 119 q 590 11 646 35 q 414 -14 534 -14 q 137 85 220 -14 q 54 356 54 184 m 256 426 l 551 426 q 514 546 551 499 q 397 592 477 592 q 296 548 334 592 q 256 426 259 503 z "},"é":{"ha":796,"x_min":54,"x_max":741,"o":"m 54 356 q 140 627 54 528 q 382 726 226 726 q 652 632 564 726 q 741 331 741 538 q 703 290 741 290 l 255 290 q 311 149 266 178 q 414 119 355 119 q 500 134 471 119 q 551 175 530 149 q 608 184 574 205 l 675 143 q 687 85 715 119 q 590 11 646 35 q 414 -14 534 -14 q 137 85 220 -14 q 54 356 54 184 m 256 426 l 551 426 q 514 546 551 499 q 397 592 477 592 q 296 548 334 592 q 256 426 259 503 z "},"ê":{"ha":796,"x_min":54,"x_max":741,"o":"m 54 356 q 140 627 54 528 q 382 726 226 726 q 652 632 564 726 q 741 331 741 538 q 703 290 741 290 l 255 290 q 311 149 266 178 q 414 119 355 119 q 500 134 471 119 q 551 175 530 149 q 608 184 574 205 l 675 143 q 687 85 715 119 q 590 11 646 35 q 414 -14 534 -14 q 137 85 220 -14 q 54 356 54 184 m 256 426 l 551 426 q 514 546 551 499 q 397 592 477 592 q 296 548 334 592 q 256 426 259 503 z "},"ë":{"ha":796,"x_min":54,"x_max":741,"o":"m 216 818 q 176 859 176 818 l 176 937 q 216 978 176 978 l 295 978 q 336 937 336 978 l 336 859 q 295 818 336 818 l 216 818 m 505 818 q 465 859 465 818 l 465 937 q 505 978 465 978 l 584 978 q 625 937 625 978 l 625 859 q 584 818 625 818 l 505 818 m 54 356 q 140 627 54 528 q 382 726 226 726 q 652 632 564 726 q 741 331 741 538 q 703 290 741 290 l 255 290 q 311 149 266 178 q 414 119 355 119 q 500 134 471 119 q 551 175 530 149 q 608 184 574 205 l 675 143 q 687 85 715 119 q 590 11 646 35 q 414 -14 534 -14 q 137 85 220 -14 q 54 356 54 184 m 256 426 l 551 426 q 514 546 551 499 q 397 592 477 592 q 296 548 334 592 q 256 426 259 503 z "},"ì":{"ha":374,"x_min":-7,"x_max":315,"o":"m 133 0 q 92 41 92 0 l 92 671 q 133 712 92 712 l 241 712 q 282 671 282 712 l 282 41 q 241 0 282 0 l 133 0 z "},"í":{"ha":374,"x_min":59,"x_max":382,"o":"m 133 0 q 92 41 92 0 l 92 671 q 133 712 92 712 l 241 712 q 282 671 282 712 l 282 41 q 241 0 282 0 l 133 0 z "},"î":{"ha":374,"x_min":-46,"x_max":420,"o":"m 133 0 q 92 41 92 0 l 92 671 q 133 712 92 712 l 241 712 q 282 671 282 712 l 282 41 q 241 0 282 0 l 133 0 z "},"ï":{"ha":374,"x_min":-12,"x_max":386,"o":"m 133 0 q 92 41 92 0 l 92 671 q 133 712 92 712 l 241 712 q 282 671 282 712 l 282 41 q 241 0 282 0 l 133 0 m 29 821 q -12 861 -12 821 l -12 935 q 29 975 -12 975 l 102 975 q 143 935 143 975 l 143 861 q 102 821 143 821 l 29 821 m 272 821 q 231 861 231 821 l 231 935 q 272 975 231 975 l 345 975 q 386 935 386 975 l 386 861 q 345 821 386 821 l 272 821 z "},"ð":{"ha":818,"x_min":54,"x_max":759,"o":"m 54 351 q 142 610 54 517 q 381 702 230 702 q 502 684 456 702 q 588 616 547 665 l 594 616 q 501 747 562 698 q 408 819 441 797 l 308 763 q 256 772 273 743 l 231 817 q 251 867 215 846 l 286 886 q 254 900 271 893 q 238 945 220 914 l 270 1001 q 325 1012 285 1027 q 427 964 378 991 l 506 1008 q 557 998 541 1027 l 583 954 q 563 904 598 926 l 539 888 q 680 731 601 840 q 759 404 759 623 q 672 83 759 179 q 409 -14 585 -14 q 143 86 233 -14 q 54 351 54 185 m 255 345 q 295 173 255 226 q 409 119 334 119 q 523 173 484 119 q 563 345 563 226 q 523 516 563 463 q 409 569 484 569 q 295 516 334 569 q 255 345 255 463 z "},"ñ":{"ha":814,"x_min":92,"x_max":723,"o":"m 133 0 q 92 41 92 0 l 92 671 q 133 712 92 712 l 240 712 q 281 671 281 712 l 281 632 l 283 632 q 363 706 315 686 q 479 726 411 726 q 654 659 585 726 q 723 416 723 593 l 723 41 q 682 0 723 0 l 574 0 q 533 41 533 0 l 533 368 q 513 554 533 515 q 425 593 492 593 q 318 537 354 593 q 282 308 282 482 l 282 41 q 241 0 282 0 l 133 0 z "},"ò":{"ha":818,"x_min":54,"x_max":764,"o":"m 54 356 q 143 627 54 529 q 409 726 233 726 q 674 627 585 726 q 764 356 764 529 q 674 85 764 183 q 409 -14 585 -14 q 143 85 233 -14 q 54 356 54 183 m 255 356 q 295 173 255 227 q 409 119 334 119 q 523 173 484 119 q 563 356 563 227 q 523 539 563 485 q 409 593 484 593 q 295 539 334 593 q 255 356 255 485 z "},"ó":{"ha":818,"x_min":54,"x_max":764,"o":"m 54 356 q 143 627 54 529 q 409 726 233 726 q 674 627 585 726 q 764 356 764 529 q 674 85 764 183 q 409 -14 585 -14 q 143 85 233 -14 q 54 356 54 183 m 255 356 q 295 173 255 227 q 409 119 334 119 q 523 173 484 119 q 563 356 563 227 q 523 539 563 485 q 409 593 484 593 q 295 539 334 593 q 255 356 255 485 m 319 780 q 305 820 281 780 l 378 941 q 450 973 397 973 l 553 973 q 568 933 604 973 l 456 805 q 388 780 435 780 l 319 780 z "},"ô":{"ha":818,"x_min":54,"x_max":764,"o":"m 54 356 q 143 627 54 529 q 409 726 233 726 q 674 627 585 726 q 764 356 764 529 q 674 85 764 183 q 409 -14 585 -14 q 143 85 233 -14 q 54 356 54 183 m 255 356 q 295 173 255 227 q 409 119 334 119 q 523 173 484 119 q 563 356 563 227 q 523 539 563 485 q 409 593 484 593 q 295 539 334 593 q 255 356 255 485 z "},"õ":{"ha":818,"x_min":54,"x_max":764,"o":"m 54 356 q 143 627 54 529 q 409 726 233 726 q 674 627 585 726 q 764 356 764 529 q 674 85 764 183 q 409 -14 585 -14 q 143 85 233 -14 q 54 356 54 183 m 255 356 q 295 173 255 227 q 409 119 334 119 q 523 173 484 119 q 563 356 563 227 q 523 539 563 485 q 409 593 484 593 q 295 539 334 593 q 255 356 255 485 z "},"ö":{"ha":818,"x_min":54,"x_max":764,"o":"m 54 356 q 143 627 54 529 q 409 726 233 726 q 674 627 585 726 q 764 356 764 529 q 674 85 764 183 q 409 -14 585 -14 q 143 85 233 -14 q 54 356 54 183 m 255 356 q 295 173 255 227 q 409 119 334 119 q 523 173 484 119 q 563 356 563 227 q 523 539 563 485 q 409 593 484 593 q 295 539 334 593 q 255 356 255 485 m 225 818 q 184 859 184 818 l 184 937 q 225 978 184 978 l 304 978 q 345 937 345 978 l 345 859 q 304 818 345 818 l 225 818 m 514 818 q 473 859 473 818 l 473 937 q 514 978 473 978 l 593 978 q 633 937 633 978 l 633 859 q 593 818 633 818 l 514 818 z "},"÷":{"ha":868,"x_min":51,"x_max":817,"o":"m 382 134 q 335 185 335 134 l 335 276 q 382 327 335 327 l 486 327 q 533 276 533 327 l 533 185 q 486 134 533 134 l 382 134 m 382 656 q 335 707 335 656 l 335 798 q 382 849 335 849 l 486 849 q 533 798 533 849 l 533 707 q 486 656 533 656 l 382 656 m 92 429 q 51 463 51 429 l 51 521 q 92 555 51 555 l 777 555 q 817 521 817 555 l 817 463 q 777 429 817 429 l 92 429 z "},"ø":{"ha":818,"x_min":46,"x_max":772,"o":"m 54 356 q 143 627 54 529 q 409 726 233 726 q 609 680 529 726 l 644 718 q 696 726 671 749 l 747 680 q 745 627 772 658 l 707 585 q 764 356 764 494 q 674 85 764 183 q 409 -14 585 -14 q 209 33 289 -14 l 174 -6 q 122 -14 147 -37 l 71 32 q 73 85 46 54 l 111 127 q 54 356 54 218 m 255 356 q 258 290 255 320 l 503 562 q 409 593 466 593 q 295 539 334 593 q 255 356 255 485 m 315 151 q 409 119 352 119 q 523 173 484 119 q 563 356 563 227 q 559 422 563 392 l 315 151 z "},"ù":{"ha":810,"x_min":91,"x_max":718,"o":"m 91 296 l 91 671 q 132 712 91 712 l 240 712 q 281 671 281 712 l 281 345 q 301 158 281 197 q 387 119 321 119 q 492 175 456 119 q 528 404 528 230 l 528 671 q 568 712 528 712 l 677 712 q 718 671 718 712 l 718 41 q 677 0 718 0 l 570 0 q 529 41 529 0 l 529 80 l 526 80 q 447 6 495 26 q 333 -14 399 -14 q 160 53 229 -14 q 91 296 91 119 z "},"ú":{"ha":810,"x_min":91,"x_max":718,"o":"m 91 296 l 91 671 q 132 712 91 712 l 240 712 q 281 671 281 712 l 281 345 q 301 158 281 197 q 387 119 321 119 q 492 175 456 119 q 528 404 528 230 l 528 671 q 568 712 528 712 l 677 712 q 718 671 718 712 l 718 41 q 677 0 718 0 l 570 0 q 529 41 529 0 l 529 80 l 526 80 q 447 6 495 26 q 333 -14 399 -14 q 160 53 229 -14 q 91 296 91 119 z "},"û":{"ha":810,"x_min":91,"x_max":718,"o":"m 91 296 l 91 671 q 132 712 91 712 l 240 712 q 281 671 281 712 l 281 345 q 301 158 281 197 q 387 119 321 119 q 492 175 456 119 q 528 404 528 230 l 528 671 q 568 712 528 712 l 677 712 q 718 671 718 712 l 718 41 q 677 0 718 0 l 570 0 q 529 41 529 0 l 529 80 l 526 80 q 447 6 495 26 q 333 -14 399 -14 q 160 53 229 -14 q 91 296 91 119 z "},"ü":{"ha":810,"x_min":91,"x_max":718,"o":"m 91 296 l 91 671 q 132 712 91 712 l 240 712 q 281 671 281 712 l 281 345 q 301 158 281 197 q 387 119 321 119 q 492 175 456 119 q 528 404 528 230 l 528 671 q 568 712 528 712 l 677 712 q 718 671 718 712 l 718 41 q 677 0 718 0 l 570 0 q 529 41 529 0 l 529 80 l 526 80 q 447 6 495 26 q 333 -14 399 -14 q 160 53 229 -14 q 91 296 91 119 z "},"ý":{"ha":671,"x_min":12,"x_max":671,"o":"m 30 659 q 52 712 12 712 l 174 712 q 214 677 205 712 l 317 298 q 330 230 324 272 q 336 177 336 189 l 340 177 q 352 234 348 213 q 372 317 355 256 l 469 677 q 510 712 479 712 l 631 712 q 654 659 671 712 l 425 -28 q 327 -217 385 -149 q 165 -285 269 -285 q 63 -275 108 -285 q 43 -240 37 -270 l 58 -165 q 93 -145 64 -136 q 132 -152 114 -152 q 216 -100 187 -152 q 254 -10 245 -47 l 256 0 l 30 659 z "},"þ":{"ha":808,"x_min":92,"x_max":754,"o":"m 133 -271 q 92 -231 92 -271 l 92 960 q 133 1001 92 1001 l 241 1001 q 282 960 282 1001 l 282 686 q 279 632 282 659 l 282 632 q 361 708 317 690 q 465 726 404 726 q 689 615 625 726 q 754 356 754 505 q 689 97 754 207 q 465 -14 625 -14 q 361 4 404 -14 q 282 80 317 22 l 279 80 q 282 26 282 53 l 282 -231 q 241 -271 282 -271 l 133 -271 m 282 326 q 318 177 282 234 q 406 119 355 119 q 525 183 497 119 q 553 356 553 248 q 525 529 553 465 q 406 593 497 593 q 318 535 355 593 q 282 387 282 478 l 282 326 z "},"ÿ":{"ha":671,"x_min":12,"x_max":671,"o":"m 30 659 q 52 712 12 712 l 174 712 q 214 677 205 712 l 317 298 q 330 230 324 272 q 336 177 336 189 l 340 177 q 352 234 348 213 q 372 317 355 256 l 469 677 q 510 712 479 712 l 631 712 q 654 659 671 712 l 425 -28 q 327 -217 385 -149 q 165 -285 269 -285 q 63 -275 108 -285 q 43 -240 37 -270 l 58 -165 q 93 -145 64 -136 q 132 -152 114 -152 q 216 -100 187 -152 q 254 -10 245 -47 l 256 0 l 30 659 z "},"Ā":{"ha":945,"x_min":12,"x_max":933,"o":"m 61 0 q 29 45 12 0 l 361 918 q 425 972 382 972 l 520 972 q 584 918 563 972 l 916 45 q 884 0 933 0 l 777 0 q 714 47 732 0 l 645 229 l 300 229 l 231 47 q 169 0 214 0 l 61 0 m 363 397 l 582 397 l 498 613 q 480 668 484 651 q 474 720 477 686 l 471 720 q 465 668 468 686 q 447 613 462 651 l 363 397 z "},"ā":{"ha":762,"x_min":54,"x_max":669,"o":"m 54 190 q 184 387 54 326 q 479 452 313 448 l 479 479 q 448 567 479 541 q 361 593 417 593 q 292 582 322 593 q 240 556 262 570 q 200 526 218 541 q 149 524 169 499 l 92 593 q 102 646 71 618 q 158 682 126 667 q 241 712 189 698 q 377 726 294 726 q 594 661 518 726 q 669 469 669 595 l 669 41 q 629 0 669 0 l 517 0 q 481 41 481 0 l 481 61 l 479 61 q 384 4 439 22 q 281 -14 328 -14 q 112 41 170 -14 q 54 190 54 96 m 255 194 q 264 153 255 170 q 294 127 274 136 q 340 119 315 119 q 407 129 374 119 q 479 174 439 138 l 479 321 q 327 288 366 308 q 272 245 288 267 q 255 194 255 224 z "},"Ă":{"ha":945,"x_min":12,"x_max":933,"o":"m 220 1197 q 234 1246 205 1232 l 276 1265 q 325 1246 304 1278 q 380 1192 342 1219 q 473 1164 418 1164 q 565 1192 527 1164 q 621 1246 603 1219 q 669 1265 642 1278 l 711 1246 q 725 1197 740 1232 q 631 1085 695 1126 q 473 1044 568 1044 q 314 1085 378 1044 q 220 1197 250 1126 m 61 0 q 29 45 12 0 l 361 918 q 425 972 382 972 l 520 972 q 584 918 563 972 l 916 45 q 884 0 933 0 l 777 0 q 714 47 732 0 l 645 229 l 300 229 l 231 47 q 169 0 214 0 l 61 0 m 363 397 l 582 397 l 498 613 q 480 668 484 651 q 474 720 477 686 l 471 720 q 465 668 468 686 q 447 613 462 651 l 363 397 z "},"ă":{"ha":762,"x_min":54,"x_max":669,"o":"m 54 190 q 184 387 54 326 q 479 452 313 448 l 479 479 q 448 567 479 541 q 361 593 417 593 q 292 582 322 593 q 240 556 262 570 q 200 526 218 541 q 149 524 169 499 l 92 593 q 102 646 71 618 q 158 682 126 667 q 241 712 189 698 q 377 726 294 726 q 594 661 518 726 q 669 469 669 595 l 669 41 q 629 0 669 0 l 517 0 q 481 41 481 0 l 481 61 l 479 61 q 384 4 439 22 q 281 -14 328 -14 q 112 41 170 -14 q 54 190 54 96 m 255 194 q 264 153 255 170 q 294 127 274 136 q 340 119 315 119 q 407 129 374 119 q 479 174 439 138 l 479 321 q 327 288 366 308 q 272 245 288 267 q 255 194 255 224 z "},"Ą":{"ha":945,"x_min":12,"x_max":930,"o":"m 61 0 q 29 45 12 0 l 361 918 q 425 972 382 972 l 520 972 q 584 918 563 972 l 916 45 q 897 -4 930 7 q 824 -54 883 -9 q 765 -119 765 -98 q 781 -146 765 -140 q 819 -152 797 -152 q 873 -149 852 -152 q 901 -170 898 -144 l 910 -250 q 887 -279 913 -274 q 796 -285 857 -285 q 653 -255 701 -285 q 605 -168 605 -225 q 612 -121 605 -144 q 641 -70 619 -97 q 710 0 663 -42 q 714 47 726 15 l 645 229 l 300 229 l 231 47 q 169 0 214 0 l 61 0 m 363 397 l 582 397 l 498 613 q 480 668 484 651 q 474 720 477 686 l 471 720 q 465 668 468 686 q 447 613 462 651 l 363 397 z "},"ą":{"ha":762,"x_min":54,"x_max":671,"o":"m 54 190 q 184 387 54 326 q 479 452 313 448 l 479 479 q 448 567 479 541 q 361 593 417 593 q 292 582 322 593 q 240 556 262 570 q 200 526 218 541 q 149 524 169 499 l 92 593 q 102 646 71 618 q 158 682 126 667 q 241 712 189 698 q 377 726 294 726 q 594 661 518 726 q 669 469 669 595 l 669 41 q 644 -7 669 10 q 566 -67 609 -37 q 524 -119 524 -98 q 539 -146 524 -140 q 577 -152 555 -152 q 632 -149 611 -152 q 659 -170 656 -144 l 669 -250 q 646 -279 671 -274 q 555 -285 616 -285 q 411 -255 459 -285 q 363 -168 363 -225 q 370 -120 363 -143 q 405 -64 376 -97 q 469 0 433 -31 q 481 41 481 9 l 481 61 l 479 61 q 384 4 439 22 q 281 -14 328 -14 q 112 41 170 -14 q 54 190 54 96 m 255 194 q 264 153 255 170 q 294 127 274 136 q 340 119 315 119 q 407 129 374 119 q 479 174 439 138 l 479 321 q 327 288 366 308 q 272 245 288 267 q 255 194 255 224 z "},"Ć":{"ha":962,"x_min":58,"x_max":913,"o":"m 58 486 q 177 858 58 720 q 519 996 296 996 q 738 956 648 996 q 864 840 827 916 q 856 772 888 789 l 774 728 q 704 754 732 705 q 638 810 686 785 q 526 836 591 836 q 327 746 384 836 q 270 486 270 656 q 327 227 270 317 q 526 137 384 137 q 655 172 603 137 q 728 237 708 206 q 799 263 762 288 l 880 209 q 887 141 913 186 q 752 25 848 73 q 519 -23 656 -23 q 179 115 299 -23 q 58 486 58 252 z "},"ć":{"ha":736,"x_min":54,"x_max":706,"o":"m 54 356 q 141 627 54 529 q 408 726 228 726 q 571 698 513 726 q 665 616 629 670 q 658 566 686 585 l 586 519 q 532 534 555 498 q 488 572 521 552 q 408 593 456 593 q 293 539 331 593 q 255 356 255 485 q 293 173 255 227 q 408 119 331 119 q 496 142 463 119 q 560 202 530 165 q 614 211 586 233 l 677 161 q 681 102 706 139 q 591 24 654 62 q 408 -14 528 -14 q 141 85 228 -14 q 54 356 54 183 z "},"Ĉ":{"ha":962,"x_min":58,"x_max":913,"o":"m 256 1075 q 283 1122 243 1107 l 448 1189 q 499 1198 470 1198 l 540 1198 q 591 1189 569 1198 l 756 1122 q 783 1075 795 1107 l 769 1041 q 718 1025 756 1009 l 520 1107 l 519 1107 l 321 1025 q 270 1041 283 1009 l 256 1075 m 58 486 q 177 858 58 720 q 519 996 296 996 q 738 956 648 996 q 864 840 827 916 q 856 772 888 789 l 774 728 q 704 754 732 705 q 638 810 686 785 q 526 836 591 836 q 327 746 384 836 q 270 486 270 656 q 327 227 270 317 q 526 137 384 137 q 655 172 603 137 q 728 237 708 206 q 799 263 762 288 l 880 209 q 887 141 913 186 q 752 25 848 73 q 519 -23 656 -23 q 179 115 299 -23 q 58 486 58 252 z "},"ĉ":{"ha":736,"x_min":54,"x_max":706,"o":"m 54 356 q 141 627 54 529 q 408 726 228 726 q 571 698 513 726 q 665 616 629 670 q 658 566 686 585 l 586 519 q 532 534 555 498 q 488 572 521 552 q 408 593 456 593 q 293 539 331 593 q 255 356 255 485 q 293 173 255 227 q 408 119 331 119 q 496 142 463 119 q 560 202 530 165 q 614 211 586 233 l 677 161 q 681 102 706 139 q 591 24 654 62 q 408 -14 528 -14 q 141 85 228 -14 q 54 356 54 183 z "},"Ċ":{"ha":962,"x_min":58,"x_max":913,"o":"m 468 1035 q 420 1086 420 1035 l 420 1163 q 468 1214 420 1214 l 571 1214 q 618 1163 618 1214 l 618 1086 q 571 1035 618 1035 l 468 1035 m 58 486 q 177 858 58 720 q 519 996 296 996 q 738 956 648 996 q 864 840 827 916 q 856 772 888 789 l 774 728 q 704 754 732 705 q 638 810 686 785 q 526 836 591 836 q 327 746 384 836 q 270 486 270 656 q 327 227 270 317 q 526 137 384 137 q 655 172 603 137 q 728 237 708 206 q 799 263 762 288 l 880 209 q 887 141 913 186 q 752 25 848 73 q 519 -23 656 -23 q 179 115 299 -23 q 58 486 58 252 z "},"ċ":{"ha":736,"x_min":54,"x_max":706,"o":"m 54 356 q 141 627 54 529 q 408 726 228 726 q 571 698 513 726 q 665 616 629 670 q 658 566 686 585 l 586 519 q 532 534 555 498 q 488 572 521 552 q 408 593 456 593 q 293 539 331 593 q 255 356 255 485 q 293 173 255 227 q 408 119 331 119 q 496 142 463 119 q 560 202 530 165 q 614 211 586 233 l 677 161 q 681 102 706 139 q 591 24 654 62 q 408 -14 528 -14 q 141 85 228 -14 q 54 356 54 183 z "},"Č":{"ha":962,"x_min":58,"x_max":913,"o":"m 283 1097 q 256 1144 243 1112 l 270 1178 q 321 1194 283 1210 l 519 1112 l 520 1112 l 718 1194 q 769 1178 756 1210 l 783 1144 q 756 1097 795 1112 l 591 1030 q 540 1021 569 1021 l 499 1021 q 448 1030 470 1021 l 283 1097 m 58 486 q 177 858 58 720 q 519 996 296 996 q 738 956 648 996 q 864 840 827 916 q 856 772 888 789 l 774 728 q 704 754 732 705 q 638 810 686 785 q 526 836 591 836 q 327 746 384 836 q 270 486 270 656 q 327 227 270 317 q 526 137 384 137 q 655 172 603 137 q 728 237 708 206 q 799 263 762 288 l 880 209 q 887 141 913 186 q 752 25 848 73 q 519 -23 656 -23 q 179 115 299 -23 q 58 486 58 252 z "},"č":{"ha":736,"x_min":54,"x_max":706,"o":"m 54 356 q 141 627 54 529 q 408 726 228 726 q 571 698 513 726 q 665 616 629 670 q 658 566 686 585 l 586 519 q 532 534 555 498 q 488 572 521 552 q 408 593 456 593 q 293 539 331 593 q 255 356 255 485 q 293 173 255 227 q 408 119 331 119 q 496 142 463 119 q 560 202 530 165 q 614 211 586 233 l 677 161 q 681 102 706 139 q 591 24 654 62 q 408 -14 528 -14 q 141 85 228 -14 q 54 356 54 183 z "},"Ď":{"ha":983,"x_min":109,"x_max":925,"o":"m 249 1097 q 222 1144 210 1112 l 236 1178 q 288 1194 249 1210 l 485 1112 l 486 1112 l 684 1194 q 735 1178 722 1210 l 749 1144 q 722 1097 762 1112 l 557 1030 q 506 1021 535 1021 l 465 1021 q 414 1030 436 1021 l 249 1097 m 156 0 q 109 51 109 0 l 109 922 q 156 972 109 972 l 393 972 q 815 846 705 972 q 925 488 925 720 q 815 127 925 255 q 393 0 705 0 l 156 0 m 307 168 l 380 168 q 652 247 590 168 q 713 488 713 325 q 652 728 713 650 q 380 806 590 806 l 307 806 l 307 168 z "},"ď":{"ha":993,"x_min":54,"x_max":985,"o":"m 786 786 q 773 827 759 798 q 789 878 783 847 q 795 945 795 909 l 795 960 q 836 1001 795 1001 l 944 1001 q 985 960 985 1001 l 985 954 q 964 847 985 892 q 913 770 943 801 q 859 753 886 741 l 786 786 m 54 356 q 119 615 54 505 q 343 726 184 726 q 448 708 404 726 q 526 632 491 690 l 529 632 q 526 686 526 659 l 526 960 q 567 1001 526 1001 l 675 1001 q 716 960 716 1001 l 716 41 q 675 0 716 0 l 568 0 q 532 41 534 0 l 529 80 l 526 80 q 448 4 491 22 q 343 -14 404 -14 q 119 97 184 -14 q 54 356 54 207 m 255 356 q 283 183 255 248 q 403 119 311 119 q 490 177 454 119 q 526 326 526 234 l 526 387 q 490 535 526 478 q 403 593 454 593 q 283 529 311 593 q 255 356 255 465 z "},"Đ":{"ha":1017,"x_min":20,"x_max":959,"o":"m 71 415 q 20 459 20 415 l 20 539 q 71 583 20 583 l 142 583 l 142 922 q 190 972 142 972 l 427 972 q 849 846 739 972 q 959 488 959 720 q 849 127 959 255 q 427 0 739 0 l 190 0 q 142 51 142 0 l 142 415 l 71 415 m 340 168 l 414 168 q 686 247 624 168 q 747 488 747 325 q 686 728 747 650 q 414 806 624 806 l 340 806 l 340 583 l 503 583 q 553 539 553 583 l 553 459 q 503 415 553 415 l 340 415 l 340 168 z "},"đ":{"ha":840,"x_min":54,"x_max":828,"o":"m 54 356 q 119 615 54 505 q 343 726 184 726 q 448 708 404 726 q 526 632 491 690 l 529 632 q 526 686 526 659 l 526 800 l 342 800 q 302 834 302 800 l 302 902 q 342 936 302 936 l 526 936 l 526 960 q 567 1001 526 1001 l 675 1001 q 716 960 716 1001 l 716 936 l 787 936 q 828 902 828 936 l 828 834 q 787 800 828 800 l 716 800 l 716 41 q 675 0 716 0 l 568 0 q 532 41 534 0 l 529 80 l 526 80 q 448 4 491 22 q 343 -14 404 -14 q 119 97 184 -14 q 54 356 54 207 m 255 356 q 283 183 255 248 q 403 119 311 119 q 490 177 454 119 q 526 326 526 234 l 526 387 q 490 535 526 478 q 403 593 454 593 q 283 529 311 593 q 255 356 255 465 z "},"Ē":{"ha":868,"x_min":109,"x_max":810,"o":"m 156 0 q 109 51 109 0 l 109 922 q 156 972 109 972 l 738 972 q 789 928 789 972 l 789 848 q 738 804 789 804 l 307 804 l 307 589 l 702 589 q 753 545 753 589 l 753 465 q 702 420 753 420 l 307 420 l 307 168 l 760 168 q 810 124 810 168 l 810 44 q 760 0 810 0 l 156 0 z "},"ē":{"ha":796,"x_min":54,"x_max":741,"o":"m 54 356 q 140 627 54 528 q 382 726 226 726 q 652 632 564 726 q 741 331 741 538 q 703 290 741 290 l 255 290 q 311 149 266 178 q 414 119 355 119 q 500 134 471 119 q 551 175 530 149 q 608 184 574 205 l 675 143 q 687 85 715 119 q 590 11 646 35 q 414 -14 534 -14 q 137 85 220 -14 q 54 356 54 184 m 256 426 l 551 426 q 514 546 551 499 q 397 592 477 592 q 296 548 334 592 q 256 426 259 503 z "},"Ĕ":{"ha":868,"x_min":109,"x_max":810,"o":"m 208 1197 q 221 1246 193 1232 l 263 1265 q 312 1246 291 1278 q 368 1192 330 1219 q 460 1164 406 1164 q 552 1192 514 1164 q 608 1246 590 1219 q 656 1265 629 1278 l 699 1246 q 712 1197 727 1232 q 618 1085 682 1126 q 460 1044 555 1044 q 301 1085 365 1044 q 208 1197 237 1126 m 156 0 q 109 51 109 0 l 109 922 q 156 972 109 972 l 738 972 q 789 928 789 972 l 789 848 q 738 804 789 804 l 307 804 l 307 589 l 702 589 q 753 545 753 589 l 753 465 q 702 420 753 420 l 307 420 l 307 168 l 760 168 q 810 124 810 168 l 810 44 q 760 0 810 0 l 156 0 z "},"ĕ":{"ha":796,"x_min":54,"x_max":741,"o":"m 54 356 q 140 627 54 528 q 382 726 226 726 q 652 632 564 726 q 741 331 741 538 q 703 290 741 290 l 255 290 q 311 149 266 178 q 414 119 355 119 q 500 134 471 119 q 551 175 530 149 q 608 184 574 205 l 675 143 q 687 85 715 119 q 590 11 646 35 q 414 -14 534 -14 q 137 85 220 -14 q 54 356 54 184 m 256 426 l 551 426 q 514 546 551 499 q 397 592 477 592 q 296 548 334 592 q 256 426 259 503 z "},"Ė":{"ha":868,"x_min":109,"x_max":810,"o":"m 408 1035 q 361 1086 361 1035 l 361 1163 q 408 1214 361 1214 l 511 1214 q 559 1163 559 1214 l 559 1086 q 511 1035 559 1035 l 408 1035 m 156 0 q 109 51 109 0 l 109 922 q 156 972 109 972 l 738 972 q 789 928 789 972 l 789 848 q 738 804 789 804 l 307 804 l 307 589 l 702 589 q 753 545 753 589 l 753 465 q 702 420 753 420 l 307 420 l 307 168 l 760 168 q 810 124 810 168 l 810 44 q 760 0 810 0 l 156 0 z "},"ė":{"ha":796,"x_min":54,"x_max":741,"o":"m 54 356 q 140 627 54 528 q 382 726 226 726 q 652 632 564 726 q 741 331 741 538 q 703 290 741 290 l 255 290 q 311 149 266 178 q 414 119 355 119 q 500 134 471 119 q 551 175 530 149 q 608 184 574 205 l 675 143 q 687 85 715 119 q 590 11 646 35 q 414 -14 534 -14 q 137 85 220 -14 q 54 356 54 184 m 256 426 l 551 426 q 514 546 551 499 q 397 592 477 592 q 296 548 334 592 q 256 426 259 503 z "},"Ę":{"ha":868,"x_min":109,"x_max":810,"o":"m 156 0 q 109 51 109 0 l 109 922 q 156 972 109 972 l 738 972 q 789 928 789 972 l 789 848 q 738 804 789 804 l 307 804 l 307 589 l 702 589 q 753 545 753 589 l 753 465 q 702 420 753 420 l 307 420 l 307 168 l 760 168 q 810 124 810 168 l 810 44 q 760 0 810 0 l 752 0 q 668 -61 718 -23 q 617 -119 617 -98 q 633 -146 617 -140 q 671 -152 650 -152 q 726 -149 705 -152 q 753 -170 750 -144 l 762 -250 q 739 -279 765 -274 q 648 -285 709 -285 q 505 -255 553 -285 q 457 -168 457 -225 q 464 -120 457 -143 q 499 -64 471 -97 q 563 -2 527 -31 l 563 3 q 481 0 522 0 l 156 0 z "},"ę":{"ha":796,"x_min":54,"x_max":741,"o":"m 54 356 q 140 627 54 528 q 382 726 226 726 q 652 632 564 726 q 741 331 741 538 q 703 290 741 290 l 255 290 q 311 149 266 178 q 414 119 355 119 q 500 134 471 119 q 551 175 530 149 q 608 184 574 205 l 675 143 q 687 85 715 119 q 638 39 663 57 q 583 -7 614 22 q 505 -67 548 -37 q 463 -119 463 -98 q 478 -146 463 -140 q 516 -152 494 -152 q 571 -149 550 -152 q 598 -170 595 -144 l 608 -250 q 585 -279 610 -274 q 494 -285 555 -285 q 350 -255 398 -285 q 302 -168 302 -225 q 309 -120 302 -143 q 339 -70 315 -97 q 414 -15 362 -42 l 414 -12 q 400 -14 407 -14 q 137 85 220 -14 q 54 356 54 184 m 256 426 l 551 426 q 514 546 551 499 q 397 592 477 592 q 296 548 334 592 q 256 426 259 503 z "},"Ě":{"ha":868,"x_min":109,"x_max":810,"o":"m 223 1097 q 197 1144 184 1112 l 210 1178 q 262 1194 223 1210 l 459 1112 l 460 1112 l 658 1194 q 709 1178 696 1210 l 723 1144 q 696 1097 736 1112 l 531 1030 q 480 1021 509 1021 l 439 1021 q 389 1030 410 1021 l 223 1097 m 156 0 q 109 51 109 0 l 109 922 q 156 972 109 972 l 738 972 q 789 928 789 972 l 789 848 q 738 804 789 804 l 307 804 l 307 589 l 702 589 q 753 545 753 589 l 753 465 q 702 420 753 420 l 307 420 l 307 168 l 760 168 q 810 124 810 168 l 810 44 q 760 0 810 0 l 156 0 z "},"ě":{"ha":796,"x_min":54,"x_max":741,"o":"m 54 356 q 140 627 54 528 q 382 726 226 726 q 652 632 564 726 q 741 331 741 538 q 703 290 741 290 l 255 290 q 311 149 266 178 q 414 119 355 119 q 500 134 471 119 q 551 175 530 149 q 608 184 574 205 l 675 143 q 687 85 715 119 q 590 11 646 35 q 414 -14 534 -14 q 137 85 220 -14 q 54 356 54 184 m 256 426 l 551 426 q 514 546 551 499 q 397 592 477 592 q 296 548 334 592 q 256 426 259 503 z "},"Ĝ":{"ha":1021,"x_min":58,"x_max":945,"o":"m 263 1075 q 290 1122 250 1107 l 455 1189 q 506 1198 477 1198 l 547 1198 q 597 1189 576 1198 l 763 1122 q 789 1075 802 1107 l 776 1041 q 724 1025 763 1009 l 527 1107 l 526 1107 l 328 1025 q 277 1041 290 1009 l 263 1075 m 58 486 q 180 858 58 720 q 526 996 302 996 q 738 961 661 996 q 873 854 815 926 q 871 785 909 810 l 794 735 q 722 755 760 713 q 641 812 690 789 q 533 836 592 836 q 330 746 391 836 q 270 486 270 656 q 330 227 270 317 q 533 137 391 137 q 652 151 602 137 q 747 201 703 165 l 747 323 l 600 323 q 549 367 549 323 l 549 447 q 600 491 549 491 l 895 491 q 945 447 945 491 l 945 102 q 754 5 850 33 q 526 -23 657 -23 q 182 115 306 -23 q 58 486 58 252 z "},"ĝ":{"ha":808,"x_min":54,"x_max":716,"o":"m 54 356 q 119 615 54 505 q 343 726 184 726 q 448 708 404 726 q 526 632 491 690 l 529 632 l 532 671 q 568 712 534 712 l 675 712 q 716 671 716 712 l 716 7 q 627 -222 716 -159 q 368 -285 537 -285 q 235 -277 296 -285 q 111 -240 174 -270 q 100 -181 79 -224 l 125 -132 q 174 -119 140 -102 q 243 -142 202 -132 q 347 -152 284 -152 q 480 -120 434 -152 q 526 21 526 -87 l 526 33 q 529 87 526 60 l 526 87 q 448 11 491 28 q 343 -7 404 -7 q 119 103 184 -7 q 54 356 54 214 m 255 356 q 283 190 255 254 q 403 126 311 126 q 490 183 454 126 q 526 332 526 241 l 526 387 q 490 535 526 478 q 403 593 454 593 q 283 529 311 593 q 255 356 255 465 z "},"Ğ":{"ha":1021,"x_min":58,"x_max":945,"o":"m 274 1197 q 288 1246 259 1232 l 330 1265 q 378 1246 357 1278 q 434 1192 396 1219 q 526 1164 472 1164 q 618 1192 581 1164 q 674 1246 656 1219 q 723 1265 695 1278 l 765 1246 q 779 1197 793 1232 q 685 1085 749 1126 q 526 1044 621 1044 q 368 1085 431 1044 q 274 1197 304 1126 m 58 486 q 180 858 58 720 q 526 996 302 996 q 738 961 661 996 q 873 854 815 926 q 871 785 909 810 l 794 735 q 722 755 760 713 q 641 812 690 789 q 533 836 592 836 q 330 746 391 836 q 270 486 270 656 q 330 227 270 317 q 533 137 391 137 q 652 151 602 137 q 747 201 703 165 l 747 323 l 600 323 q 549 367 549 323 l 549 447 q 600 491 549 491 l 895 491 q 945 447 945 491 l 945 102 q 754 5 850 33 q 526 -23 657 -23 q 182 115 306 -23 q 58 486 58 252 z "},"ğ":{"ha":808,"x_min":54,"x_max":716,"o":"m 54 356 q 119 615 54 505 q 343 726 184 726 q 448 708 404 726 q 526 632 491 690 l 529 632 l 532 671 q 568 712 534 712 l 675 712 q 716 671 716 712 l 716 7 q 627 -222 716 -159 q 368 -285 537 -285 q 235 -277 296 -285 q 111 -240 174 -270 q 100 -181 79 -224 l 125 -132 q 174 -119 140 -102 q 243 -142 202 -132 q 347 -152 284 -152 q 480 -120 434 -152 q 526 21 526 -87 l 526 33 q 529 87 526 60 l 526 87 q 448 11 491 28 q 343 -7 404 -7 q 119 103 184 -7 q 54 356 54 214 m 255 356 q 283 190 255 254 q 403 126 311 126 q 490 183 454 126 q 526 332 526 241 l 526 387 q 490 535 526 478 q 403 593 454 593 q 283 529 311 593 q 255 356 255 465 z "},"Ġ":{"ha":1021,"x_min":58,"x_max":945,"o":"m 475 1035 q 427 1086 427 1035 l 427 1163 q 475 1214 427 1214 l 578 1214 q 625 1163 625 1214 l 625 1086 q 578 1035 625 1035 l 475 1035 m 58 486 q 180 858 58 720 q 526 996 302 996 q 738 961 661 996 q 873 854 815 926 q 871 785 909 810 l 794 735 q 722 755 760 713 q 641 812 690 789 q 533 836 592 836 q 330 746 391 836 q 270 486 270 656 q 330 227 270 317 q 533 137 391 137 q 652 151 602 137 q 747 201 703 165 l 747 323 l 600 323 q 549 367 549 323 l 549 447 q 600 491 549 491 l 895 491 q 945 447 945 491 l 945 102 q 754 5 850 33 q 526 -23 657 -23 q 182 115 306 -23 q 58 486 58 252 z "},"ġ":{"ha":808,"x_min":54,"x_max":716,"o":"m 54 356 q 119 615 54 505 q 343 726 184 726 q 448 708 404 726 q 526 632 491 690 l 529 632 l 532 671 q 568 712 534 712 l 675 712 q 716 671 716 712 l 716 7 q 627 -222 716 -159 q 368 -285 537 -285 q 235 -277 296 -285 q 111 -240 174 -270 q 100 -181 79 -224 l 125 -132 q 174 -119 140 -102 q 243 -142 202 -132 q 347 -152 284 -152 q 480 -120 434 -152 q 526 21 526 -87 l 526 33 q 529 87 526 60 l 526 87 q 448 11 491 28 q 343 -7 404 -7 q 119 103 184 -7 q 54 356 54 214 m 255 356 q 283 190 255 254 q 403 126 311 126 q 490 183 454 126 q 526 332 526 241 l 526 387 q 490 535 526 478 q 403 593 454 593 q 283 529 311 593 q 255 356 255 465 z "},"Ĥ":{"ha":978,"x_min":109,"x_max":869,"o":"m 226 1075 q 252 1122 213 1107 l 418 1189 q 469 1198 439 1198 l 509 1198 q 560 1189 538 1198 l 726 1122 q 752 1075 765 1107 l 739 1041 q 687 1025 726 1009 l 490 1107 l 488 1107 l 291 1025 q 239 1041 252 1009 l 226 1075 m 156 0 q 109 51 109 0 l 109 922 q 156 972 109 972 l 259 972 q 307 922 307 972 l 307 590 l 671 590 l 671 922 q 719 972 671 972 l 822 972 q 869 922 869 972 l 869 51 q 822 0 869 0 l 719 0 q 671 51 671 0 l 671 422 l 307 422 l 307 51 q 259 0 307 0 l 156 0 z "},"ĥ":{"ha":814,"x_min":92,"x_max":723,"o":"m 133 0 q 92 41 92 0 l 92 960 q 133 1001 92 1001 l 241 1001 q 282 960 282 1001 l 282 686 q 279 632 282 659 l 283 632 q 363 706 315 686 q 479 726 411 726 q 654 659 585 726 q 723 416 723 593 l 723 41 q 682 0 723 0 l 574 0 q 533 41 533 0 l 533 368 q 513 554 533 515 q 425 593 492 593 q 318 537 354 593 q 282 308 282 482 l 282 41 q 241 0 282 0 l 133 0 z "},"ħ":{"ha":836,"x_min":12,"x_max":745,"o":"m 52 800 q 12 834 12 800 l 12 902 q 52 936 12 936 l 114 936 l 114 960 q 155 1001 114 1001 l 263 1001 q 304 960 304 1001 l 304 936 l 536 936 q 577 902 577 936 l 577 834 q 536 800 577 800 l 304 800 l 304 686 q 301 632 304 659 l 305 632 q 385 706 336 686 q 500 726 433 726 q 675 659 606 726 q 745 416 745 593 l 745 41 q 704 0 745 0 l 595 0 q 555 41 555 0 l 555 368 q 534 554 555 515 q 447 593 514 593 q 340 537 376 593 q 304 308 304 482 l 304 41 q 263 0 304 0 l 155 0 q 114 41 114 0 l 114 800 l 52 800 z "},"Ĩ":{"ha":415,"x_min":-73,"x_max":488,"o":"m -50 1074 q -55 1117 -73 1088 q 7 1184 -30 1158 q 111 1211 45 1211 q 222 1179 159 1211 q 313 1148 286 1148 q 358 1160 336 1148 q 391 1188 380 1171 q 432 1203 410 1217 l 465 1183 q 470 1140 488 1169 q 408 1073 445 1099 q 304 1046 370 1046 q 193 1078 254 1046 q 102 1109 132 1109 q 57 1097 79 1109 q 24 1069 35 1086 q -17 1054 5 1040 l -50 1074 m 156 0 q 109 51 109 0 l 109 922 q 156 972 109 972 l 259 972 q 307 922 307 972 l 307 51 q 259 0 307 0 l 156 0 z "},"ĩ":{"ha":374,"x_min":-50,"x_max":425,"o":"m 133 0 q 92 41 92 0 l 92 671 q 133 712 92 712 l 241 712 q 282 671 282 712 l 282 41 q 241 0 282 0 l 133 0 z "},"Ī":{"ha":415,"x_min":-45,"x_max":460,"o":"m 156 0 q 109 51 109 0 l 109 922 q 156 972 109 972 l 259 972 q 307 922 307 972 l 307 51 q 259 0 307 0 l 156 0 z "},"ī":{"ha":374,"x_min":-36,"x_max":410,"o":"m 133 0 q 92 41 92 0 l 92 671 q 133 712 92 712 l 241 712 q 282 671 282 712 l 282 41 q 241 0 282 0 l 133 0 z "},"Ĭ":{"ha":415,"x_min":-60,"x_max":475,"o":"m -45 1197 q -31 1246 -60 1232 l 11 1265 q 60 1246 39 1278 q 115 1192 77 1219 q 208 1164 153 1164 q 300 1192 262 1164 q 355 1246 338 1219 q 404 1265 376 1278 l 446 1246 q 460 1197 475 1232 q 366 1085 430 1126 q 208 1044 302 1044 q 49 1085 113 1044 q -45 1197 -15 1126 m 156 0 q 109 51 109 0 l 109 922 q 156 972 109 972 l 259 972 q 307 922 307 972 l 307 51 q 259 0 307 0 l 156 0 z "},"ĭ":{"ha":374,"x_min":-50,"x_max":424,"o":"m 133 0 q 92 41 92 0 l 92 671 q 133 712 92 712 l 241 712 q 282 671 282 712 l 282 41 q 241 0 282 0 l 133 0 z "},"İ":{"ha":415,"x_min":109,"x_max":307,"o":"m 156 1035 q 109 1086 109 1035 l 109 1163 q 156 1214 109 1214 l 259 1214 q 307 1163 307 1214 l 307 1086 q 259 1035 307 1035 l 156 1035 m 156 0 q 109 51 109 0 l 109 922 q 156 972 109 972 l 259 972 q 307 922 307 972 l 307 51 q 259 0 307 0 l 156 0 z "},"ı":{"ha":374,"x_min":92,"x_max":282,"o":"m 133 0 q 92 41 92 0 l 92 671 q 133 712 92 712 l 241 712 q 282 671 282 712 l 282 41 q 241 0 282 0 l 133 0 z "},"Ĵ":{"ha":642,"x_min":16,"x_max":711,"o":"m 172 1075 q 198 1122 159 1107 l 363 1189 q 414 1198 385 1198 l 455 1198 q 506 1189 484 1198 l 671 1122 q 698 1075 711 1107 l 684 1041 q 633 1025 671 1009 l 435 1107 l 434 1107 l 237 1025 q 185 1041 198 1009 l 172 1075 m 52 13 q 25 64 16 34 l 54 157 q 117 165 66 197 q 216 137 161 137 q 313 189 290 137 q 336 360 336 240 l 336 922 q 383 972 336 972 l 486 972 q 534 922 534 972 l 534 374 q 450 51 534 124 q 218 -23 366 -23 q 52 13 114 -23 z "},"ĵ":{"ha":381,"x_min":-81,"x_max":427,"o":"m -55 -277 q -75 -242 -81 -273 l -60 -168 q -25 -147 -54 -136 q 24 -152 -13 -152 q 83 -107 66 -152 q 99 18 99 -62 l 99 671 q 140 712 99 712 l 248 712 q 289 671 289 712 l 289 -3 q 223 -228 289 -171 q 47 -285 157 -285 q -55 -277 -14 -285 z "},"Ĺ":{"ha":788,"x_min":109,"x_max":753,"o":"m 156 0 q 109 51 109 0 l 109 922 q 156 972 109 972 l 266 972 q 307 922 307 972 l 307 168 l 702 168 q 753 124 753 168 l 753 44 q 702 0 753 0 l 156 0 z "},"ĺ":{"ha":374,"x_min":59,"x_max":382,"o":"m 133 0 q 92 41 92 0 l 92 842 q 106 897 92 872 l 159 989 q 194 1015 174 1015 l 241 1015 q 282 974 282 1015 l 282 41 q 241 0 282 0 l 133 0 z "},"Ľ":{"ha":788,"x_min":109,"x_max":753,"o":"m 444 786 q 431 827 416 798 q 446 878 440 847 q 452 945 452 909 l 452 960 q 493 1001 452 1001 l 602 1001 q 642 960 642 1001 l 642 954 q 621 847 642 892 q 571 770 600 801 q 516 753 544 741 l 444 786 m 156 0 q 109 51 109 0 l 109 922 q 156 972 109 972 l 266 972 q 307 922 307 972 l 307 168 l 702 168 q 753 124 753 168 l 753 44 q 702 0 753 0 l 156 0 z "},"ľ":{"ha":559,"x_min":92,"x_max":551,"o":"m 352 786 q 339 827 325 798 q 355 878 349 847 q 361 945 361 909 l 361 960 q 401 1001 361 1001 l 510 1001 q 551 960 551 1001 l 551 954 q 530 847 551 892 q 479 770 509 801 q 425 753 452 741 l 352 786 m 133 0 q 92 41 92 0 l 92 842 q 106 897 92 872 l 159 989 q 194 1015 174 1015 l 241 1015 q 282 974 282 1015 l 282 41 q 241 0 282 0 l 133 0 z "},"Ł":{"ha":844,"x_min":37,"x_max":808,"o":"m 85 270 q 37 283 37 238 l 37 381 q 71 441 37 418 l 164 503 l 164 922 q 212 972 164 972 l 321 972 q 362 922 362 972 l 362 720 q 359 639 362 680 l 363 639 l 520 744 q 568 730 568 776 l 568 633 q 534 573 568 595 l 362 458 l 362 168 l 758 168 q 808 124 808 168 l 808 44 q 758 0 808 0 l 212 0 q 164 51 164 0 l 164 241 q 168 323 164 282 l 163 323 l 85 270 z "},"ł":{"ha":469,"x_min":24,"x_max":445,"o":"m 62 321 q 24 331 24 293 l 24 427 q 54 479 24 458 l 136 541 l 136 842 q 151 897 136 872 l 203 989 q 238 1015 218 1015 l 286 1015 q 326 974 326 1015 l 326 738 q 323 684 326 711 l 326 684 l 408 743 q 445 732 445 770 l 445 636 q 416 585 445 606 l 326 519 l 326 41 q 286 0 326 0 l 177 0 q 136 41 136 0 l 136 322 q 139 376 136 349 l 136 376 l 62 321 z "},"Ń":{"ha":998,"x_min":109,"x_max":890,"o":"m 156 0 q 109 51 109 0 l 109 922 q 156 972 109 972 l 256 972 q 345 925 315 972 l 690 370 l 695 370 q 692 451 692 410 l 692 922 q 739 972 692 972 l 842 972 q 890 922 890 972 l 890 51 q 842 0 890 0 l 749 0 q 661 47 690 0 l 308 613 l 303 613 q 307 532 307 572 l 307 51 q 259 0 307 0 l 156 0 z "},"ń":{"ha":814,"x_min":92,"x_max":723,"o":"m 133 0 q 92 41 92 0 l 92 671 q 133 712 92 712 l 240 712 q 281 671 281 712 l 281 632 l 283 632 q 363 706 315 686 q 479 726 411 726 q 654 659 585 726 q 723 416 723 593 l 723 41 q 682 0 723 0 l 574 0 q 533 41 533 0 l 533 368 q 513 554 533 515 q 425 593 492 593 q 318 537 354 593 q 282 308 282 482 l 282 41 q 241 0 282 0 l 133 0 z "},"Ň":{"ha":998,"x_min":109,"x_max":890,"o":"m 262 1097 q 236 1144 223 1112 l 250 1178 q 301 1194 262 1210 l 498 1112 l 500 1112 l 697 1194 q 749 1178 736 1210 l 762 1144 q 736 1097 775 1112 l 570 1030 q 519 1021 549 1021 l 479 1021 q 428 1030 450 1021 l 262 1097 m 156 0 q 109 51 109 0 l 109 922 q 156 972 109 972 l 256 972 q 345 925 315 972 l 690 370 l 695 370 q 692 451 692 410 l 692 922 q 739 972 692 972 l 842 972 q 890 922 890 972 l 890 51 q 842 0 890 0 l 749 0 q 661 47 690 0 l 308 613 l 303 613 q 307 532 307 572 l 307 51 q 259 0 307 0 l 156 0 z "},"ň":{"ha":814,"x_min":92,"x_max":723,"o":"m 133 0 q 92 41 92 0 l 92 671 q 133 712 92 712 l 240 712 q 281 671 281 712 l 281 632 l 283 632 q 363 706 315 686 q 479 726 411 726 q 654 659 585 726 q 723 416 723 593 l 723 41 q 682 0 723 0 l 574 0 q 533 41 533 0 l 533 368 q 513 554 533 515 q 425 593 492 593 q 318 537 354 593 q 282 308 282 482 l 282 41 q 241 0 282 0 l 133 0 z "},"Ŋ":{"ha":978,"x_min":109,"x_max":869,"o":"m 156 0 q 109 51 109 0 l 109 922 q 156 972 109 972 l 247 972 q 294 922 290 972 l 303 829 l 308 829 q 416 948 353 900 q 580 996 478 996 q 799 910 728 996 q 869 646 869 825 l 869 24 q 805 -211 869 -136 q 612 -285 741 -285 q 475 -264 534 -285 q 449 -217 440 -252 l 471 -135 q 523 -112 481 -95 q 585 -125 555 -125 q 651 -92 631 -125 q 671 62 671 -60 l 671 586 q 637 774 671 713 q 510 836 602 836 q 366 727 426 836 q 307 425 307 618 l 307 51 q 259 0 307 0 l 156 0 z "},"ŋ":{"ha":814,"x_min":92,"x_max":723,"o":"m 133 0 q 92 41 92 0 l 92 671 q 133 712 92 712 l 240 712 q 281 671 281 712 l 281 632 l 283 632 q 363 706 315 686 q 479 726 411 726 q 654 659 585 726 q 723 416 723 593 l 723 -3 q 657 -228 723 -171 q 481 -285 591 -285 q 379 -277 420 -285 q 359 -242 353 -273 l 374 -168 q 409 -147 380 -136 q 458 -152 421 -152 q 517 -107 500 -152 q 533 18 533 -62 l 533 368 q 513 554 533 515 q 425 593 492 593 q 318 537 354 593 q 282 308 282 482 l 282 41 q 241 0 282 0 l 133 0 z "},"Ō":{"ha":1047,"x_min":58,"x_max":989,"o":"m 58 486 q 179 858 58 720 q 524 996 300 996 q 868 858 747 996 q 989 486 989 720 q 868 115 989 252 q 524 -23 747 -23 q 179 115 300 -23 q 58 486 58 252 m 270 486 q 331 227 270 317 q 524 137 391 137 q 716 227 656 137 q 777 486 777 317 q 716 746 777 656 q 524 836 656 836 q 331 746 391 836 q 270 486 270 656 z "},"ō":{"ha":818,"x_min":54,"x_max":764,"o":"m 54 356 q 143 627 54 529 q 409 726 233 726 q 674 627 585 726 q 764 356 764 529 q 674 85 764 183 q 409 -14 585 -14 q 143 85 233 -14 q 54 356 54 183 m 255 356 q 295 173 255 227 q 409 119 334 119 q 523 173 484 119 q 563 356 563 227 q 523 539 563 485 q 409 593 484 593 q 295 539 334 593 q 255 356 255 485 z "},"Ŏ":{"ha":1047,"x_min":58,"x_max":989,"o":"m 271 1197 q 285 1246 256 1232 l 327 1265 q 376 1246 355 1278 q 431 1192 393 1219 q 524 1164 469 1164 q 616 1192 578 1164 q 671 1246 654 1219 q 720 1265 692 1278 l 762 1246 q 776 1197 791 1232 q 682 1085 746 1126 q 524 1044 618 1044 q 365 1085 429 1044 q 271 1197 301 1126 m 58 486 q 179 858 58 720 q 524 996 300 996 q 868 858 747 996 q 989 486 989 720 q 868 115 989 252 q 524 -23 747 -23 q 179 115 300 -23 q 58 486 58 252 m 270 486 q 331 227 270 317 q 524 137 391 137 q 716 227 656 137 q 777 486 777 317 q 716 746 777 656 q 524 836 656 836 q 331 746 391 836 q 270 486 270 656 z "},"ŏ":{"ha":818,"x_min":54,"x_max":764,"o":"m 54 356 q 143 627 54 529 q 409 726 233 726 q 674 627 585 726 q 764 356 764 529 q 674 85 764 183 q 409 -14 585 -14 q 143 85 233 -14 q 54 356 54 183 m 255 356 q 295 173 255 227 q 409 119 334 119 q 523 173 484 119 q 563 356 563 227 q 523 539 563 485 q 409 593 484 593 q 295 539 334 593 q 255 356 255 485 z "},"Ő":{"ha":1047,"x_min":58,"x_max":989,"o":"m 311 1044 q 296 1088 267 1044 l 359 1180 q 430 1211 379 1211 l 531 1211 q 549 1171 590 1211 l 444 1070 q 380 1044 417 1044 l 311 1044 m 595 1044 q 581 1088 552 1044 l 644 1180 q 715 1211 664 1211 l 816 1211 q 833 1171 875 1211 l 729 1070 q 665 1044 702 1044 l 595 1044 m 58 486 q 179 858 58 720 q 524 996 300 996 q 868 858 747 996 q 989 486 989 720 q 868 115 989 252 q 524 -23 747 -23 q 179 115 300 -23 q 58 486 58 252 m 270 486 q 331 227 270 317 q 524 137 391 137 q 716 227 656 137 q 777 486 777 317 q 716 746 777 656 q 524 836 656 836 q 331 746 391 836 q 270 486 270 656 z "},"ő":{"ha":818,"x_min":54,"x_max":764,"o":"m 54 356 q 143 627 54 529 q 409 726 233 726 q 674 627 585 726 q 764 356 764 529 q 674 85 764 183 q 409 -14 585 -14 q 143 85 233 -14 q 54 356 54 183 m 255 356 q 295 173 255 227 q 409 119 334 119 q 523 173 484 119 q 563 356 563 227 q 523 539 563 485 q 409 593 484 593 q 295 539 334 593 q 255 356 255 485 m 251 780 q 233 826 216 780 l 277 939 q 342 973 290 973 l 430 973 q 436 926 467 973 l 357 808 q 294 780 338 780 l 251 780 m 482 780 q 465 826 447 780 l 508 939 q 574 973 522 973 l 661 973 q 667 926 699 973 l 589 808 q 526 780 570 780 l 482 780 z "},"Ŕ":{"ha":968,"x_min":109,"x_max":935,"o":"m 156 0 q 109 51 109 0 l 109 922 q 156 972 109 972 l 470 972 q 776 908 680 972 q 872 697 872 843 q 794 524 872 589 q 596 439 716 460 l 596 437 q 694 370 661 413 q 749 294 728 326 l 898 58 q 872 0 935 0 l 754 0 q 693 40 717 0 l 556 269 q 474 349 534 305 q 357 393 415 393 l 307 393 l 307 51 q 259 0 307 0 l 156 0 m 307 561 l 428 561 q 621 592 564 561 q 678 690 678 623 q 623 785 678 763 q 460 807 568 807 l 307 807 l 307 561 z "},"ŕ":{"ha":533,"x_min":92,"x_max":528,"o":"m 133 0 q 92 41 92 0 l 92 671 q 133 712 92 712 l 240 712 q 281 671 281 712 l 281 616 l 283 616 q 342 692 301 659 q 440 726 384 726 q 504 716 479 726 q 522 684 528 707 l 503 603 q 467 587 497 576 q 433 593 449 593 q 325 515 368 593 q 282 288 282 437 l 282 41 q 241 0 282 0 l 133 0 z "},"Ř":{"ha":968,"x_min":109,"x_max":935,"o":"m 208 1097 q 182 1144 169 1112 l 195 1178 q 247 1194 208 1210 l 444 1112 l 446 1112 l 643 1194 q 694 1178 682 1210 l 708 1144 q 682 1097 721 1112 l 516 1030 q 465 1021 494 1021 l 425 1021 q 374 1030 395 1021 l 208 1097 m 156 0 q 109 51 109 0 l 109 922 q 156 972 109 972 l 470 972 q 776 908 680 972 q 872 697 872 843 q 794 524 872 589 q 596 439 716 460 l 596 437 q 694 370 661 413 q 749 294 728 326 l 898 58 q 872 0 935 0 l 754 0 q 693 40 717 0 l 556 269 q 474 349 534 305 q 357 393 415 393 l 307 393 l 307 51 q 259 0 307 0 l 156 0 m 307 561 l 428 561 q 621 592 564 561 q 678 690 678 623 q 623 785 678 763 q 460 807 568 807 l 307 807 l 307 561 z "},"ř":{"ha":533,"x_min":83,"x_max":549,"o":"m 133 0 q 92 41 92 0 l 92 671 q 133 712 92 712 l 240 712 q 281 671 281 712 l 281 616 l 283 616 q 342 692 301 659 q 440 726 384 726 q 504 716 479 726 q 522 684 528 707 l 503 603 q 467 587 497 576 q 433 593 449 593 q 325 515 368 593 q 282 288 282 437 l 282 41 q 241 0 282 0 l 133 0 z "},"Ś":{"ha":887,"x_min":56,"x_max":818,"o":"m 98 73 q 78 137 56 104 l 130 216 q 205 220 156 254 q 305 165 243 193 q 434 137 366 137 q 526 148 481 137 q 593 190 570 159 q 616 264 616 221 q 606 317 616 294 q 572 355 595 340 q 525 380 549 370 q 417 415 482 398 q 290 457 353 433 q 186 517 233 479 q 114 602 140 555 q 88 729 88 650 q 149 890 88 823 q 290 977 210 958 q 450 996 369 996 q 615 971 530 996 q 743 910 700 947 q 764 845 786 874 l 709 771 q 635 765 682 733 q 553 810 605 785 q 445 836 501 836 q 371 829 405 836 q 312 796 338 822 q 286 732 286 770 q 305 673 286 696 q 347 639 324 650 q 394 621 370 628 q 525 579 467 597 q 631 539 583 561 q 735 478 699 509 q 794 395 771 448 q 818 269 818 342 q 749 89 818 160 q 595 -2 680 18 q 431 -23 511 -23 q 239 0 313 -23 q 98 73 165 22 z "},"ś":{"ha":682,"x_min":30,"x_max":633,"o":"m 63 47 q 45 98 30 71 l 79 161 q 136 170 98 195 q 228 132 175 144 q 323 119 280 119 q 380 125 354 119 q 425 149 407 132 q 444 201 444 167 q 433 235 444 221 q 405 257 422 250 q 369 269 388 264 q 297 290 344 275 q 206 323 250 304 q 136 367 170 338 q 86 429 102 395 q 70 515 70 464 q 110 635 70 583 q 212 706 149 686 q 370 726 275 726 q 494 707 433 726 q 580 673 554 689 q 600 618 621 647 l 559 557 q 498 553 540 530 q 435 582 466 571 q 366 593 404 593 q 317 587 340 593 q 276 567 293 582 q 260 528 260 552 q 275 487 260 502 q 310 466 290 473 q 349 453 330 459 q 425 430 387 441 q 504 403 464 418 q 571 364 538 389 q 618 300 604 339 q 633 212 633 262 q 594 90 633 146 q 490 10 555 34 q 340 -14 426 -14 q 178 0 245 -14 q 63 47 111 14 z "},"Ŝ":{"ha":887,"x_min":56,"x_max":818,"o":"m 186 1075 q 213 1122 174 1107 l 378 1189 q 429 1198 400 1198 l 470 1198 q 521 1189 499 1198 l 686 1122 q 713 1075 726 1107 l 699 1041 q 648 1025 686 1009 l 450 1107 l 449 1107 l 252 1025 q 200 1041 213 1009 l 186 1075 m 98 73 q 78 137 56 104 l 130 216 q 205 220 156 254 q 305 165 243 193 q 434 137 366 137 q 526 148 481 137 q 593 190 570 159 q 616 264 616 221 q 606 317 616 294 q 572 355 595 340 q 525 380 549 370 q 417 415 482 398 q 290 457 353 433 q 186 517 233 479 q 114 602 140 555 q 88 729 88 650 q 149 890 88 823 q 290 977 210 958 q 450 996 369 996 q 615 971 530 996 q 743 910 700 947 q 764 845 786 874 l 709 771 q 635 765 682 733 q 553 810 605 785 q 445 836 501 836 q 371 829 405 836 q 312 796 338 822 q 286 732 286 770 q 305 673 286 696 q 347 639 324 650 q 394 621 370 628 q 525 579 467 597 q 631 539 583 561 q 735 478 699 509 q 794 395 771 448 q 818 269 818 342 q 749 89 818 160 q 595 -2 680 18 q 431 -23 511 -23 q 239 0 313 -23 q 98 73 165 22 z "},"ŝ":{"ha":682,"x_min":30,"x_max":633,"o":"m 63 47 q 45 98 30 71 l 79 161 q 136 170 98 195 q 228 132 175 144 q 323 119 280 119 q 380 125 354 119 q 425 149 407 132 q 444 201 444 167 q 433 235 444 221 q 405 257 422 250 q 369 269 388 264 q 297 290 344 275 q 206 323 250 304 q 136 367 170 338 q 86 429 102 395 q 70 515 70 464 q 110 635 70 583 q 212 706 149 686 q 370 726 275 726 q 494 707 433 726 q 580 673 554 689 q 600 618 621 647 l 559 557 q 498 553 540 530 q 435 582 466 571 q 366 593 404 593 q 317 587 340 593 q 276 567 293 582 q 260 528 260 552 q 275 487 260 502 q 310 466 290 473 q 349 453 330 459 q 425 430 387 441 q 504 403 464 418 q 571 364 538 389 q 618 300 604 339 q 633 212 633 262 q 594 90 633 146 q 490 10 555 34 q 340 -14 426 -14 q 178 0 245 -14 q 63 47 111 14 z "},"Š":{"ha":887,"x_min":56,"x_max":818,"o":"m 213 1097 q 186 1144 174 1112 l 200 1178 q 252 1194 213 1210 l 449 1112 l 450 1112 l 648 1194 q 699 1178 686 1210 l 713 1144 q 686 1097 726 1112 l 521 1030 q 470 1021 499 1021 l 429 1021 q 378 1030 400 1021 l 213 1097 m 98 73 q 78 137 56 104 l 130 216 q 205 220 156 254 q 305 165 243 193 q 434 137 366 137 q 526 148 481 137 q 593 190 570 159 q 616 264 616 221 q 606 317 616 294 q 572 355 595 340 q 525 380 549 370 q 417 415 482 398 q 290 457 353 433 q 186 517 233 479 q 114 602 140 555 q 88 729 88 650 q 149 890 88 823 q 290 977 210 958 q 450 996 369 996 q 615 971 530 996 q 743 910 700 947 q 764 845 786 874 l 709 771 q 635 765 682 733 q 553 810 605 785 q 445 836 501 836 q 371 829 405 836 q 312 796 338 822 q 286 732 286 770 q 305 673 286 696 q 347 639 324 650 q 394 621 370 628 q 525 579 467 597 q 631 539 583 561 q 735 478 699 509 q 794 395 771 448 q 818 269 818 342 q 749 89 818 160 q 595 -2 680 18 q 431 -23 511 -23 q 239 0 313 -23 q 98 73 165 22 z "},"š":{"ha":682,"x_min":30,"x_max":633,"o":"m 63 47 q 45 98 30 71 l 79 161 q 136 170 98 195 q 228 132 175 144 q 323 119 280 119 q 380 125 354 119 q 425 149 407 132 q 444 201 444 167 q 433 235 444 221 q 405 257 422 250 q 369 269 388 264 q 297 290 344 275 q 206 323 250 304 q 136 367 170 338 q 86 429 102 395 q 70 515 70 464 q 110 635 70 583 q 212 706 149 686 q 370 726 275 726 q 494 707 433 726 q 580 673 554 689 q 600 618 621 647 l 559 557 q 498 553 540 530 q 435 582 466 571 q 366 593 404 593 q 317 587 340 593 q 276 567 293 582 q 260 528 260 552 q 275 487 260 502 q 310 466 290 473 q 349 453 330 459 q 425 430 387 441 q 504 403 464 418 q 571 364 538 389 q 618 300 604 339 q 633 212 633 262 q 594 90 633 146 q 490 10 555 34 q 340 -14 426 -14 q 178 0 245 -14 q 63 47 111 14 z "},"Ť":{"ha":845,"x_min":23,"x_max":822,"o":"m 186 1097 q 159 1144 146 1112 l 173 1178 q 224 1194 186 1210 l 422 1112 l 423 1112 l 621 1194 q 672 1178 659 1210 l 686 1144 q 659 1097 699 1112 l 494 1030 q 443 1021 472 1021 l 402 1021 q 351 1030 373 1021 l 186 1097 m 74 799 q 23 843 23 799 l 23 928 q 74 972 23 972 l 771 972 q 822 928 822 972 l 822 843 q 771 799 822 799 l 522 799 l 522 37 q 488 0 522 0 l 357 0 q 323 37 323 0 l 323 799 l 74 799 z "},"ť":{"ha":582,"x_min":28,"x_max":574,"o":"m 375 786 q 362 827 348 798 q 378 878 372 847 q 384 945 384 909 l 384 960 q 425 1001 384 1001 l 533 1001 q 574 960 574 1001 l 574 954 q 553 847 574 892 q 503 770 532 801 q 448 753 475 741 l 375 786 m 68 576 q 28 610 28 576 l 28 678 q 68 712 28 712 l 115 712 l 115 736 q 129 791 115 766 l 181 883 q 216 909 196 909 l 264 909 q 304 868 304 909 l 304 712 l 414 712 q 454 678 454 712 l 454 610 q 414 576 454 576 l 304 576 l 304 240 q 314 141 304 171 q 366 111 324 111 q 413 118 387 111 q 454 132 439 125 q 486 116 478 142 l 506 39 q 488 5 512 16 q 427 -14 466 -5 q 349 -22 388 -22 q 183 18 252 -22 q 115 182 115 58 l 115 576 l 68 576 z "},"Ũ":{"ha":964,"x_min":109,"x_max":856,"o":"m 225 1074 q 220 1117 202 1088 q 282 1184 245 1158 q 386 1211 319 1211 q 497 1179 433 1211 q 587 1148 561 1148 q 633 1160 611 1148 q 666 1188 655 1171 q 707 1203 684 1217 l 739 1183 q 745 1140 762 1169 q 682 1073 720 1099 q 578 1046 645 1046 q 467 1078 528 1046 q 377 1109 406 1109 q 331 1097 353 1109 q 298 1069 309 1086 q 258 1054 280 1040 l 225 1074 m 109 405 l 109 935 q 156 972 109 972 l 259 972 q 307 935 307 972 l 307 412 q 360 183 307 229 q 482 137 414 137 q 604 183 550 137 q 658 412 658 229 l 658 935 q 705 972 658 972 l 808 972 q 856 935 856 972 l 856 405 q 755 72 856 168 q 482 -23 655 -23 q 209 72 309 -23 q 109 405 109 168 z "},"ũ":{"ha":810,"x_min":91,"x_max":718,"o":"m 91 296 l 91 671 q 132 712 91 712 l 240 712 q 281 671 281 712 l 281 345 q 301 158 281 197 q 387 119 321 119 q 492 175 456 119 q 528 404 528 230 l 528 671 q 568 712 528 712 l 677 712 q 718 671 718 712 l 718 41 q 677 0 718 0 l 570 0 q 529 41 529 0 l 529 80 l 526 80 q 447 6 495 26 q 333 -14 399 -14 q 160 53 229 -14 q 91 296 91 119 z "},"Ū":{"ha":964,"x_min":109,"x_max":856,"o":"m 109 405 l 109 935 q 156 972 109 972 l 259 972 q 307 935 307 972 l 307 412 q 360 183 307 229 q 482 137 414 137 q 604 183 550 137 q 658 412 658 229 l 658 935 q 705 972 658 972 l 808 972 q 856 935 856 972 l 856 405 q 755 72 856 168 q 482 -23 655 -23 q 209 72 309 -23 q 109 405 109 168 z "},"ū":{"ha":810,"x_min":91,"x_max":718,"o":"m 91 296 l 91 671 q 132 712 91 712 l 240 712 q 281 671 281 712 l 281 345 q 301 158 281 197 q 387 119 321 119 q 492 175 456 119 q 528 404 528 230 l 528 671 q 568 712 528 712 l 677 712 q 718 671 718 712 l 718 41 q 677 0 718 0 l 570 0 q 529 41 529 0 l 529 80 l 526 80 q 447 6 495 26 q 333 -14 399 -14 q 160 53 229 -14 q 91 296 91 119 z "},"Ŭ":{"ha":964,"x_min":109,"x_max":856,"o":"m 230 1197 q 243 1246 215 1232 l 286 1265 q 334 1246 313 1278 q 390 1192 352 1219 q 482 1164 428 1164 q 574 1192 536 1164 q 630 1246 612 1219 q 679 1265 651 1278 l 721 1246 q 734 1197 749 1232 q 641 1085 705 1126 q 482 1044 577 1044 q 323 1085 387 1044 q 230 1197 260 1126 m 109 405 l 109 935 q 156 972 109 972 l 259 972 q 307 935 307 972 l 307 412 q 360 183 307 229 q 482 137 414 137 q 604 183 550 137 q 658 412 658 229 l 658 935 q 705 972 658 972 l 808 972 q 856 935 856 972 l 856 405 q 755 72 856 168 q 482 -23 655 -23 q 209 72 309 -23 q 109 405 109 168 z "},"ŭ":{"ha":810,"x_min":91,"x_max":718,"o":"m 91 296 l 91 671 q 132 712 91 712 l 240 712 q 281 671 281 712 l 281 345 q 301 158 281 197 q 387 119 321 119 q 492 175 456 119 q 528 404 528 230 l 528 671 q 568 712 528 712 l 677 712 q 718 671 718 712 l 718 41 q 677 0 718 0 l 570 0 q 529 41 529 0 l 529 80 l 526 80 q 447 6 495 26 q 333 -14 399 -14 q 160 53 229 -14 q 91 296 91 119 z "},"Ů":{"ha":964,"x_min":109,"x_max":856,"o":"m 355 1158 q 392 1244 355 1210 q 482 1278 428 1278 q 573 1243 536 1278 q 609 1158 609 1208 q 573 1072 609 1107 q 482 1037 536 1037 q 392 1071 428 1037 q 355 1158 355 1105 m 418 1158 q 436 1114 418 1132 q 482 1097 454 1097 q 529 1114 511 1097 q 547 1158 547 1132 q 529 1201 547 1183 q 482 1219 511 1219 q 436 1201 454 1219 q 418 1158 418 1183 m 109 405 l 109 935 q 156 972 109 972 l 259 972 q 307 935 307 972 l 307 412 q 360 183 307 229 q 482 137 414 137 q 604 183 550 137 q 658 412 658 229 l 658 935 q 705 972 658 972 l 808 972 q 856 935 856 972 l 856 405 q 755 72 856 168 q 482 -23 655 -23 q 209 72 309 -23 q 109 405 109 168 z "},"ů":{"ha":810,"x_min":91,"x_max":718,"o":"m 91 296 l 91 671 q 132 712 91 712 l 240 712 q 281 671 281 712 l 281 345 q 301 158 281 197 q 387 119 321 119 q 492 175 456 119 q 528 404 528 230 l 528 671 q 568 712 528 712 l 677 712 q 718 671 718 712 l 718 41 q 677 0 718 0 l 570 0 q 529 41 529 0 l 529 80 l 526 80 q 447 6 495 26 q 333 -14 399 -14 q 160 53 229 -14 q 91 296 91 119 z "},"Ű":{"ha":964,"x_min":109,"x_max":856,"o":"m 269 1044 q 255 1088 226 1044 l 317 1180 q 389 1211 338 1211 l 490 1211 q 507 1171 549 1211 l 403 1070 q 339 1044 376 1044 l 269 1044 m 554 1044 q 540 1088 511 1044 l 602 1180 q 673 1211 623 1211 l 774 1211 q 792 1171 833 1211 l 688 1070 q 624 1044 661 1044 l 554 1044 m 109 405 l 109 935 q 156 972 109 972 l 259 972 q 307 935 307 972 l 307 412 q 360 183 307 229 q 482 137 414 137 q 604 183 550 137 q 658 412 658 229 l 658 935 q 705 972 658 972 l 808 972 q 856 935 856 972 l 856 405 q 755 72 856 168 q 482 -23 655 -23 q 209 72 309 -23 q 109 405 109 168 z "},"ű":{"ha":810,"x_min":91,"x_max":718,"o":"m 91 296 l 91 671 q 132 712 91 712 l 240 712 q 281 671 281 712 l 281 345 q 301 158 281 197 q 387 119 321 119 q 492 175 456 119 q 528 404 528 230 l 528 671 q 568 712 528 712 l 677 712 q 718 671 718 712 l 718 41 q 677 0 718 0 l 570 0 q 529 41 529 0 l 529 80 l 526 80 q 447 6 495 26 q 333 -14 399 -14 q 160 53 229 -14 q 91 296 91 119 z "},"Ŵ":{"ha":1371,"x_min":16,"x_max":1356,"o":"m 422 1075 q 448 1122 409 1107 l 614 1189 q 665 1198 635 1198 l 705 1198 q 756 1189 734 1198 l 922 1122 q 948 1075 961 1107 l 935 1041 q 883 1025 922 1009 l 686 1107 l 684 1107 l 487 1025 q 435 1041 448 1009 l 422 1075 m 31 918 q 62 972 16 972 l 187 972 q 230 928 219 972 l 359 395 q 377 315 373 336 q 385 246 382 294 l 389 246 q 395 318 392 294 q 415 399 399 342 l 566 922 q 623 972 581 972 l 748 972 q 805 922 791 972 l 956 399 q 976 318 972 342 q 983 246 979 294 l 986 246 q 994 315 989 294 q 1013 395 998 336 l 1141 928 q 1184 972 1152 972 l 1310 972 q 1341 918 1356 972 l 1110 66 q 1046 0 1093 0 l 928 0 q 870 65 888 0 l 707 633 q 692 693 694 680 q 686 745 690 707 l 685 745 q 680 693 682 707 q 664 633 677 680 l 501 65 q 444 0 483 0 l 325 0 q 261 66 279 0 l 31 918 z "},"ŵ":{"ha":1088,"x_min":14,"x_max":1074,"o":"m 28 659 q 51 712 14 712 l 165 712 q 206 677 198 712 l 298 280 q 312 214 306 245 q 319 161 318 182 l 323 161 q 331 215 325 182 q 345 280 337 248 l 441 677 q 482 712 450 712 l 606 712 q 646 677 638 712 l 743 280 q 757 215 751 248 q 764 161 763 182 l 768 161 q 776 214 770 182 q 790 280 782 245 l 882 677 q 922 712 890 712 l 1037 712 q 1059 659 1074 712 l 883 45 q 833 0 870 0 l 711 0 q 661 45 672 0 l 563 448 q 550 503 554 482 q 545 550 547 524 l 543 550 q 537 503 541 524 q 525 448 534 482 l 427 45 q 377 0 416 0 l 254 0 q 205 45 218 0 l 28 659 z "},"Ŷ":{"ha":928,"x_min":0,"x_max":928,"o":"m 201 1075 q 227 1122 188 1107 l 393 1189 q 444 1198 414 1198 l 484 1198 q 535 1189 513 1198 l 701 1122 q 727 1075 740 1107 l 713 1041 q 662 1025 701 1009 l 465 1107 l 463 1107 l 266 1025 q 214 1041 227 1009 l 201 1075 m 35 914 q 66 972 0 972 l 185 972 q 248 926 220 972 l 392 674 q 428 611 398 664 q 463 507 458 557 l 465 507 q 500 611 470 557 q 536 674 530 664 l 680 926 q 743 972 707 972 l 861 972 q 893 914 928 972 l 563 356 l 563 37 q 515 0 563 0 l 412 0 q 365 37 365 0 l 365 356 l 35 914 z "},"ŷ":{"ha":671,"x_min":12,"x_max":671,"o":"m 30 659 q 52 712 12 712 l 174 712 q 214 677 205 712 l 317 298 q 330 230 324 272 q 336 177 336 189 l 340 177 q 352 234 348 213 q 372 317 355 256 l 469 677 q 510 712 479 712 l 631 712 q 654 659 671 712 l 425 -28 q 327 -217 385 -149 q 165 -285 269 -285 q 63 -275 108 -285 q 43 -240 37 -270 l 58 -165 q 93 -145 64 -136 q 132 -152 114 -152 q 216 -100 187 -152 q 254 -10 245 -47 l 256 0 l 30 659 z "},"Ÿ":{"ha":928,"x_min":0,"x_max":928,"o":"m 240 1038 q 193 1088 193 1038 l 193 1160 q 240 1211 193 1211 l 343 1211 q 391 1160 391 1211 l 391 1088 q 343 1038 391 1038 l 240 1038 m 585 1038 q 537 1088 537 1038 l 537 1160 q 585 1211 537 1211 l 688 1211 q 735 1160 735 1211 l 735 1088 q 688 1038 735 1038 l 585 1038 m 35 914 q 66 972 0 972 l 185 972 q 248 926 220 972 l 392 674 q 428 611 398 664 q 463 507 458 557 l 465 507 q 500 611 470 557 q 536 674 530 664 l 680 926 q 743 972 707 972 l 861 972 q 893 914 928 972 l 563 356 l 563 37 q 515 0 563 0 l 412 0 q 365 37 365 0 l 365 356 l 35 914 z "},"Ź":{"ha":849,"x_min":41,"x_max":808,"o":"m 92 0 q 41 44 41 0 l 41 100 q 76 194 41 146 l 517 803 l 517 808 q 435 804 476 804 l 119 804 q 68 848 68 804 l 68 928 q 119 972 68 972 l 738 972 q 789 928 789 972 l 789 883 q 765 814 789 847 l 297 170 l 297 165 q 378 168 338 168 l 757 168 q 808 124 808 168 l 808 44 q 757 0 808 0 l 92 0 z "},"ź":{"ha":654,"x_min":35,"x_max":618,"o":"m 76 0 q 35 34 35 0 l 35 85 q 63 159 35 121 l 367 576 l 367 579 q 313 576 340 576 l 92 576 q 52 610 52 576 l 52 632 q 92 712 52 712 l 562 712 q 602 678 602 712 l 602 631 q 573 557 602 597 l 267 136 l 267 133 q 321 136 303 136 l 578 136 q 618 102 618 136 l 618 34 q 578 0 618 0 l 76 0 z "},"Ż":{"ha":849,"x_min":41,"x_max":808,"o":"m 373 1035 q 326 1086 326 1035 l 326 1163 q 373 1214 326 1214 l 476 1214 q 524 1163 524 1214 l 524 1086 q 476 1035 524 1035 l 373 1035 m 92 0 q 41 44 41 0 l 41 100 q 76 194 41 146 l 517 803 l 517 808 q 435 804 476 804 l 119 804 q 68 848 68 804 l 68 928 q 119 972 68 972 l 738 972 q 789 928 789 972 l 789 883 q 765 814 789 847 l 297 170 l 297 165 q 378 168 338 168 l 757 168 q 808 124 808 168 l 808 44 q 757 0 808 0 l 92 0 z "},"ż":{"ha":654,"x_min":35,"x_max":618,"o":"m 76 0 q 35 34 35 0 l 35 85 q 63 159 35 121 l 367 576 l 367 579 q 313 576 340 576 l 92 576 q 52 610 52 576 l 52 632 q 92 712 52 712 l 562 712 q 602 678 602 712 l 602 631 q 573 557 602 597 l 267 136 l 267 133 q 321 136 303 136 l 578 136 q 618 102 618 136 l 618 34 q 578 0 618 0 l 76 0 z "},"Ž":{"ha":849,"x_min":41,"x_max":808,"o":"m 188 1097 q 161 1144 149 1112 l 175 1178 q 227 1194 188 1210 l 424 1112 l 425 1112 l 623 1194 q 674 1178 661 1210 l 688 1144 q 661 1097 701 1112 l 496 1030 q 445 1021 474 1021 l 404 1021 q 353 1030 375 1021 l 188 1097 m 92 0 q 41 44 41 0 l 41 100 q 76 194 41 146 l 517 803 l 517 808 q 435 804 476 804 l 119 804 q 68 848 68 804 l 68 928 q 119 972 68 972 l 738 972 q 789 928 789 972 l 789 883 q 765 814 789 847 l 297 170 l 297 165 q 378 168 338 168 l 757 168 q 808 124 808 168 l 808 44 q 757 0 808 0 l 92 0 z "},"ž":{"ha":654,"x_min":35,"x_max":618,"o":"m 76 0 q 35 34 35 0 l 35 85 q 63 159 35 121 l 367 576 l 367 579 q 313 576 340 576 l 92 576 q 52 610 52 576 l 52 632 q 92 712 52 712 l 562 712 q 602 678 602 712 l 602 631 q 573 557 602 597 l 267 136 l 267 133 q 321 136 303 136 l 578 136 q 618 102 618 136 l 618 34 q 578 0 618 0 l 76 0 z "},"ſ":{"ha":442,"x_min":92,"x_max":491,"o":"m 133 0 q 92 41 92 0 l 92 807 q 164 973 92 932 q 335 1015 237 1015 q 411 1009 382 1015 q 467 996 441 1004 q 484 962 491 987 l 464 885 q 433 871 458 863 q 395 879 418 877 q 357 882 372 882 q 295 855 307 882 q 282 739 282 829 l 282 41 q 241 0 282 0 l 133 0 z "},"Ɔ":{"ha":962,"x_min":48,"x_max":903,"o":"m 75 831 q 210 947 114 899 q 442 996 305 996 q 783 858 663 996 q 903 486 903 720 q 785 115 903 252 q 442 -23 666 -23 q 224 17 313 -23 q 98 133 134 57 q 106 201 73 183 l 187 244 q 258 218 230 267 q 323 162 275 187 q 435 137 371 137 q 635 227 578 137 q 692 486 692 317 q 635 746 692 656 q 435 836 578 836 q 306 801 359 836 q 233 735 254 766 q 163 709 200 684 l 81 764 q 75 831 48 786 z "},"Ɖ":{"ha":1017,"x_min":20,"x_max":959,"o":"m 71 415 q 20 459 20 415 l 20 539 q 71 583 20 583 l 142 583 l 142 922 q 190 972 142 972 l 427 972 q 849 846 739 972 q 959 488 959 720 q 849 127 959 255 q 427 0 739 0 l 190 0 q 142 51 142 0 l 142 415 l 71 415 m 340 168 l 414 168 q 686 247 624 168 q 747 488 747 325 q 686 728 747 650 q 414 806 624 806 l 340 806 l 340 583 l 503 583 q 553 539 553 583 l 553 459 q 503 415 553 415 l 340 415 l 340 168 z "},"Ǝ":{"ha":868,"x_min":58,"x_max":760,"o":"m 58 44 l 58 124 q 109 168 58 168 l 562 168 l 562 420 l 166 420 q 115 465 115 420 l 115 545 q 166 589 115 589 l 562 589 l 562 804 l 130 804 q 79 848 79 804 l 79 928 q 130 972 79 972 l 712 972 q 760 922 760 972 l 760 51 q 712 0 760 0 l 109 0 q 58 44 58 0 z "},"Ə":{"ha":1013,"x_min":61,"x_max":955,"o":"m 61 528 q 109 583 61 583 l 736 583 q 670 763 728 690 q 481 836 612 836 q 353 814 405 836 q 273 771 302 792 q 197 774 224 737 l 151 839 q 168 905 123 878 q 318 974 242 952 q 486 996 395 996 q 834 858 713 996 q 955 486 955 720 q 834 115 955 252 q 486 -23 714 -23 q 187 92 313 -23 q 61 528 61 208 m 275 415 q 330 205 275 273 q 492 137 385 137 q 683 226 629 137 q 741 415 736 315 l 275 415 z "},"Ɛ":{"ha":850,"x_min":71,"x_max":802,"o":"m 71 264 q 135 433 71 370 q 279 517 200 496 l 279 520 q 151 591 197 545 q 105 736 105 638 q 195 923 105 850 q 440 996 285 996 q 592 976 526 996 q 743 895 659 957 q 751 827 784 865 l 699 766 q 623 772 669 732 q 549 818 591 800 q 446 836 507 836 q 332 803 368 836 q 296 720 296 770 q 329 627 296 663 q 436 591 363 591 l 528 591 q 571 547 571 591 l 571 474 q 528 431 571 431 l 446 431 q 325 396 374 431 q 275 281 275 360 q 327 170 275 203 q 446 137 379 137 q 555 156 512 137 q 640 212 599 176 q 715 223 688 253 l 773 160 q 767 93 802 129 q 635 6 710 35 q 449 -23 561 -23 q 181 52 292 -23 q 71 264 71 127 z "},"Ƒ":{"ha":798,"x_min":-123,"x_max":743,"o":"m -88 -264 q -114 -217 -123 -252 l -92 -135 q -40 -112 -81 -95 q 22 -125 -7 -125 q 88 -92 68 -125 q 109 62 109 -60 l 109 922 q 156 972 109 972 l 692 972 q 743 928 743 972 l 743 848 q 692 804 743 804 l 307 804 l 307 568 l 637 568 q 688 524 688 568 l 688 444 q 637 400 688 400 l 307 400 l 307 24 q 242 -211 307 -136 q 49 -285 178 -285 q -88 -264 -28 -285 z "},"ƒ":{"ha":463,"x_min":-73,"x_max":511,"o":"m -47 -277 q -67 -242 -73 -273 l -52 -168 q -18 -147 -46 -136 q 31 -152 -5 -152 q 90 -107 74 -152 q 106 18 106 -62 l 106 576 l 68 576 q 28 610 28 576 l 28 678 q 68 712 28 712 l 106 712 l 106 807 q 178 973 106 932 q 347 1015 249 1015 q 428 1009 394 1015 q 487 996 461 1004 q 505 962 511 987 l 484 885 q 453 871 478 863 q 411 879 438 877 q 369 882 385 882 q 308 847 319 882 q 296 739 296 812 l 296 712 l 386 712 q 426 678 426 712 l 426 610 q 386 576 426 576 l 296 576 l 296 -3 q 231 -228 296 -171 q 55 -285 165 -285 q -47 -277 -6 -285 z "},"Ɣ":{"ha":914,"x_min":2,"x_max":912,"o":"m 35 914 q 66 972 2 972 l 185 972 q 248 926 223 972 l 385 661 q 421 597 391 650 q 456 494 451 544 l 458 494 q 493 597 463 544 q 529 661 523 650 q 667 926 529 661 q 729 972 691 972 l 848 972 q 880 914 912 972 l 574 362 q 658 263 626 309 q 690 158 690 218 q 638 31 690 85 q 457 -23 586 -23 q 276 31 328 -23 q 224 158 224 85 q 256 263 224 218 q 340 362 288 309 l 35 914 m 410 185 q 424 146 410 159 q 457 133 438 133 q 490 146 476 133 q 504 185 504 159 q 496 220 504 198 q 458 267 488 242 l 456 267 q 418 220 426 242 q 410 185 410 198 z "},"Ɩ":{"ha":636,"x_min":109,"x_max":613,"o":"m 109 338 q 109 922 109 338 q 156 972 109 972 l 259 972 q 307 922 307 972 l 307 323 q 333 185 307 233 q 421 137 359 137 q 470 143 442 137 q 516 159 498 149 q 575 141 562 182 l 601 64 q 579 11 613 28 q 498 -15 544 -7 q 408 -23 452 -23 q 181 71 254 -23 q 109 338 109 164 z "},"Ɨ":{"ha":543,"x_min":31,"x_max":511,"o":"m 82 422 q 31 466 31 422 l 31 546 q 82 590 31 590 l 172 590 l 172 922 q 220 972 172 972 l 323 972 q 370 922 370 972 l 370 590 l 460 590 q 511 546 511 590 l 511 466 q 460 422 511 422 l 370 422 l 370 51 q 323 0 370 0 l 220 0 q 172 51 172 0 l 172 422 l 82 422 z "},"Ɵ":{"ha":1047,"x_min":58,"x_max":989,"o":"m 58 486 q 179 858 58 720 q 524 996 300 996 q 868 858 747 996 q 989 486 989 720 q 868 115 989 252 q 524 -23 747 -23 q 179 115 300 -23 q 58 486 58 252 m 273 422 q 334 222 277 308 q 524 137 391 137 q 713 222 656 137 q 774 422 770 308 l 273 422 m 277 590 l 770 590 q 710 752 765 669 q 524 836 656 836 q 337 752 391 836 q 277 590 282 669 z "},"Ƨ":{"ha":887,"x_min":69,"x_max":831,"o":"m 69 269 q 93 395 69 342 q 152 478 116 448 q 256 539 188 509 q 362 579 304 561 q 493 621 420 597 q 540 639 517 628 q 582 673 563 650 q 601 732 601 696 q 575 796 601 770 q 516 829 549 822 q 442 836 482 836 q 334 810 386 836 q 252 765 282 785 q 178 771 205 733 l 123 845 q 144 910 101 874 q 272 971 187 947 q 437 996 357 996 q 597 977 518 996 q 738 890 677 958 q 799 729 799 823 q 773 602 799 650 q 701 517 747 555 q 597 457 654 479 q 470 415 534 433 q 362 380 405 398 q 315 355 338 370 q 281 317 292 340 q 271 264 271 294 q 294 190 271 221 q 361 148 317 159 q 453 137 406 137 q 582 165 521 137 q 682 220 644 193 q 757 216 731 254 l 809 137 q 789 73 831 104 q 648 0 722 22 q 456 -23 574 -23 q 292 -2 376 -23 q 138 89 208 18 q 69 269 69 160 z "},"ƨ":{"ha":682,"x_min":47,"x_max":651,"o":"m 47 212 q 62 300 47 262 q 110 364 77 339 q 177 403 142 389 q 256 430 217 418 q 332 453 294 441 q 371 466 351 459 q 406 487 391 473 q 421 528 421 502 q 405 567 421 552 q 364 587 388 582 q 315 593 340 593 q 246 582 277 593 q 183 553 215 571 q 122 557 141 530 l 81 618 q 101 673 60 647 q 187 707 127 689 q 311 726 248 726 q 469 706 406 726 q 571 635 532 686 q 611 515 611 583 q 595 429 611 464 q 545 367 579 395 q 475 323 511 338 q 384 290 431 304 q 312 269 337 275 q 276 257 293 264 q 248 235 259 250 q 237 201 237 221 q 256 149 237 167 q 300 125 274 132 q 357 119 327 119 q 453 132 401 119 q 545 170 506 144 q 602 161 583 195 l 636 98 q 618 47 651 71 q 503 0 570 14 q 340 -14 436 -14 q 191 10 255 -14 q 87 90 126 34 q 47 212 47 146 z "},"Ʃ":{"ha":846,"x_min":47,"x_max":800,"o":"m 98 0 q 47 44 47 0 l 47 100 q 82 194 47 146 l 282 470 q 282 559 315 515 l 94 814 q 70 883 70 846 l 70 928 q 121 972 70 972 l 728 972 q 779 928 779 972 l 779 848 q 728 804 779 804 l 423 804 q 342 808 382 804 l 342 803 l 524 556 q 525 470 556 513 l 306 170 l 306 165 q 387 168 347 168 l 749 168 q 800 124 800 168 l 800 44 q 749 0 800 0 l 98 0 z "},"Ʋ":{"ha":934,"x_min":109,"x_max":876,"o":"m 109 405 l 109 935 q 156 972 109 972 l 259 972 q 307 935 307 972 l 307 412 q 365 183 307 229 q 488 137 422 137 q 625 216 585 137 q 664 474 664 295 q 631 666 664 577 q 533 829 598 755 q 536 905 494 872 l 626 976 q 707 954 663 1005 q 838 736 800 848 q 876 504 876 623 q 793 122 876 267 q 486 -23 710 -23 q 204 72 300 -23 q 109 405 109 168 z "},"Ʒ":{"ha":892,"x_min":45,"x_max":821,"o":"m 78 107 q 79 178 45 149 l 147 238 q 215 223 180 267 q 299 158 250 179 q 422 137 349 137 q 550 174 490 137 q 610 290 610 211 q 562 390 610 354 q 427 425 514 425 l 355 425 q 304 468 304 425 l 304 540 q 326 589 304 562 l 501 803 l 501 808 q 420 804 460 804 l 131 804 q 80 848 80 804 l 80 928 q 131 972 80 972 l 730 972 q 781 928 781 972 l 781 878 q 757 809 781 839 l 559 562 l 559 559 q 745 483 669 559 q 821 286 821 407 q 719 59 821 140 q 418 -23 616 -23 q 203 11 278 -23 q 78 107 127 45 z "},"Ǎ":{"ha":945,"x_min":12,"x_max":933,"o":"m 236 1097 q 210 1144 197 1112 l 223 1178 q 275 1194 236 1210 l 472 1112 l 473 1112 l 671 1194 q 722 1178 709 1210 l 736 1144 q 709 1097 749 1112 l 544 1030 q 493 1021 522 1021 l 452 1021 q 401 1030 423 1021 l 236 1097 m 61 0 q 29 45 12 0 l 361 918 q 425 972 382 972 l 520 972 q 584 918 563 972 l 916 45 q 884 0 933 0 l 777 0 q 714 47 732 0 l 645 229 l 300 229 l 231 47 q 169 0 214 0 l 61 0 m 363 397 l 582 397 l 498 613 q 480 668 484 651 q 474 720 477 686 l 471 720 q 465 668 468 686 q 447 613 462 651 l 363 397 z "},"ǎ":{"ha":762,"x_min":54,"x_max":669,"o":"m 54 190 q 184 387 54 326 q 479 452 313 448 l 479 479 q 448 567 479 541 q 361 593 417 593 q 292 582 322 593 q 240 556 262 570 q 200 526 218 541 q 149 524 169 499 l 92 593 q 102 646 71 618 q 158 682 126 667 q 241 712 189 698 q 377 726 294 726 q 594 661 518 726 q 669 469 669 595 l 669 41 q 629 0 669 0 l 517 0 q 481 41 481 0 l 481 61 l 479 61 q 384 4 439 22 q 281 -14 328 -14 q 112 41 170 -14 q 54 190 54 96 m 255 194 q 264 153 255 170 q 294 127 274 136 q 340 119 315 119 q 407 129 374 119 q 479 174 439 138 l 479 321 q 327 288 366 308 q 272 245 288 267 q 255 194 255 224 z "},"Ǐ":{"ha":415,"x_min":-68,"x_max":484,"o":"m -29 1097 q -56 1144 -68 1112 l -42 1178 q 9 1194 -29 1210 l 207 1112 l 208 1112 l 406 1194 q 457 1178 444 1210 l 471 1144 q 444 1097 484 1112 l 279 1030 q 228 1021 257 1021 l 187 1021 q 136 1030 158 1021 l -29 1097 m 156 0 q 109 51 109 0 l 109 922 q 156 972 109 972 l 259 972 q 307 922 307 972 l 307 51 q 259 0 307 0 l 156 0 z "},"ǐ":{"ha":374,"x_min":-46,"x_max":420,"o":"m 133 0 q 92 41 92 0 l 92 671 q 133 712 92 712 l 241 712 q 282 671 282 712 l 282 41 q 241 0 282 0 l 133 0 z "},"Ǒ":{"ha":1047,"x_min":58,"x_max":989,"o":"m 287 1097 q 260 1144 248 1112 l 274 1178 q 326 1194 287 1210 l 523 1112 l 524 1112 l 722 1194 q 773 1178 760 1210 l 787 1144 q 760 1097 800 1112 l 595 1030 q 544 1021 573 1021 l 503 1021 q 452 1030 474 1021 l 287 1097 m 58 486 q 179 858 58 720 q 524 996 300 996 q 868 858 747 996 q 989 486 989 720 q 868 115 989 252 q 524 -23 747 -23 q 179 115 300 -23 q 58 486 58 252 m 270 486 q 331 227 270 317 q 524 137 391 137 q 716 227 656 137 q 777 486 777 317 q 716 746 777 656 q 524 836 656 836 q 331 746 391 836 q 270 486 270 656 z "},"ǒ":{"ha":818,"x_min":54,"x_max":764,"o":"m 54 356 q 143 627 54 529 q 409 726 233 726 q 674 627 585 726 q 764 356 764 529 q 674 85 764 183 q 409 -14 585 -14 q 143 85 233 -14 q 54 356 54 183 m 255 356 q 295 173 255 227 q 409 119 334 119 q 523 173 484 119 q 563 356 563 227 q 523 539 563 485 q 409 593 484 593 q 295 539 334 593 q 255 356 255 485 z "},"Ǔ":{"ha":964,"x_min":109,"x_max":856,"o":"m 245 1097 q 219 1144 206 1112 l 233 1178 q 284 1194 245 1210 l 481 1112 l 483 1112 l 680 1194 q 732 1178 719 1210 l 745 1144 q 719 1097 758 1112 l 553 1030 q 503 1021 532 1021 l 462 1021 q 411 1030 433 1021 l 245 1097 m 109 405 l 109 935 q 156 972 109 972 l 259 972 q 307 935 307 972 l 307 412 q 360 183 307 229 q 482 137 414 137 q 604 183 550 137 q 658 412 658 229 l 658 935 q 705 972 658 972 l 808 972 q 856 935 856 972 l 856 405 q 755 72 856 168 q 482 -23 655 -23 q 209 72 309 -23 q 109 405 109 168 z "},"ǔ":{"ha":810,"x_min":91,"x_max":718,"o":"m 91 296 l 91 671 q 132 712 91 712 l 240 712 q 281 671 281 712 l 281 345 q 301 158 281 197 q 387 119 321 119 q 492 175 456 119 q 528 404 528 230 l 528 671 q 568 712 528 712 l 677 712 q 718 671 718 712 l 718 41 q 677 0 718 0 l 570 0 q 529 41 529 0 l 529 80 l 526 80 q 447 6 495 26 q 333 -14 399 -14 q 160 53 229 -14 q 91 296 91 119 z "},"ǝ":{"ha":796,"x_min":56,"x_max":742,"o":"m 56 381 q 94 422 56 422 l 541 422 q 486 564 530 534 q 382 593 441 593 q 296 578 326 593 q 245 537 266 563 q 189 528 222 507 l 121 569 q 109 627 81 593 q 206 701 151 677 q 382 726 262 726 q 659 627 576 726 q 742 356 742 528 q 656 85 742 184 q 414 -14 570 -14 q 144 80 232 -14 q 56 381 56 174 m 245 286 q 282 166 245 213 q 399 120 319 120 q 500 164 463 120 q 541 286 537 209 l 245 286 z "},"Ǣ":{"ha":1296,"x_min":10,"x_max":1238,"o":"m 61 0 q 29 45 10 0 l 398 918 q 462 972 421 972 l 1166 972 q 1217 928 1217 972 l 1217 848 q 1166 804 1217 804 l 757 804 l 757 589 l 1130 589 q 1181 545 1181 589 l 1181 465 q 1130 420 1181 420 l 757 420 l 757 168 l 1187 168 q 1238 124 1238 168 l 1238 44 q 1187 0 1238 0 l 606 0 q 559 51 559 0 l 559 229 l 311 229 l 233 47 q 171 0 214 0 l 61 0 m 381 397 l 559 397 l 559 804 l 534 804 q 516 723 526 755 q 490 654 506 690 l 381 397 z "},"ǣ":{"ha":1197,"x_min":54,"x_max":1141,"o":"m 54 190 q 182 387 54 326 q 473 452 310 448 l 473 479 q 441 567 473 541 q 357 593 410 593 q 288 580 318 593 q 237 554 258 568 q 200 526 217 541 q 149 524 169 499 l 92 593 q 102 646 71 618 q 162 685 128 669 q 246 713 196 701 q 374 726 296 726 q 486 712 431 726 q 583 662 541 699 l 585 662 q 674 710 618 694 q 787 726 730 726 q 1055 632 968 726 q 1141 331 1141 538 q 1103 290 1141 290 l 663 290 q 715 155 670 190 q 815 119 760 119 q 898 134 861 119 q 956 175 935 148 q 1013 184 981 205 l 1076 143 q 1088 85 1116 117 q 992 11 1046 35 q 819 -14 939 -14 q 640 13 708 -14 q 528 99 571 39 l 527 99 q 418 19 484 52 q 288 -14 351 -14 q 111 41 167 -14 q 54 190 54 96 m 255 194 q 263 155 255 174 q 292 128 271 136 q 336 119 313 119 q 404 136 368 119 q 481 193 439 152 q 473 321 474 244 q 330 289 368 307 q 273 248 291 270 q 255 194 255 226 m 663 426 l 951 426 q 917 546 951 499 q 802 592 882 592 q 702 548 738 592 q 663 426 666 503 z "},"Ǧ":{"ha":1021,"x_min":58,"x_max":945,"o":"m 290 1097 q 263 1144 250 1112 l 277 1178 q 328 1194 290 1210 l 526 1112 l 527 1112 l 724 1194 q 776 1178 763 1210 l 789 1144 q 763 1097 802 1112 l 597 1030 q 547 1021 576 1021 l 506 1021 q 455 1030 477 1021 l 290 1097 m 58 486 q 180 858 58 720 q 526 996 302 996 q 738 961 661 996 q 873 854 815 926 q 871 785 909 810 l 794 735 q 722 755 760 713 q 641 812 690 789 q 533 836 592 836 q 330 746 391 836 q 270 486 270 656 q 330 227 270 317 q 533 137 391 137 q 652 151 602 137 q 747 201 703 165 l 747 323 l 600 323 q 549 367 549 323 l 549 447 q 600 491 549 491 l 895 491 q 945 447 945 491 l 945 102 q 754 5 850 33 q 526 -23 657 -23 q 182 115 306 -23 q 58 486 58 252 z "},"ǧ":{"ha":808,"x_min":54,"x_max":716,"o":"m 54 356 q 119 615 54 505 q 343 726 184 726 q 448 708 404 726 q 526 632 491 690 l 529 632 l 532 671 q 568 712 534 712 l 675 712 q 716 671 716 712 l 716 7 q 627 -222 716 -159 q 368 -285 537 -285 q 235 -277 296 -285 q 111 -240 174 -270 q 100 -181 79 -224 l 125 -132 q 174 -119 140 -102 q 243 -142 202 -132 q 347 -152 284 -152 q 480 -120 434 -152 q 526 21 526 -87 l 526 33 q 529 87 526 60 l 526 87 q 448 11 491 28 q 343 -7 404 -7 q 119 103 184 -7 q 54 356 54 214 m 255 356 q 283 190 255 254 q 403 126 311 126 q 490 183 454 126 q 526 332 526 241 l 526 387 q 490 535 526 478 q 403 593 454 593 q 283 529 311 593 q 255 356 255 465 z "},"Ǩ":{"ha":923,"x_min":109,"x_max":921,"o":"m 267 1097 q 240 1144 227 1112 l 254 1178 q 305 1194 267 1210 l 503 1112 l 504 1112 l 701 1194 q 753 1178 740 1210 l 766 1144 q 740 1097 779 1112 l 574 1030 q 524 1021 553 1021 l 483 1021 q 432 1030 454 1021 l 267 1097 m 156 0 q 109 51 109 0 l 109 922 q 156 972 109 972 l 259 972 q 307 922 307 972 l 307 652 q 303 570 307 611 l 308 570 l 637 932 q 700 972 674 972 l 836 972 q 862 914 916 972 l 553 576 l 884 58 q 858 0 921 0 l 731 0 q 670 40 696 0 l 420 431 l 307 303 l 307 51 q 259 0 307 0 l 156 0 z "},"ǩ":{"ha":756,"x_min":92,"x_max":747,"o":"m 133 0 q 92 41 92 0 l 92 960 q 133 1001 92 1001 l 241 1001 q 282 960 282 1001 l 282 462 q 279 408 282 435 l 282 408 l 497 684 q 550 712 519 712 l 661 712 q 682 662 724 712 l 477 414 l 715 50 q 694 0 747 0 l 578 0 q 522 35 544 0 l 368 283 l 282 179 l 282 41 q 241 0 282 0 l 133 0 z "},"Ǯ":{"ha":892,"x_min":45,"x_max":821,"o":"m 205 1097 q 178 1144 165 1112 l 192 1178 q 243 1194 205 1210 l 441 1112 l 442 1112 l 640 1194 q 691 1178 678 1210 l 705 1144 q 678 1097 718 1112 l 513 1030 q 462 1021 491 1021 l 421 1021 q 370 1030 392 1021 l 205 1097 m 78 107 q 79 178 45 149 l 147 238 q 215 223 180 267 q 299 158 250 179 q 422 137 349 137 q 550 174 490 137 q 610 290 610 211 q 562 390 610 354 q 427 425 514 425 l 355 425 q 304 468 304 425 l 304 540 q 326 589 304 562 l 501 803 l 501 808 q 420 804 460 804 l 131 804 q 80 848 80 804 l 80 928 q 131 972 80 972 l 730 972 q 781 928 781 972 l 781 878 q 757 809 781 839 l 559 562 l 559 559 q 745 483 669 559 q 821 286 821 407 q 719 59 821 140 q 418 -23 616 -23 q 203 11 278 -23 q 78 107 127 45 z "},"ǯ":{"ha":695,"x_min":27,"x_max":631,"o":"m 55 -198 q 55 -138 27 -166 l 106 -85 q 165 -88 134 -56 q 227 -135 195 -118 q 317 -152 258 -152 q 404 -105 378 -152 q 430 7 430 -59 q 392 126 430 81 q 254 172 354 172 l 191 172 q 150 205 150 172 l 150 257 q 178 330 150 294 l 367 576 l 367 579 q 313 576 340 576 l 95 576 q 54 610 54 576 l 54 678 q 95 712 54 712 l 562 712 q 602 678 602 712 l 602 631 q 573 557 602 595 l 380 307 l 380 304 q 570 200 509 279 q 631 9 631 122 q 553 -209 631 -132 q 323 -285 476 -285 q 155 -262 218 -285 q 55 -198 92 -240 z "},"ǰ":{"ha":381,"x_min":-81,"x_max":427,"o":"m -55 -277 q -75 -242 -81 -273 l -60 -168 q -25 -147 -54 -136 q 24 -152 -13 -152 q 83 -107 66 -152 q 99 18 99 -62 l 99 671 q 140 712 99 712 l 248 712 q 289 671 289 712 l 289 -3 q 223 -228 289 -171 q 47 -285 157 -285 q -55 -277 -14 -285 z "},"Ǵ":{"ha":1021,"x_min":58,"x_max":945,"o":"m 58 486 q 180 858 58 720 q 526 996 302 996 q 738 961 661 996 q 873 854 815 926 q 871 785 909 810 l 794 735 q 722 755 760 713 q 641 812 690 789 q 533 836 592 836 q 330 746 391 836 q 270 486 270 656 q 330 227 270 317 q 533 137 391 137 q 652 151 602 137 q 747 201 703 165 l 747 323 l 600 323 q 549 367 549 323 l 549 447 q 600 491 549 491 l 895 491 q 945 447 945 491 l 945 102 q 754 5 850 33 q 526 -23 657 -23 q 182 115 306 -23 q 58 486 58 252 z "},"ǵ":{"ha":808,"x_min":54,"x_max":716,"o":"m 54 356 q 119 615 54 505 q 343 726 184 726 q 448 708 404 726 q 526 632 491 690 l 529 632 l 532 671 q 568 712 534 712 l 675 712 q 716 671 716 712 l 716 7 q 627 -222 716 -159 q 368 -285 537 -285 q 235 -277 296 -285 q 111 -240 174 -270 q 100 -181 79 -224 l 125 -132 q 174 -119 140 -102 q 243 -142 202 -132 q 347 -152 284 -152 q 480 -120 434 -152 q 526 21 526 -87 l 526 33 q 529 87 526 60 l 526 87 q 448 11 491 28 q 343 -7 404 -7 q 119 103 184 -7 q 54 356 54 214 m 255 356 q 283 190 255 254 q 403 126 311 126 q 490 183 454 126 q 526 332 526 241 l 526 387 q 490 535 526 478 q 403 593 454 593 q 283 529 311 593 q 255 356 255 465 z "},"Ǹ":{"ha":998,"x_min":109,"x_max":890,"o":"m 156 0 q 109 51 109 0 l 109 922 q 156 972 109 972 l 256 972 q 345 925 315 972 l 690 370 l 695 370 q 692 451 692 410 l 692 922 q 739 972 692 972 l 842 972 q 890 922 890 972 l 890 51 q 842 0 890 0 l 749 0 q 661 47 690 0 l 308 613 l 303 613 q 307 532 307 572 l 307 51 q 259 0 307 0 l 156 0 z "},"ǹ":{"ha":814,"x_min":92,"x_max":723,"o":"m 133 0 q 92 41 92 0 l 92 671 q 133 712 92 712 l 240 712 q 281 671 281 712 l 281 632 l 283 632 q 363 706 315 686 q 479 726 411 726 q 654 659 585 726 q 723 416 723 593 l 723 41 q 682 0 723 0 l 574 0 q 533 41 533 0 l 533 368 q 513 554 533 515 q 425 593 492 593 q 318 537 354 593 q 282 308 282 482 l 282 41 q 241 0 282 0 l 133 0 z "},"Ǽ":{"ha":1296,"x_min":10,"x_max":1238,"o":"m 61 0 q 29 45 10 0 l 398 918 q 462 972 421 972 l 1166 972 q 1217 928 1217 972 l 1217 848 q 1166 804 1217 804 l 757 804 l 757 589 l 1130 589 q 1181 545 1181 589 l 1181 465 q 1130 420 1181 420 l 757 420 l 757 168 l 1187 168 q 1238 124 1238 168 l 1238 44 q 1187 0 1238 0 l 606 0 q 559 51 559 0 l 559 229 l 311 229 l 233 47 q 171 0 214 0 l 61 0 m 381 397 l 559 397 l 559 804 l 534 804 q 516 723 526 755 q 490 654 506 690 l 381 397 z "},"ǽ":{"ha":1197,"x_min":54,"x_max":1141,"o":"m 54 190 q 182 387 54 326 q 473 452 310 448 l 473 479 q 441 567 473 541 q 357 593 410 593 q 288 580 318 593 q 237 554 258 568 q 200 526 217 541 q 149 524 169 499 l 92 593 q 102 646 71 618 q 162 685 128 669 q 246 713 196 701 q 374 726 296 726 q 486 712 431 726 q 583 662 541 699 l 585 662 q 674 710 618 694 q 787 726 730 726 q 1055 632 968 726 q 1141 331 1141 538 q 1103 290 1141 290 l 663 290 q 715 155 670 190 q 815 119 760 119 q 898 134 861 119 q 956 175 935 148 q 1013 184 981 205 l 1076 143 q 1088 85 1116 117 q 992 11 1046 35 q 819 -14 939 -14 q 640 13 708 -14 q 528 99 571 39 l 527 99 q 418 19 484 52 q 288 -14 351 -14 q 111 41 167 -14 q 54 190 54 96 m 255 194 q 263 155 255 174 q 292 128 271 136 q 336 119 313 119 q 404 136 368 119 q 481 193 439 152 q 473 321 474 244 q 330 289 368 307 q 273 248 291 270 q 255 194 255 226 m 663 426 l 951 426 q 917 546 951 499 q 802 592 882 592 q 702 548 738 592 q 663 426 666 503 z "},"Ǿ":{"ha":1047,"x_min":18,"x_max":1029,"o":"m 58 486 q 179 858 58 720 q 524 996 300 996 q 805 916 694 996 l 886 1006 q 941 1011 913 1036 l 1002 956 q 1002 901 1029 932 l 911 800 q 989 486 989 674 q 868 115 989 252 q 524 -23 747 -23 q 242 57 353 -23 l 161 -33 q 106 -39 134 -64 l 45 16 q 45 71 18 41 l 136 173 q 58 486 58 298 m 270 486 q 285 338 270 402 l 685 782 q 524 836 625 836 q 331 746 391 836 q 270 486 270 656 m 362 191 q 524 137 422 137 q 716 227 656 137 q 777 486 777 317 q 762 635 777 570 l 362 191 z "},"ǿ":{"ha":818,"x_min":46,"x_max":772,"o":"m 54 356 q 143 627 54 529 q 409 726 233 726 q 609 680 529 726 l 644 718 q 696 726 671 749 l 747 680 q 745 627 772 658 l 707 585 q 764 356 764 494 q 674 85 764 183 q 409 -14 585 -14 q 209 33 289 -14 l 174 -6 q 122 -14 147 -37 l 71 32 q 73 85 46 54 l 111 127 q 54 356 54 218 m 255 356 q 258 290 255 320 l 503 562 q 409 593 466 593 q 295 539 334 593 q 255 356 255 485 m 315 151 q 409 119 352 119 q 523 173 484 119 q 563 356 563 227 q 559 422 563 392 l 315 151 z "},"Ȁ":{"ha":945,"x_min":12,"x_max":933,"o":"m 61 0 q 29 45 12 0 l 361 918 q 425 972 382 972 l 520 972 q 584 918 563 972 l 916 45 q 884 0 933 0 l 777 0 q 714 47 732 0 l 645 229 l 300 229 l 231 47 q 169 0 214 0 l 61 0 m 363 397 l 582 397 l 498 613 q 480 668 484 651 q 474 720 477 686 l 471 720 q 465 668 468 686 q 447 613 462 651 l 363 397 z "},"ȁ":{"ha":762,"x_min":54,"x_max":669,"o":"m 54 190 q 184 387 54 326 q 479 452 313 448 l 479 479 q 448 567 479 541 q 361 593 417 593 q 292 582 322 593 q 240 556 262 570 q 200 526 218 541 q 149 524 169 499 l 92 593 q 102 646 71 618 q 158 682 126 667 q 241 712 189 698 q 377 726 294 726 q 594 661 518 726 q 669 469 669 595 l 669 41 q 629 0 669 0 l 517 0 q 481 41 481 0 l 481 61 l 479 61 q 384 4 439 22 q 281 -14 328 -14 q 112 41 170 -14 q 54 190 54 96 m 255 194 q 264 153 255 170 q 294 127 274 136 q 340 119 315 119 q 407 129 374 119 q 479 174 439 138 l 479 321 q 327 288 366 308 q 272 245 288 267 q 255 194 255 224 z "},"Ȃ":{"ha":945,"x_min":12,"x_max":933,"o":"m 61 0 q 29 45 12 0 l 361 918 q 425 972 382 972 l 520 972 q 584 918 563 972 l 916 45 q 884 0 933 0 l 777 0 q 714 47 732 0 l 645 229 l 300 229 l 231 47 q 169 0 214 0 l 61 0 m 363 397 l 582 397 l 498 613 q 480 668 484 651 q 474 720 477 686 l 471 720 q 465 668 468 686 q 447 613 462 651 l 363 397 z "},"ȃ":{"ha":762,"x_min":54,"x_max":669,"o":"m 54 190 q 184 387 54 326 q 479 452 313 448 l 479 479 q 448 567 479 541 q 361 593 417 593 q 292 582 322 593 q 240 556 262 570 q 200 526 218 541 q 149 524 169 499 l 92 593 q 102 646 71 618 q 158 682 126 667 q 241 712 189 698 q 377 726 294 726 q 594 661 518 726 q 669 469 669 595 l 669 41 q 629 0 669 0 l 517 0 q 481 41 481 0 l 481 61 l 479 61 q 384 4 439 22 q 281 -14 328 -14 q 112 41 170 -14 q 54 190 54 96 m 255 194 q 264 153 255 170 q 294 127 274 136 q 340 119 315 119 q 407 129 374 119 q 479 174 439 138 l 479 321 q 327 288 366 308 q 272 245 288 267 q 255 194 255 224 z "},"Ȅ":{"ha":868,"x_min":109,"x_max":810,"o":"m 156 0 q 109 51 109 0 l 109 922 q 156 972 109 972 l 738 972 q 789 928 789 972 l 789 848 q 738 804 789 804 l 307 804 l 307 589 l 702 589 q 753 545 753 589 l 753 465 q 702 420 753 420 l 307 420 l 307 168 l 760 168 q 810 124 810 168 l 810 44 q 760 0 810 0 l 156 0 z "},"ȅ":{"ha":796,"x_min":54,"x_max":741,"o":"m 54 356 q 140 627 54 528 q 382 726 226 726 q 652 632 564 726 q 741 331 741 538 q 703 290 741 290 l 255 290 q 311 149 266 178 q 414 119 355 119 q 500 134 471 119 q 551 175 530 149 q 608 184 574 205 l 675 143 q 687 85 715 119 q 590 11 646 35 q 414 -14 534 -14 q 137 85 220 -14 q 54 356 54 184 m 256 426 l 551 426 q 514 546 551 499 q 397 592 477 592 q 296 548 334 592 q 256 426 259 503 z "},"Ȇ":{"ha":868,"x_min":109,"x_max":810,"o":"m 156 0 q 109 51 109 0 l 109 922 q 156 972 109 972 l 738 972 q 789 928 789 972 l 789 848 q 738 804 789 804 l 307 804 l 307 589 l 702 589 q 753 545 753 589 l 753 465 q 702 420 753 420 l 307 420 l 307 168 l 760 168 q 810 124 810 168 l 810 44 q 760 0 810 0 l 156 0 z "},"ȇ":{"ha":796,"x_min":54,"x_max":741,"o":"m 54 356 q 140 627 54 528 q 382 726 226 726 q 652 632 564 726 q 741 331 741 538 q 703 290 741 290 l 255 290 q 311 149 266 178 q 414 119 355 119 q 500 134 471 119 q 551 175 530 149 q 608 184 574 205 l 675 143 q 687 85 715 119 q 590 11 646 35 q 414 -14 534 -14 q 137 85 220 -14 q 54 356 54 184 m 256 426 l 551 426 q 514 546 551 499 q 397 592 477 592 q 296 548 334 592 q 256 426 259 503 z "},"Ȉ":{"ha":415,"x_min":-144,"x_max":464,"o":"m 156 0 q 109 51 109 0 l 109 922 q 156 972 109 972 l 259 972 q 307 922 307 972 l 307 51 q 259 0 307 0 l 156 0 z "},"ȉ":{"ha":374,"x_min":-102,"x_max":380,"o":"m 133 0 q 92 41 92 0 l 92 671 q 133 712 92 712 l 241 712 q 282 671 282 712 l 282 41 q 241 0 282 0 l 133 0 z "},"Ȋ":{"ha":415,"x_min":-60,"x_max":475,"o":"m 156 0 q 109 51 109 0 l 109 922 q 156 972 109 972 l 259 972 q 307 922 307 972 l 307 51 q 259 0 307 0 l 156 0 z "},"ȋ":{"ha":374,"x_min":-50,"x_max":424,"o":"m 133 0 q 92 41 92 0 l 92 671 q 133 712 92 712 l 241 712 q 282 671 282 712 l 282 41 q 241 0 282 0 l 133 0 z "},"Ȍ":{"ha":1047,"x_min":58,"x_max":989,"o":"m 58 486 q 179 858 58 720 q 524 996 300 996 q 868 858 747 996 q 989 486 989 720 q 868 115 989 252 q 524 -23 747 -23 q 179 115 300 -23 q 58 486 58 252 m 270 486 q 331 227 270 317 q 524 137 391 137 q 716 227 656 137 q 777 486 777 317 q 716 746 777 656 q 524 836 656 836 q 331 746 391 836 q 270 486 270 656 z "},"ȍ":{"ha":818,"x_min":54,"x_max":764,"o":"m 54 356 q 143 627 54 529 q 409 726 233 726 q 674 627 585 726 q 764 356 764 529 q 674 85 764 183 q 409 -14 585 -14 q 143 85 233 -14 q 54 356 54 183 m 255 356 q 295 173 255 227 q 409 119 334 119 q 523 173 484 119 q 563 356 563 227 q 523 539 563 485 q 409 593 484 593 q 295 539 334 593 q 255 356 255 485 z "},"Ȏ":{"ha":1047,"x_min":58,"x_max":989,"o":"m 58 486 q 179 858 58 720 q 524 996 300 996 q 868 858 747 996 q 989 486 989 720 q 868 115 989 252 q 524 -23 747 -23 q 179 115 300 -23 q 58 486 58 252 m 270 486 q 331 227 270 317 q 524 137 391 137 q 716 227 656 137 q 777 486 777 317 q 716 746 777 656 q 524 836 656 836 q 331 746 391 836 q 270 486 270 656 z "},"ȏ":{"ha":818,"x_min":54,"x_max":764,"o":"m 54 356 q 143 627 54 529 q 409 726 233 726 q 674 627 585 726 q 764 356 764 529 q 674 85 764 183 q 409 -14 585 -14 q 143 85 233 -14 q 54 356 54 183 m 255 356 q 295 173 255 227 q 409 119 334 119 q 523 173 484 119 q 563 356 563 227 q 523 539 563 485 q 409 593 484 593 q 295 539 334 593 q 255 356 255 485 z "},"Ȑ":{"ha":968,"x_min":94,"x_max":935,"o":"m 156 0 q 109 51 109 0 l 109 922 q 156 972 109 972 l 470 972 q 776 908 680 972 q 872 697 872 843 q 794 524 872 589 q 596 439 716 460 l 596 437 q 694 370 661 413 q 749 294 728 326 l 898 58 q 872 0 935 0 l 754 0 q 693 40 717 0 l 556 269 q 474 349 534 305 q 357 393 415 393 l 307 393 l 307 51 q 259 0 307 0 l 156 0 m 307 561 l 428 561 q 621 592 564 561 q 678 690 678 623 q 623 785 678 763 q 460 807 568 807 l 307 807 l 307 561 z "},"ȑ":{"ha":533,"x_min":26,"x_max":528,"o":"m 133 0 q 92 41 92 0 l 92 671 q 133 712 92 712 l 240 712 q 281 671 281 712 l 281 616 l 283 616 q 342 692 301 659 q 440 726 384 726 q 504 716 479 726 q 522 684 528 707 l 503 603 q 467 587 497 576 q 433 593 449 593 q 325 515 368 593 q 282 288 282 437 l 282 41 q 241 0 282 0 l 133 0 z "},"Ȓ":{"ha":968,"x_min":109,"x_max":935,"o":"m 156 0 q 109 51 109 0 l 109 922 q 156 972 109 972 l 470 972 q 776 908 680 972 q 872 697 872 843 q 794 524 872 589 q 596 439 716 460 l 596 437 q 694 370 661 413 q 749 294 728 326 l 898 58 q 872 0 935 0 l 754 0 q 693 40 717 0 l 556 269 q 474 349 534 305 q 357 393 415 393 l 307 393 l 307 51 q 259 0 307 0 l 156 0 m 307 561 l 428 561 q 621 592 564 561 q 678 690 678 623 q 623 785 678 763 q 460 807 568 807 l 307 807 l 307 561 z "},"ȓ":{"ha":533,"x_min":79,"x_max":553,"o":"m 133 0 q 92 41 92 0 l 92 671 q 133 712 92 712 l 240 712 q 281 671 281 712 l 281 616 l 283 616 q 342 692 301 659 q 440 726 384 726 q 504 716 479 726 q 522 684 528 707 l 503 603 q 467 587 497 576 q 433 593 449 593 q 325 515 368 593 q 282 288 282 437 l 282 41 q 241 0 282 0 l 133 0 z "},"Ȕ":{"ha":964,"x_min":109,"x_max":856,"o":"m 109 405 l 109 935 q 156 972 109 972 l 259 972 q 307 935 307 972 l 307 412 q 360 183 307 229 q 482 137 414 137 q 604 183 550 137 q 658 412 658 229 l 658 935 q 705 972 658 972 l 808 972 q 856 935 856 972 l 856 405 q 755 72 856 168 q 482 -23 655 -23 q 209 72 309 -23 q 109 405 109 168 z "},"ȕ":{"ha":810,"x_min":91,"x_max":718,"o":"m 91 296 l 91 671 q 132 712 91 712 l 240 712 q 281 671 281 712 l 281 345 q 301 158 281 197 q 387 119 321 119 q 492 175 456 119 q 528 404 528 230 l 528 671 q 568 712 528 712 l 677 712 q 718 671 718 712 l 718 41 q 677 0 718 0 l 570 0 q 529 41 529 0 l 529 80 l 526 80 q 447 6 495 26 q 333 -14 399 -14 q 160 53 229 -14 q 91 296 91 119 z "},"Ȗ":{"ha":964,"x_min":109,"x_max":856,"o":"m 109 405 l 109 935 q 156 972 109 972 l 259 972 q 307 935 307 972 l 307 412 q 360 183 307 229 q 482 137 414 137 q 604 183 550 137 q 658 412 658 229 l 658 935 q 705 972 658 972 l 808 972 q 856 935 856 972 l 856 405 q 755 72 856 168 q 482 -23 655 -23 q 209 72 309 -23 q 109 405 109 168 z "},"ȗ":{"ha":810,"x_min":91,"x_max":718,"o":"m 91 296 l 91 671 q 132 712 91 712 l 240 712 q 281 671 281 712 l 281 345 q 301 158 281 197 q 387 119 321 119 q 492 175 456 119 q 528 404 528 230 l 528 671 q 568 712 528 712 l 677 712 q 718 671 718 712 l 718 41 q 677 0 718 0 l 570 0 q 529 41 529 0 l 529 80 l 526 80 q 447 6 495 26 q 333 -14 399 -14 q 160 53 229 -14 q 91 296 91 119 z "},"Ȟ":{"ha":978,"x_min":109,"x_max":869,"o":"m 252 1097 q 226 1144 213 1112 l 239 1178 q 291 1194 252 1210 l 488 1112 l 490 1112 l 687 1194 q 739 1178 726 1210 l 752 1144 q 726 1097 765 1112 l 560 1030 q 509 1021 538 1021 l 469 1021 q 418 1030 439 1021 l 252 1097 m 156 0 q 109 51 109 0 l 109 922 q 156 972 109 972 l 259 972 q 307 922 307 972 l 307 590 l 671 590 l 671 922 q 719 972 671 972 l 822 972 q 869 922 869 972 l 869 51 q 822 0 869 0 l 719 0 q 671 51 671 0 l 671 422 l 307 422 l 307 51 q 259 0 307 0 l 156 0 z "},"ȟ":{"ha":814,"x_min":92,"x_max":723,"o":"m 133 0 q 92 41 92 0 l 92 960 q 133 1001 92 1001 l 241 1001 q 282 960 282 1001 l 282 686 q 279 632 282 659 l 283 632 q 363 706 315 686 q 479 726 411 726 q 654 659 585 726 q 723 416 723 593 l 723 41 q 682 0 723 0 l 574 0 q 533 41 533 0 l 533 368 q 513 554 533 515 q 425 593 492 593 q 318 537 354 593 q 282 308 282 482 l 282 41 q 241 0 282 0 l 133 0 z "},"Ȧ":{"ha":945,"x_min":12,"x_max":933,"o":"m 421 1035 q 374 1086 374 1035 l 374 1163 q 421 1214 374 1214 l 524 1214 q 572 1163 572 1214 l 572 1086 q 524 1035 572 1035 l 421 1035 m 61 0 q 29 45 12 0 l 361 918 q 425 972 382 972 l 520 972 q 584 918 563 972 l 916 45 q 884 0 933 0 l 777 0 q 714 47 732 0 l 645 229 l 300 229 l 231 47 q 169 0 214 0 l 61 0 m 363 397 l 582 397 l 498 613 q 480 668 484 651 q 474 720 477 686 l 471 720 q 465 668 468 686 q 447 613 462 651 l 363 397 z "},"ȧ":{"ha":762,"x_min":54,"x_max":669,"o":"m 54 190 q 184 387 54 326 q 479 452 313 448 l 479 479 q 448 567 479 541 q 361 593 417 593 q 292 582 322 593 q 240 556 262 570 q 200 526 218 541 q 149 524 169 499 l 92 593 q 102 646 71 618 q 158 682 126 667 q 241 712 189 698 q 377 726 294 726 q 594 661 518 726 q 669 469 669 595 l 669 41 q 629 0 669 0 l 517 0 q 481 41 481 0 l 481 61 l 479 61 q 384 4 439 22 q 281 -14 328 -14 q 112 41 170 -14 q 54 190 54 96 m 255 194 q 264 153 255 170 q 294 127 274 136 q 340 119 315 119 q 407 129 374 119 q 479 174 439 138 l 479 321 q 327 288 366 308 q 272 245 288 267 q 255 194 255 224 z "},"Ȯ":{"ha":1047,"x_min":58,"x_max":989,"o":"m 472 1035 q 425 1086 425 1035 l 425 1163 q 472 1214 425 1214 l 575 1214 q 623 1163 623 1214 l 623 1086 q 575 1035 623 1035 l 472 1035 m 58 486 q 179 858 58 720 q 524 996 300 996 q 868 858 747 996 q 989 486 989 720 q 868 115 989 252 q 524 -23 747 -23 q 179 115 300 -23 q 58 486 58 252 m 270 486 q 331 227 270 317 q 524 137 391 137 q 716 227 656 137 q 777 486 777 317 q 716 746 777 656 q 524 836 656 836 q 331 746 391 836 q 270 486 270 656 z "},"ȯ":{"ha":818,"x_min":54,"x_max":764,"o":"m 54 356 q 143 627 54 529 q 409 726 233 726 q 674 627 585 726 q 764 356 764 529 q 674 85 764 183 q 409 -14 585 -14 q 143 85 233 -14 q 54 356 54 183 m 255 356 q 295 173 255 227 q 409 119 334 119 q 523 173 484 119 q 563 356 563 227 q 523 539 563 485 q 409 593 484 593 q 295 539 334 593 q 255 356 255 485 z "},"Ȳ":{"ha":928,"x_min":0,"x_max":928,"o":"m 35 914 q 66 972 0 972 l 185 972 q 248 926 220 972 l 392 674 q 428 611 398 664 q 463 507 458 557 l 465 507 q 500 611 470 557 q 536 674 530 664 l 680 926 q 743 972 707 972 l 861 972 q 893 914 928 972 l 563 356 l 563 37 q 515 0 563 0 l 412 0 q 365 37 365 0 l 365 356 l 35 914 z "},"ȳ":{"ha":671,"x_min":12,"x_max":671,"o":"m 30 659 q 52 712 12 712 l 174 712 q 214 677 205 712 l 317 298 q 330 230 324 272 q 336 177 336 189 l 340 177 q 352 234 348 213 q 372 317 355 256 l 469 677 q 510 712 479 712 l 631 712 q 654 659 671 712 l 425 -28 q 327 -217 385 -149 q 165 -285 269 -285 q 63 -275 108 -285 q 43 -240 37 -270 l 58 -165 q 93 -145 64 -136 q 132 -152 114 -152 q 216 -100 187 -152 q 254 -10 245 -47 l 256 0 l 30 659 z "},"ȷ":{"ha":381,"x_min":-81,"x_max":289,"o":"m -55 -277 q -75 -242 -81 -273 l -60 -168 q -25 -147 -54 -136 q 24 -152 -13 -152 q 83 -107 66 -152 q 99 18 99 -62 l 99 671 q 140 712 99 712 l 248 712 q 289 671 289 712 l 289 -3 q 223 -228 289 -171 q 47 -285 157 -285 q -55 -277 -14 -285 z "},"Ʉ":{"ha":1092,"x_min":31,"x_max":1061,"o":"m 370 412 q 424 183 370 229 q 546 137 478 137 q 668 183 614 137 q 722 412 722 229 l 722 422 l 370 422 l 370 412 m 82 422 q 31 466 31 422 l 31 546 q 82 590 31 590 l 172 590 l 172 935 q 220 972 172 972 l 323 972 q 370 935 370 972 l 370 590 l 722 590 l 722 935 q 769 972 722 972 l 872 972 q 920 935 920 972 l 920 590 l 1010 590 q 1061 546 1061 590 l 1061 466 q 1010 422 1061 422 l 920 422 l 920 405 q 819 72 920 168 q 546 -23 719 -23 q 273 72 373 -23 q 172 405 172 168 l 172 422 l 82 422 z "},"Ʌ":{"ha":929,"x_min":12,"x_max":917,"o":"m 61 0 q 29 45 12 0 l 353 918 q 417 972 374 972 l 512 972 q 576 918 555 972 l 900 45 q 868 0 917 0 l 760 0 q 698 47 715 0 l 490 613 q 472 671 475 656 q 466 720 469 686 l 463 720 q 457 671 460 686 q 439 613 454 656 l 231 47 q 169 0 214 0 l 61 0 z "},"ɐ":{"ha":762,"x_min":93,"x_max":708,"o":"m 93 243 l 93 671 q 134 712 93 712 l 245 712 q 281 671 281 712 l 281 651 l 283 651 q 379 708 323 690 q 481 726 435 726 q 650 671 593 726 q 708 522 708 616 q 578 326 708 387 q 283 260 449 264 l 283 233 q 314 145 283 171 q 401 119 345 119 q 470 131 440 119 q 523 156 500 142 q 562 186 545 171 q 614 189 593 213 l 670 119 q 660 66 691 94 q 605 30 636 45 q 521 0 573 14 q 385 -14 469 -14 q 169 52 244 -14 q 93 243 93 117 m 283 391 q 435 425 397 404 q 491 467 474 445 q 507 518 507 488 q 498 559 507 542 q 468 585 488 576 q 422 593 448 593 q 355 583 388 593 q 283 538 323 574 l 283 391 z "},"ɔ":{"ha":736,"x_min":31,"x_max":682,"o":"m 56 610 q 145 688 82 650 q 329 726 209 726 q 595 627 509 726 q 682 356 682 529 q 595 85 682 183 q 329 -14 509 -14 q 165 14 224 -14 q 72 96 107 42 q 79 146 51 127 l 151 193 q 204 178 181 214 q 248 140 216 160 q 329 119 281 119 q 444 173 406 119 q 481 356 481 227 q 444 539 481 485 q 329 593 406 593 q 240 570 274 593 q 176 510 206 547 q 122 501 151 479 l 59 551 q 56 610 31 573 z "},"ɖ":{"ha":817,"x_min":54,"x_max":891,"o":"m 54 356 q 119 615 54 505 q 343 726 184 726 q 448 708 404 726 q 526 632 491 690 l 529 632 q 526 686 526 659 l 526 960 q 567 1001 526 1001 l 675 1001 q 716 960 716 1001 l 716 18 q 732 -107 716 -62 q 789 -152 749 -152 q 836 -147 821 -152 q 870 -168 864 -138 l 885 -242 q 865 -277 891 -273 q 766 -285 822 -285 q 592 -228 658 -285 q 526 -3 526 -171 l 526 26 q 529 80 526 53 l 526 80 q 448 4 491 22 q 343 -14 404 -14 q 119 97 184 -14 q 54 356 54 207 m 255 356 q 283 183 255 248 q 403 119 311 119 q 490 177 454 119 q 526 326 526 234 l 526 387 q 490 535 526 478 q 403 593 454 593 q 283 529 311 593 q 255 356 255 465 z "},"ɘ":{"ha":796,"x_min":56,"x_max":742,"o":"m 56 331 q 144 632 56 538 q 414 726 232 726 q 656 627 570 726 q 742 356 742 528 q 659 85 742 184 q 382 -14 576 -14 q 206 11 262 -14 q 109 85 151 35 q 121 143 81 119 l 189 184 q 245 175 222 205 q 296 134 266 149 q 382 119 326 119 q 486 149 441 119 q 541 290 530 178 l 94 290 q 56 331 56 290 m 245 426 l 541 426 q 500 548 537 503 q 399 592 463 592 q 282 546 319 592 q 245 426 245 499 z "},"ə":{"ha":796,"x_min":56,"x_max":742,"o":"m 56 381 q 94 422 56 422 l 541 422 q 486 564 530 534 q 382 593 441 593 q 296 578 326 593 q 245 537 266 563 q 189 528 222 507 l 121 569 q 109 627 81 593 q 206 701 151 677 q 382 726 262 726 q 659 627 576 726 q 742 356 742 528 q 656 85 742 184 q 414 -14 570 -14 q 144 80 232 -14 q 56 381 56 174 m 245 286 q 282 166 245 213 q 399 120 319 120 q 500 164 463 120 q 541 286 537 209 l 245 286 z "},"ɛ":{"ha":670,"x_min":64,"x_max":641,"o":"m 64 205 q 99 302 64 260 q 208 377 135 344 l 208 379 q 120 438 154 404 q 86 545 86 472 q 166 673 86 621 q 375 726 246 726 q 494 712 433 726 q 603 663 555 699 q 606 610 630 642 l 568 557 q 517 557 549 532 q 455 586 488 580 q 389 593 422 593 q 307 577 344 593 q 269 523 269 562 q 297 461 269 482 q 366 439 325 439 l 436 439 q 471 406 471 439 l 471 338 q 436 304 471 304 l 379 304 q 286 278 312 304 q 259 220 259 252 q 285 150 259 181 q 372 119 311 119 q 458 133 409 119 q 531 162 507 146 q 583 155 565 184 l 617 99 q 612 45 641 60 q 512 5 572 24 q 365 -14 452 -14 q 156 43 249 -14 q 64 205 64 100 z "},"ɜ":{"ha":670,"x_min":29,"x_max":606,"o":"m 53 99 l 87 155 q 139 162 105 184 q 212 133 163 146 q 298 119 261 119 q 385 150 359 119 q 411 220 411 181 q 385 278 411 252 q 291 304 358 304 l 234 304 q 199 338 199 304 l 199 406 q 234 439 199 439 l 304 439 q 373 461 345 439 q 401 523 401 482 q 363 577 401 562 q 281 593 326 593 q 215 586 248 593 q 153 557 182 580 q 102 557 121 532 l 64 610 q 67 663 40 642 q 176 712 115 699 q 295 726 237 726 q 504 673 424 726 q 584 545 584 621 q 550 438 584 472 q 462 379 516 404 l 462 377 q 571 302 535 344 q 606 205 606 260 q 514 43 606 100 q 305 -14 421 -14 q 158 5 218 -14 q 58 45 98 24 q 53 99 29 60 z "},"ɣ":{"ha":699,"x_min":9,"x_max":688,"o":"m 300 -95 q 310 -134 300 -115 q 349 -152 320 -152 q 387 -134 377 -152 q 397 -95 397 -115 q 384 -41 397 -68 q 350 14 372 -15 l 347 14 q 313 -41 326 -15 q 300 -95 300 -68 m 28 659 q 51 712 9 712 l 172 712 q 213 677 202 712 l 325 321 q 337 275 330 305 q 347 216 345 245 l 351 216 q 360 275 353 245 q 372 321 368 305 l 484 677 q 525 712 495 712 l 646 712 q 669 659 688 712 l 477 124 q 555 -8 534 43 q 577 -117 577 -60 q 523 -234 577 -183 q 349 -285 468 -285 q 175 -234 229 -285 q 120 -117 120 -183 q 142 -8 120 -60 q 220 124 163 43 l 28 659 z "},"ɥ":{"ha":810,"x_min":91,"x_max":718,"o":"m 718 671 q 716 -231 718 671 q 675 -271 716 -271 l 567 -271 q 526 -231 526 -271 l 526 26 q 529 80 526 53 l 526 80 q 447 6 495 26 q 333 -14 399 -14 q 160 53 229 -14 q 91 296 91 119 l 91 671 q 132 712 91 712 l 240 712 q 281 671 281 712 l 281 345 q 301 158 281 197 q 387 119 321 119 q 492 175 456 119 q 528 404 528 230 l 528 671 q 568 712 528 712 l 677 712 q 718 671 718 712 z "},"ɨ":{"ha":494,"x_min":32,"x_max":462,"o":"m 73 304 q 32 338 32 304 l 32 406 q 73 439 32 439 l 152 439 l 152 671 q 193 712 152 712 l 301 712 q 342 671 342 712 l 342 439 l 421 439 q 462 406 462 439 l 462 338 q 421 304 462 304 l 342 304 l 342 41 q 301 0 342 0 l 193 0 q 152 41 152 0 l 152 304 l 73 304 m 193 817 q 152 857 152 817 l 152 944 q 193 985 152 985 l 301 985 q 342 944 342 985 l 342 857 q 301 817 342 817 l 193 817 z "},"ɩ":{"ha":506,"x_min":92,"x_max":481,"o":"m 92 189 l 92 671 q 133 712 92 712 l 241 712 q 282 671 282 712 l 282 233 q 296 137 282 164 q 341 111 311 111 q 382 118 362 111 q 420 136 402 125 q 451 120 442 149 l 473 49 q 460 14 481 26 q 400 -10 440 2 q 320 -22 359 -22 q 150 22 207 -22 q 92 189 92 67 z "},"ɪ":{"ha":507,"x_min":62,"x_max":445,"o":"m 103 0 q 62 34 62 0 l 62 102 q 103 136 62 136 l 159 136 l 159 576 l 103 576 q 62 610 62 576 l 62 678 q 103 712 62 712 l 404 712 q 445 678 445 712 l 445 610 q 404 576 445 576 l 349 576 l 349 136 l 404 136 q 445 102 445 136 l 445 34 q 404 0 445 0 l 103 0 z "},"ɯ":{"ha":1187,"x_min":91,"x_max":1095,"o":"m 91 296 l 91 671 q 132 712 91 712 l 240 712 q 281 671 281 712 l 281 345 q 301 158 281 197 q 372 119 321 119 q 458 175 419 119 q 498 404 498 231 l 498 671 q 538 712 498 712 l 647 712 q 688 671 688 712 l 688 345 q 708 158 688 197 q 779 119 728 119 q 865 175 826 119 q 905 404 905 230 l 905 671 q 945 712 905 712 l 1054 712 q 1095 671 1095 712 l 1095 41 q 1054 0 1095 0 l 947 0 q 906 41 906 0 l 906 80 l 903 80 q 837 12 884 37 q 749 -14 790 -14 q 623 24 668 -14 q 561 109 578 62 l 558 109 q 451 9 499 33 q 329 -14 404 -14 q 160 53 229 -14 q 91 296 91 119 z "},"ɱ":{"ha":1187,"x_min":92,"x_max":1096,"o":"m 133 0 q 92 41 92 0 l 92 671 q 133 712 92 712 l 240 712 q 281 671 281 712 l 281 632 l 283 632 q 350 701 303 675 q 437 726 397 726 q 564 688 519 726 q 626 603 609 650 l 629 603 q 735 703 688 680 q 858 726 783 726 q 1027 659 958 726 q 1096 416 1096 593 l 1096 -3 q 1030 -228 1096 -171 q 854 -285 964 -285 q 752 -277 793 -285 q 732 -242 726 -273 l 747 -168 q 782 -147 753 -136 q 831 -152 794 -152 q 890 -107 873 -152 q 906 18 906 -62 l 906 368 q 886 554 906 515 q 815 593 866 593 q 728 537 768 593 q 689 308 689 481 l 689 41 q 648 0 689 0 l 540 0 q 499 41 499 0 l 499 368 q 479 554 499 515 q 408 593 459 593 q 321 537 361 593 q 282 308 282 482 l 282 41 q 241 0 282 0 l 133 0 z "},"ɵ":{"ha":818,"x_min":54,"x_max":764,"o":"z "},"ɹ":{"ha":533,"x_min":5,"x_max":441,"o":"m 11 28 l 30 109 q 66 125 36 136 q 100 119 84 119 q 208 197 165 119 q 251 425 251 275 l 251 671 q 292 712 251 712 l 400 712 q 441 671 441 712 l 441 41 q 400 0 441 0 l 293 0 q 252 41 252 0 l 252 96 l 250 96 q 191 20 232 53 q 93 -14 149 -14 q 29 -4 54 -14 q 11 28 5 5 z "},"ʃ":{"ha":388,"x_min":-81,"x_max":498,"o":"m -55 -277 q -75 -242 -81 -273 l -60 -168 q -25 -147 -54 -136 q 24 -152 -13 -152 q 83 -107 66 -152 q 99 18 99 -62 l 99 807 q 171 973 99 932 q 342 1015 243 1015 q 418 1009 389 1015 q 473 996 448 1004 q 491 962 498 987 l 471 885 q 439 871 465 863 q 402 879 425 877 q 363 882 379 882 q 301 855 314 882 q 289 739 289 829 l 289 -3 q 223 -228 289 -171 q 47 -285 157 -285 q -55 -277 -14 -285 z "},"ʇ":{"ha":541,"x_min":29,"x_max":513,"o":"m 35 673 q 53 707 29 696 q 114 726 75 718 q 193 734 153 734 q 358 694 290 734 q 427 530 427 654 l 427 136 l 473 136 q 513 102 513 136 l 513 34 q 473 0 513 0 l 427 0 l 427 -24 q 412 -79 427 -54 l 360 -171 q 325 -197 345 -197 l 277 -197 q 237 -156 237 -197 l 237 0 l 127 0 q 87 34 87 0 l 87 102 q 127 136 87 136 l 237 136 l 237 472 q 227 571 237 541 q 176 602 217 602 q 128 594 155 602 q 87 581 102 587 q 56 596 63 570 l 35 673 z "},"ʉ":{"ha":930,"x_min":32,"x_max":899,"o":"m 73 304 q 32 338 32 304 l 32 406 q 73 439 32 439 l 152 439 l 152 671 q 193 712 152 712 l 301 712 q 342 671 342 712 l 342 439 l 589 439 l 589 671 q 629 712 589 712 l 738 712 q 779 671 779 712 l 779 439 l 858 439 q 899 406 899 439 l 899 338 q 858 304 899 304 l 779 304 l 779 41 q 738 0 779 0 l 631 0 q 590 41 590 0 l 590 80 l 587 80 q 508 6 556 26 q 394 -14 460 -14 q 221 53 290 -14 q 152 296 152 119 l 152 304 l 73 304 m 342 295 q 362 161 342 202 q 448 119 382 119 q 546 165 511 119 q 585 304 580 211 l 342 304 l 342 295 z "},"ʋ":{"ha":793,"x_min":91,"x_max":739,"o":"m 91 315 l 91 671 q 132 712 91 712 l 240 712 q 281 671 281 712 l 281 345 q 308 158 281 197 q 402 119 336 119 q 500 172 463 119 q 538 360 538 224 q 517 490 538 425 q 463 606 496 555 q 473 655 443 637 l 581 716 q 636 698 612 734 q 706 556 673 643 q 739 378 739 470 q 653 88 739 189 q 408 -14 568 -14 q 183 54 275 -14 q 91 315 91 121 z "},"ʌ":{"ha":684,"x_min":12,"x_max":672,"o":"m 51 0 q 28 53 12 0 l 225 667 q 275 712 239 712 l 409 712 q 458 667 444 712 l 655 53 q 633 0 672 0 l 511 0 q 471 35 479 0 l 366 432 q 351 498 357 465 q 344 551 345 530 l 340 551 q 333 498 338 530 q 318 432 327 465 l 213 35 q 172 0 204 0 l 51 0 z "},"ʍ":{"ha":1088,"x_min":14,"x_max":1074,"o":"m 28 53 l 205 667 q 254 712 218 712 l 377 712 q 427 667 416 712 l 525 264 q 537 209 534 230 q 543 162 541 188 l 545 162 q 550 209 547 188 q 563 264 554 230 l 661 667 q 711 712 672 712 l 833 712 q 883 667 870 712 l 1059 53 q 1037 0 1074 0 l 922 0 q 882 35 890 0 l 790 432 q 776 498 782 467 q 768 551 770 530 l 764 551 q 757 497 763 530 q 743 432 751 465 l 646 35 q 606 0 638 0 l 482 0 q 441 35 450 0 l 345 432 q 331 497 337 465 q 323 551 325 530 l 319 551 q 312 498 318 530 q 298 432 306 467 l 206 35 q 165 0 198 0 l 51 0 q 28 53 14 0 z "},"ʎ":{"ha":671,"x_min":0,"x_max":660,"o":"m 18 53 l 246 741 q 345 929 286 861 q 507 997 403 997 q 608 987 564 997 q 628 952 634 982 l 613 878 q 578 857 607 848 q 539 864 557 864 q 455 812 484 864 q 417 722 427 760 l 415 712 l 642 53 q 619 0 660 0 l 498 0 q 457 35 467 0 l 355 414 q 341 482 347 440 q 336 535 336 524 l 332 535 q 320 478 323 499 q 299 395 316 456 l 202 35 q 161 0 193 0 l 40 0 q 18 53 0 0 z "},"ʒ":{"ha":695,"x_min":27,"x_max":631,"o":"m 55 -198 q 55 -138 27 -166 l 106 -85 q 165 -88 134 -56 q 227 -135 195 -118 q 317 -152 258 -152 q 404 -105 378 -152 q 430 7 430 -59 q 392 126 430 81 q 254 172 354 172 l 191 172 q 150 205 150 172 l 150 257 q 178 330 150 294 l 367 576 l 367 579 q 313 576 340 576 l 95 576 q 54 610 54 576 l 54 678 q 95 712 54 712 l 562 712 q 602 678 602 712 l 602 631 q 573 557 602 595 l 380 307 l 380 304 q 570 200 509 279 q 631 9 631 122 q 553 -209 631 -132 q 323 -285 476 -285 q 155 -262 218 -285 q 55 -198 92 -240 z "},"ʙ":{"ha":750,"x_min":92,"x_max":686,"o":"m 133 0 q 92 41 92 0 l 92 671 q 133 712 92 712 l 376 712 q 592 661 521 712 q 664 541 664 610 q 626 428 664 466 q 542 375 587 391 l 542 373 q 654 304 622 346 q 686 201 686 262 q 632 56 686 112 q 422 0 577 0 l 133 0 m 282 133 l 342 133 q 455 153 424 133 q 486 212 486 173 q 455 279 486 254 q 342 303 424 303 l 282 303 l 282 133 m 282 432 l 346 432 q 439 455 405 432 q 474 516 474 478 q 431 569 474 559 q 349 579 389 579 l 282 579 l 282 432 z "},"ʜ":{"ha":808,"x_min":92,"x_max":716,"o":"m 133 0 q 92 41 92 0 l 92 671 q 133 712 92 712 l 241 712 q 282 671 282 712 l 282 439 l 526 439 l 526 671 q 567 712 526 712 l 675 712 q 716 671 716 712 l 716 41 q 675 0 716 0 l 567 0 q 526 41 526 0 l 526 304 l 282 304 l 282 41 q 241 0 282 0 l 133 0 z "},"ʞ":{"ha":756,"x_min":9,"x_max":665,"o":"m 42 662 q 63 712 9 712 l 179 712 q 235 677 213 712 l 389 429 l 475 533 l 475 671 q 515 712 475 712 l 624 712 q 665 671 665 712 l 665 -248 q 624 -289 665 -289 l 515 -289 q 475 -248 475 -289 l 475 250 q 477 304 475 277 l 475 304 l 260 28 q 207 0 238 0 l 96 0 q 75 50 33 0 l 279 298 l 42 662 z "},"ʰ":{"ha":488,"x_min":56,"x_max":434,"o":"m 56 499 l 56 1051 q 80 1076 56 1076 l 145 1076 q 170 1051 170 1076 l 170 886 q 168 854 170 870 l 170 854 q 288 910 203 910 q 393 870 351 910 q 434 724 434 830 l 434 499 q 410 475 434 475 l 345 475 q 320 499 320 475 l 320 695 q 308 807 320 784 q 255 830 296 830 q 191 797 212 830 q 170 659 170 764 l 170 499 q 145 475 170 475 l 80 475 q 56 499 56 475 z "},"ʲ":{"ha":229,"x_min":-49,"x_max":174,"o":"m -45 330 l -36 374 q -15 387 -33 393 q 14 384 -7 384 q 50 411 40 384 q 60 486 60 437 l 60 878 q 84 902 60 902 l 149 902 q 174 878 174 902 l 174 473 q 134 338 174 372 q 28 304 94 304 q -33 309 -8 304 q -45 330 -49 311 m 60 989 l 60 1041 q 84 1065 60 1065 l 149 1065 q 174 1041 174 1065 l 174 989 q 149 964 174 964 l 84 964 q 60 989 60 964 z "},"ʳ":{"ha":319,"x_min":56,"x_max":317,"o":"m 56 499 l 56 878 q 80 902 56 902 l 144 902 q 168 878 168 902 l 168 844 l 170 844 q 206 890 181 870 q 264 910 231 910 q 302 905 287 910 q 313 885 317 899 l 302 836 q 280 827 298 820 q 260 830 269 830 q 195 783 220 830 q 170 647 170 736 l 170 499 q 145 475 170 475 l 80 475 q 56 499 56 475 z "},"ʴ":{"ha":319,"x_min":3,"x_max":264,"o":"m 7 492 l 18 541 q 40 550 21 557 q 60 547 51 547 q 125 593 100 547 q 151 730 151 640 l 151 878 q 175 902 151 902 l 240 902 q 264 878 264 902 l 264 499 q 240 475 264 475 l 176 475 q 151 499 151 475 l 151 532 l 150 532 q 114 487 139 507 q 56 467 90 467 q 18 472 33 467 q 7 492 3 477 z "},"ʷ":{"ha":652,"x_min":8,"x_max":644,"o":"m 17 870 q 31 902 8 902 l 99 902 q 123 881 119 902 l 178 643 q 192 572 190 594 l 194 572 q 207 643 196 597 l 265 881 q 290 902 270 902 l 363 902 q 388 881 383 902 l 446 643 q 458 572 457 597 l 461 572 q 474 643 463 594 l 529 881 q 553 902 534 902 l 622 902 q 635 870 644 902 l 530 502 q 500 475 522 475 l 427 475 q 397 502 404 475 l 338 743 q 327 805 328 780 l 326 805 q 315 743 324 780 l 256 502 q 227 475 249 475 l 153 475 q 123 502 131 475 l 17 870 z "},"ʸ":{"ha":403,"x_min":7,"x_max":403,"o":"m 18 870 q 31 902 7 902 l 104 902 q 129 881 123 902 l 190 654 q 201 581 201 613 l 204 581 q 211 615 209 603 q 223 665 213 628 l 281 881 q 306 902 287 902 l 379 902 q 392 870 403 902 l 255 458 q 196 345 231 385 q 99 304 161 304 q 38 309 65 304 q 26 331 22 313 l 35 376 q 56 388 39 393 q 79 384 68 384 q 131 417 113 384 q 154 475 149 450 l 18 870 z "},"ʹ":{"ha":366,"x_min":77,"x_max":368,"o":"m 111 606 q 87 647 77 606 l 173 1007 q 218 1051 184 1051 l 328 1051 q 352 1007 368 1051 l 221 647 q 178 606 206 606 l 111 606 z "},"ʺ":{"ha":671,"x_min":77,"x_max":673,"o":"z "},"ˆ":{"ha":416,"x_min":-25,"x_max":441,"o":"m -5 804 q 9 856 -25 832 l 149 954 q 195 972 176 972 l 221 972 q 267 954 241 972 l 408 856 q 422 804 441 832 l 405 780 q 352 776 385 752 l 209 878 l 208 878 l 64 776 q 12 780 31 752 l -5 804 z "},"ˇ":{"ha":416,"x_min":-25,"x_max":441,"o":"m 9 888 q -5 940 -25 912 l 12 964 q 64 968 32 992 l 208 866 l 209 866 l 352 968 q 405 964 385 992 l 422 940 q 408 888 441 912 l 267 790 q 221 772 241 772 l 195 772 q 149 790 176 772 l 9 888 z "},"ˊ":{"ha":416,"x_min":79,"x_max":402,"o":"m 118 780 q 104 820 79 780 l 177 941 q 249 973 196 973 l 352 973 q 367 933 402 973 l 255 805 q 186 780 233 780 l 118 780 z "},"ˋ":{"ha":416,"x_min":68,"x_max":391,"o":"m 104 933 q 119 973 68 973 l 222 973 q 294 941 275 973 l 367 820 q 353 780 391 780 l 284 780 q 216 805 237 780 l 104 933 z "},"ˎ":{"ha":416,"x_min":68,"x_max":391,"o":"m 104 -235 q 119 -195 68 -195 l 222 -195 q 294 -227 275 -195 l 367 -348 q 353 -388 391 -388 l 284 -388 q 216 -363 237 -388 l 104 -235 z "},"ˏ":{"ha":416,"x_min":79,"x_max":402,"o":"m 118 -388 q 104 -348 79 -388 l 177 -227 q 249 -195 196 -195 l 352 -195 q 367 -235 402 -195 l 255 -363 q 186 -388 233 -388 l 118 -388 z "},"˘":{"ha":416,"x_min":-28,"x_max":445,"o":"m -15 916 q -8 956 -28 945 l 35 981 q 73 966 60 994 q 124 905 91 930 q 208 880 158 880 q 292 905 258 880 q 343 966 326 930 q 381 981 357 994 l 425 956 q 431 916 445 945 q 344 804 397 841 q 208 766 290 766 q 73 804 126 766 q -15 916 19 841 z "},"˙":{"ha":416,"x_min":113,"x_max":303,"o":"m 154 817 q 113 857 113 817 l 113 944 q 154 985 113 985 l 262 985 q 303 944 303 985 l 303 857 q 262 817 303 817 l 154 817 z "},"˚":{"ha":416,"x_min":80,"x_max":336,"o":"m 80 890 q 117 980 80 943 q 208 1017 155 1017 q 299 980 262 1017 q 336 890 336 943 q 299 801 336 838 q 208 764 262 764 q 117 801 155 764 q 80 890 80 838 m 144 890 q 163 845 144 863 q 208 827 181 827 q 254 845 235 827 q 272 890 272 863 q 254 936 272 918 q 208 954 235 954 q 163 936 181 954 q 144 890 144 918 z "},"˛":{"ha":416,"x_min":48,"x_max":356,"o":"m 48 -168 q 55 -120 48 -143 q 90 -64 61 -97 q 153 0 118 -31 q 165 41 165 9 l 354 41 q 329 -7 354 10 q 251 -67 294 -37 q 208 -119 208 -98 q 224 -146 208 -140 q 262 -152 240 -152 q 317 -149 296 -152 q 344 -170 341 -144 l 353 -250 q 330 -279 356 -274 q 239 -285 300 -285 q 96 -255 144 -285 q 48 -168 48 -225 z "},"˜":{"ha":416,"x_min":-29,"x_max":446,"o":"m -8 803 q -18 844 -29 812 q 34 917 -3 887 q 126 947 72 947 q 224 911 172 947 q 299 876 275 876 q 335 885 320 876 q 359 915 349 895 q 396 934 374 944 l 425 921 q 435 880 446 911 q 382 807 420 837 q 290 777 345 777 q 193 812 244 777 q 117 848 141 848 q 82 839 96 848 q 57 809 67 829 q 20 790 43 780 l -8 803 z "},"˝":{"ha":416,"x_min":-18,"x_max":465,"o":"m 18 780 q 0 826 -18 780 l 43 939 q 109 973 57 973 l 197 973 q 203 926 234 973 l 124 808 q 61 780 105 780 l 18 780 m 249 780 q 231 826 214 780 l 275 939 q 340 973 288 973 l 428 973 q 434 926 465 973 l 355 808 q 292 780 336 780 l 249 780 z "},"ˠ":{"ha":419,"x_min":5,"x_max":413,"o":"m 17 870 q 31 902 5 902 l 103 902 q 127 881 121 902 l 195 667 q 208 604 205 631 l 210 604 q 223 667 212 631 l 290 881 q 315 902 297 902 l 388 902 q 401 870 413 902 l 286 549 q 333 470 320 500 q 347 404 347 439 q 314 334 347 365 q 209 304 281 304 q 104 334 137 304 q 72 404 72 365 q 85 470 72 439 q 132 549 98 500 l 17 870 m 180 418 q 209 384 180 384 q 238 418 238 384 q 210 483 238 446 l 208 483 q 180 418 180 446 z "},"ˡ":{"ha":224,"x_min":56,"x_max":170,"o":"m 56 499 l 56 980 q 64 1013 56 998 l 95 1068 q 117 1084 104 1084 l 145 1084 q 170 1059 170 1084 l 170 499 q 145 475 170 475 l 80 475 q 56 499 56 475 z "},"ˢ":{"ha":409,"x_min":18,"x_max":380,"o":"m 27 534 l 47 572 q 82 576 58 592 q 194 547 127 547 q 266 595 266 547 q 221 636 266 625 q 61 712 79 671 q 42 783 42 753 q 66 856 42 825 q 127 898 90 886 q 222 910 165 910 q 296 899 260 910 q 348 878 332 888 q 360 846 372 863 l 335 809 q 298 807 323 793 q 220 830 256 830 q 156 791 156 830 q 189 753 156 765 q 268 729 222 742 q 347 690 313 715 q 380 602 380 665 q 346 515 380 563 q 204 467 313 467 q 38 503 89 467 q 27 534 18 517 z "},"ˣ":{"ha":441,"x_min":2,"x_max":440,"o":"m 23 505 l 157 700 l 39 872 q 54 902 18 902 l 130 902 q 158 886 149 902 l 221 776 l 284 886 q 312 902 294 902 l 389 902 q 404 872 424 902 l 283 700 l 419 505 q 404 475 440 475 l 328 475 q 300 491 310 475 l 221 624 l 142 491 q 115 475 132 475 l 37 475 q 23 505 2 475 z "},"ˮ":{"ha":621,"x_min":68,"x_max":553,"o":"z "},"̀":{"ha":0,"x_min":-348,"x_max":-25,"o":"m -313 933 q -298 973 -348 973 l -195 973 q -123 941 -142 973 l -50 820 q -64 780 -25 780 l -132 780 q -201 805 -179 780 l -313 933 z "},"́":{"ha":0,"x_min":-337,"x_max":-14,"o":"m -298 780 q -313 820 -337 780 l -239 941 q -168 973 -220 973 l -64 973 q -50 933 -14 973 l -161 805 q -230 780 -183 780 l -298 780 z "},"̂":{"ha":0,"x_min":-441,"x_max":25,"o":"m -422 804 q -408 856 -441 832 l -267 954 q -221 972 -241 972 l -195 972 q -149 954 -176 972 l -9 856 q 5 804 25 832 l -12 780 q -64 776 -32 752 l -208 878 l -209 878 l -352 776 q -405 780 -385 752 l -422 804 z "},"̃":{"ha":0,"x_min":-446,"x_max":29,"o":"m -425 803 q -435 844 -446 812 q -382 917 -420 887 q -290 947 -345 947 q -193 911 -244 947 q -117 876 -141 876 q -82 885 -96 876 q -57 915 -67 895 q -20 934 -43 944 l 8 921 q 18 880 29 911 q -34 807 3 837 q -126 777 -72 777 q -224 812 -172 777 q -299 848 -275 848 q -335 839 -320 848 q -359 809 -349 829 q -396 790 -374 780 l -425 803 z "},"̄":{"ha":0,"x_min":-431,"x_max":15,"o":"m -391 831 q -431 865 -431 831 l -431 910 q -391 944 -431 944 l -26 944 q 15 910 15 944 l 15 865 q -26 831 15 831 l -391 831 z "},"̅":{"ha":0,"x_min":-831,"x_max":17,"o":"m -790 808 q -831 842 -831 808 l -831 910 q -790 944 -831 944 l -24 944 q 17 910 17 944 l 17 842 q -24 808 17 808 l -790 808 z "},"̆":{"ha":0,"x_min":-445,"x_max":28,"o":"m -431 916 q -425 956 -445 945 l -381 981 q -343 966 -357 994 q -292 905 -326 930 q -208 880 -258 880 q -124 905 -158 880 q -73 966 -91 930 q -35 981 -60 994 l 8 956 q 15 916 28 945 q -73 804 -19 841 q -208 766 -126 766 q -344 804 -290 766 q -431 916 -397 841 z "},"̇":{"ha":0,"x_min":-303,"x_max":-113,"o":"m -262 817 q -303 857 -303 817 l -303 944 q -262 985 -303 985 l -154 985 q -113 944 -113 985 l -113 857 q -154 817 -113 817 l -262 817 z "},"̈":{"ha":0,"x_min":-433,"x_max":16,"o":"m -392 818 q -433 859 -433 818 l -433 937 q -392 978 -433 978 l -313 978 q -273 937 -273 978 l -273 859 q -313 818 -273 818 l -392 818 m -103 818 q -144 859 -144 818 l -144 937 q -103 978 -144 978 l -24 978 q 16 937 16 978 l 16 859 q -24 818 16 818 l -103 818 z "},"̊":{"ha":0,"x_min":-336,"x_max":-80,"o":"m -336 890 q -299 980 -336 943 q -208 1017 -262 1017 q -117 980 -155 1017 q -80 890 -80 943 q -117 801 -80 838 q -208 764 -155 764 q -299 801 -262 764 q -336 890 -336 838 m -272 890 q -254 845 -272 863 q -208 827 -235 827 q -163 845 -181 827 q -144 890 -144 863 q -163 936 -144 918 q -208 954 -181 954 q -254 936 -235 954 q -272 890 -272 918 z "},"̋":{"ha":0,"x_min":-434,"x_max":49,"o":"m -399 780 q -416 826 -434 780 l -373 939 q -307 973 -359 973 l -220 973 q -214 926 -182 973 l -292 808 q -355 780 -311 780 l -399 780 m -168 780 q -185 826 -203 780 l -142 939 q -76 973 -128 973 l 12 973 q 18 926 49 973 l -61 808 q -124 780 -80 780 l -168 780 z "},"̌":{"ha":0,"x_min":-441,"x_max":25,"o":"m -408 888 q -422 940 -441 912 l -405 964 q -352 968 -385 992 l -209 866 l -208 866 l -64 968 q -12 964 -31 992 l 5 940 q -9 888 25 912 l -149 790 q -195 772 -176 772 l -221 772 q -267 790 -241 772 l -408 888 z "},"̏":{"ha":0,"x_min":-439,"x_max":43,"o":"m -408 926 q -402 973 -439 973 l -315 973 q -249 939 -262 973 l -205 826 q -223 780 -188 780 l -267 780 q -330 808 -311 780 l -408 926 m -177 926 q -171 973 -208 973 l -83 973 q -18 939 -31 973 l 26 826 q 8 780 43 780 l -35 780 q -98 808 -79 780 l -177 926 z "},"̑":{"ha":0,"x_min":-446,"x_max":28,"o":"m 15 836 q 8 795 28 807 l -35 771 q -73 785 -60 758 q -124 846 -91 821 q -208 871 -158 871 q -292 846 -258 871 q -343 785 -326 821 q -381 771 -357 757 l -425 795 q -431 836 -445 807 q -344 948 -397 911 q -208 985 -290 985 q -73 948 -126 985 q 15 836 -19 911 z "},"̕":{"ha":0,"x_min":-100,"x_max":100,"o":"z "},"̖":{"ha":0,"x_min":-348,"x_max":-25,"o":"m -313 -235 q -298 -195 -348 -195 l -195 -195 q -123 -227 -142 -195 l -50 -348 q -64 -388 -25 -388 l -132 -388 q -201 -363 -179 -388 l -313 -235 z "},"̗":{"ha":0,"x_min":-337,"x_max":-14,"o":"m -298 -388 q -313 -348 -337 -388 l -239 -227 q -168 -195 -220 -195 l -64 -195 q -50 -235 -14 -195 l -161 -363 q -230 -388 -183 -388 l -298 -388 z "},"̣":{"ha":0,"x_min":-303,"x_max":-113,"o":"m -262 -267 q -303 -226 -303 -267 l -303 -139 q -262 -98 -303 -98 l -154 -98 q -113 -139 -113 -98 l -113 -226 q -154 -267 -113 -267 l -262 -267 z "},"̤":{"ha":0,"x_min":-433,"x_max":16,"o":"m -392 -258 q -433 -217 -433 -258 l -433 -138 q -392 -98 -433 -98 l -313 -98 q -273 -138 -273 -98 l -273 -217 q -313 -258 -273 -258 l -392 -258 m -103 -258 q -144 -217 -144 -258 l -144 -138 q -103 -98 -144 -98 l -24 -98 q 16 -138 16 -98 l 16 -217 q -24 -258 16 -258 l -103 -258 z "},"̥":{"ha":0,"x_min":-336,"x_max":-80,"o":"m -336 -228 q -299 -139 -336 -176 q -208 -102 -262 -102 q -117 -139 -155 -102 q -80 -228 -80 -176 q -117 -317 -80 -280 q -208 -354 -155 -354 q -299 -317 -262 -354 q -336 -228 -336 -280 m -272 -228 q -254 -273 -272 -255 q -208 -292 -235 -292 q -163 -273 -181 -292 q -144 -228 -144 -255 q -163 -182 -144 -201 q -208 -164 -181 -164 q -254 -182 -235 -164 q -272 -228 -272 -201 z "},"̧":{"ha":0,"x_min":-356,"x_max":-90,"o":"m -337 -272 q -349 -243 -356 -267 l -340 -213 q -309 -197 -333 -188 q -255 -206 -286 -206 q -211 -197 -227 -206 q -195 -168 -195 -188 q -212 -142 -195 -151 q -265 -134 -229 -134 l -279 -134 q -302 -110 -302 -134 q -293 -64 -302 -82 l -260 0 q -233 15 -253 15 l -177 15 q -164 0 -157 15 l -195 -60 l -195 -62 q -113 -96 -136 -70 q -90 -165 -90 -123 q -135 -257 -90 -231 q -248 -284 -180 -284 q -337 -272 -294 -284 z "},"̨":{"ha":0,"x_min":-368,"x_max":-60,"o":"m -368 -168 q -362 -120 -368 -143 q -327 -64 -355 -97 q -263 0 -298 -31 q -251 41 -251 9 l -62 41 q -87 -7 -62 10 q -165 -67 -123 -37 q -208 -119 -208 -98 q -192 -146 -208 -140 q -155 -152 -176 -152 q -100 -149 -121 -152 q -73 -170 -75 -144 l -63 -250 q -86 -279 -60 -274 q -177 -285 -116 -285 q -320 -255 -273 -285 q -368 -168 -368 -225 z "},"̬":{"ha":0,"x_min":-441,"x_max":25,"o":"m -408 -189 q -422 -138 -441 -165 l -405 -113 q -352 -109 -385 -85 l -209 -212 l -208 -212 l -64 -109 q -12 -113 -31 -85 l 5 -138 q -9 -189 25 -165 l -149 -288 q -195 -306 -176 -306 l -221 -306 q -267 -288 -241 -306 l -408 -189 z "},"̭":{"ha":0,"x_min":-441,"x_max":25,"o":"m -422 -265 q -408 -214 -441 -237 l -267 -115 q -221 -97 -241 -97 l -195 -97 q -149 -115 -176 -97 l -9 -214 q 5 -265 25 -237 l -12 -290 q -64 -294 -32 -317 l -208 -191 l -209 -191 l -352 -294 q -405 -290 -385 -317 l -422 -265 z "},"̮":{"ha":0,"x_min":-445,"x_max":28,"o":"m -431 -168 q -425 -127 -445 -139 l -381 -103 q -343 -117 -357 -90 q -292 -178 -326 -153 q -208 -203 -258 -203 q -124 -178 -158 -203 q -73 -117 -91 -153 q -35 -103 -60 -90 l 8 -127 q 15 -168 28 -139 q -73 -280 -19 -243 q -208 -317 -126 -317 q -344 -280 -290 -317 q -431 -168 -397 -243 z "},"̯":{"ha":0,"x_min":-446,"x_max":28,"o":"m 15 -346 q 8 -387 28 -375 l -35 -411 q -73 -397 -60 -425 q -124 -336 -91 -361 q -208 -311 -158 -311 q -292 -336 -258 -311 q -343 -397 -326 -361 q -381 -411 -357 -425 l -425 -387 q -431 -346 -445 -375 q -344 -234 -397 -271 q -208 -197 -290 -197 q -73 -234 -126 -197 q 15 -346 -19 -271 z "},"̰":{"ha":0,"x_min":-446,"x_max":29,"o":"m -425 -333 q -435 -292 -446 -323 q -382 -219 -420 -249 q -290 -189 -345 -189 q -193 -224 -244 -189 q -117 -260 -141 -260 q -82 -251 -96 -260 q -57 -221 -67 -241 q -20 -202 -43 -192 l 8 -215 q 18 -256 29 -224 q -34 -329 3 -299 q -126 -359 -72 -359 q -224 -323 -172 -359 q -299 -288 -275 -288 q -335 -297 -320 -288 q -359 -327 -349 -307 q -396 -346 -374 -356 l -425 -333 z "},"̱":{"ha":0,"x_min":-431,"x_max":15,"o":"m -391 -301 q -431 -267 -431 -301 l -431 -222 q -391 -189 -431 -189 l -26 -189 q 15 -222 15 -189 l 15 -267 q -26 -301 15 -301 l -391 -301 z "},"̲":{"ha":0,"x_min":-831,"x_max":17,"o":"m -790 -288 q -831 -254 -831 -288 l -831 -186 q -790 -153 -831 -153 l -24 -153 q 17 -186 17 -153 l 17 -254 q -24 -288 17 -288 l -790 -288 z "},"̴":{"ha":0,"x_min":-446,"x_max":29,"o":"m -425 330 q -435 371 -446 339 q -382 444 -420 414 q -290 473 -345 473 q -193 438 -244 473 q -117 403 -141 403 q -82 412 -96 403 q -57 441 -67 421 q -20 460 -43 471 l 8 448 q 18 406 29 438 q -34 334 3 363 q -126 304 -72 304 q -224 339 -172 304 q -299 374 -275 374 q -335 365 -320 374 q -359 336 -349 356 q -396 317 -374 307 l -425 330 z "},"̸":{"ha":0,"x_min":-589,"x_max":9,"o":"m -557 -256 q -574 -206 -589 -244 l -124 967 q -78 993 -109 1005 l -23 972 q -6 922 9 960 l -456 -252 q -503 -277 -471 -290 l -557 -256 z "},"Δ":{"ha":971,"x_min":35,"x_max":936,"o":"m 83 0 q 35 51 35 0 l 35 71 q 51 134 35 96 l 374 918 q 438 972 397 972 l 533 972 q 597 918 574 972 l 920 134 q 936 71 936 96 l 936 51 q 888 0 936 0 l 83 0 m 272 165 q 340 168 313 168 l 631 168 q 699 165 659 168 l 699 170 l 515 613 q 496 665 502 644 q 487 720 490 686 l 484 720 q 475 665 481 686 q 456 613 469 644 l 272 170 l 272 165 z "},"Σ":{"ha":846,"x_min":47,"x_max":800,"o":"m 98 0 q 47 44 47 0 l 47 100 q 82 194 47 146 l 282 470 q 282 559 315 515 l 94 814 q 70 883 70 846 l 70 928 q 121 972 70 972 l 728 972 q 779 928 779 972 l 779 848 q 728 804 779 804 l 423 804 q 342 808 382 804 l 342 803 l 524 556 q 525 470 556 513 l 306 170 l 306 165 q 387 168 347 168 l 749 168 q 800 124 800 168 l 800 44 q 749 0 800 0 l 98 0 z "},"Ω":{"ha":1101,"x_min":39,"x_max":1062,"o":"m 90 0 q 39 44 39 0 l 39 124 q 90 168 39 168 l 199 168 q 267 165 233 168 l 267 170 q 139 321 201 210 q 78 543 78 433 q 192 850 78 705 q 551 996 307 996 q 909 850 795 996 q 1023 543 1023 705 q 962 321 1023 433 q 834 170 901 210 l 834 165 q 902 168 868 168 l 1011 168 q 1062 124 1062 168 l 1062 44 q 1011 0 1062 0 l 676 0 q 625 44 625 0 l 625 94 q 653 154 625 135 q 764 280 715 196 q 812 513 812 364 q 747 747 812 659 q 551 836 682 836 q 354 747 419 836 q 290 513 290 659 q 338 280 290 364 q 448 154 386 196 q 476 94 476 135 l 476 44 q 425 0 476 0 l 90 0 z "},"π":{"ha":951,"x_min":3,"x_max":919,"o":"m 10 641 q 33 677 3 661 q 106 703 64 693 q 213 712 148 712 l 879 712 q 919 678 919 712 l 919 610 q 879 576 919 576 l 783 576 l 783 186 q 792 136 783 152 q 823 119 800 119 q 859 126 834 119 q 888 113 884 134 l 905 30 q 886 1 910 7 q 768 -14 836 -14 q 638 37 684 -14 q 593 178 593 87 l 593 576 l 373 576 l 373 41 q 332 0 373 0 l 224 0 q 183 41 183 0 l 183 576 q 127 571 153 576 q 79 555 101 565 q 39 563 47 540 l 10 641 z "},"Ѐ":{"ha":868,"x_min":109,"x_max":810,"o":"z "},"Ё":{"ha":868,"x_min":109,"x_max":810,"o":"m 234 1038 q 186 1088 186 1038 l 186 1160 q 234 1211 186 1211 l 337 1211 q 385 1160 385 1211 l 385 1088 q 337 1038 385 1038 l 234 1038 m 578 1038 q 531 1088 531 1038 l 531 1160 q 578 1211 531 1211 l 682 1211 q 729 1160 729 1211 l 729 1088 q 682 1038 729 1038 l 578 1038 m 156 0 q 109 51 109 0 l 109 922 q 156 972 109 972 l 738 972 q 789 928 789 972 l 789 848 q 738 804 789 804 l 307 804 l 307 589 l 702 589 q 753 545 753 589 l 753 465 q 702 420 753 420 l 307 420 l 307 168 l 760 168 q 810 124 810 168 l 810 44 q 760 0 810 0 l 156 0 z "},"Ђ":{"ha":1095,"x_min":23,"x_max":1027,"o":"m 74 799 q 23 843 23 799 l 23 928 q 74 972 23 972 l 771 972 q 822 928 822 972 l 822 843 q 771 799 822 799 l 501 799 l 501 640 q 498 558 501 599 l 503 558 q 612 600 551 583 q 731 617 673 617 q 950 526 873 617 q 1027 294 1027 434 q 959 45 1027 113 q 734 -23 891 -23 q 637 -11 675 -23 q 604 34 595 3 l 627 115 q 667 144 636 151 q 725 137 697 137 q 797 170 777 137 q 816 286 816 202 q 780 411 816 365 q 686 457 743 457 q 601 448 642 457 q 501 412 561 439 l 501 37 q 467 0 501 0 l 337 0 q 303 37 303 0 l 303 799 l 74 799 z "},"Ѓ":{"ha":758,"x_min":109,"x_max":735,"o":"m 156 0 q 109 51 109 0 l 109 922 q 156 972 109 972 l 684 972 q 735 928 735 972 l 735 848 q 684 804 735 804 l 307 804 l 307 51 q 259 0 307 0 l 156 0 m 323 1044 q 307 1088 278 1044 l 366 1179 q 440 1211 387 1211 l 559 1211 q 576 1169 621 1211 l 469 1070 q 393 1044 441 1044 l 323 1044 z "},"Є":{"ha":962,"x_min":58,"x_max":913,"o":"m 881 109 q 752 12 833 47 q 519 -23 671 -23 q 179 103 299 -23 q 58 486 58 230 q 177 869 58 743 q 519 996 296 996 q 718 970 642 996 q 859 876 793 944 q 862 807 895 837 l 800 751 q 726 764 766 720 q 648 813 701 790 q 526 836 595 836 q 336 766 384 836 q 275 590 288 696 l 637 590 q 688 546 688 590 l 688 466 q 637 422 688 422 l 274 422 q 333 212 283 288 q 526 137 384 137 q 662 168 612 137 q 737 227 713 198 q 811 242 777 272 l 884 177 q 881 109 913 151 z "}}}
